<svg width="55" height="55" viewBox="0 0 55 55" fill="none" xmlns="http://www.w3.org/2000/svg">
<g clip-path="url(#clip0_3166_1213)">
<path d="M15.9735 33.1612L8.11018 33.9669L8.00276 32.9249L14.7918 32.2266L9.90412 28.4024L6.23029 28.3165L6.25178 27.2745L8.51838 27.3282L2.24494 22.419L2.88947 21.5919L9.07697 26.4258L8.51838 24.3848L9.52815 24.1055L10.452 27.5001L15.3612 31.3458L14.4158 24.7178L15.4471 24.5674L16.5321 32.2696L20.0662 35.0411C19.9158 33.1934 19.5506 28.4024 19.5936 28.7032C19.4862 27.1348 19.2928 25.5665 19.0242 24.0089C18.6268 21.8926 16.6395 16.962 12.7615 19.046C11.2254 19.8731 10.8172 22.1827 11.1395 23.2891C11.1395 23.2891 10.1942 20.3995 9.20588 20.0235C7.89533 19.5186 7.2508 20.1954 6.65998 21.3878C6.65998 21.3878 2.59944 17.7354 0.515451 20.4102C-1.53631 23.0313 2.90022 26.1358 2.90022 26.1358C1.79377 27.1456 1.05256 28.0801 2.04084 29.2296C3.02912 30.379 5.45686 30.0997 5.45686 30.0997C3.82404 30.379 2.44904 31.4102 2.22346 32.3448C1.31037 35.9649 4.94123 37.8448 7.56233 37.8126C10.3231 37.7803 17.2733 36.3516 19.4539 35.8897L15.9735 33.1612Z" fill="#002438"/>
<path d="M28.8961 43.6886C28.8961 43.6886 28.2623 42.5069 23.482 44.2471C18.8091 45.9444 19.024 47.2979 19.024 47.2979C22.1177 55.8272 26.0494 54.2052 26.0494 54.2052L27.3921 54.8712L27.9293 53.4962C27.9293 53.4854 32.0757 52.4434 28.8961 43.6886Z" fill="#002438"/>
<path d="M53.7647 22.666C54.6778 21.2266 54.8711 19.6797 54.3233 18.0791C53.7647 16.4355 51.4121 15.2754 50.5313 15.2109C50.5313 15.2109 53.625 14.083 53.7539 12.2998C53.8614 10.6885 52.2608 9.53906 52.2608 9.53906C52.2608 9.53906 55.1397 6.31641 54.9893 4.13574C54.9248 3.07227 54.3877 2.10547 53.3994 1.24609C52.5508 0.515625 51.6377 0.139648 50.7032 0.139648C48.2647 0.139648 45.3643 3.56641 45.3643 3.56641C45.3643 3.56641 44.3116 2.36328 43.3018 2.36328C43.0118 2.36328 42.7217 2.40625 42.4317 2.48145C40.5088 3.0293 40.0039 6.09082 40.0039 6.09082C39.8106 5.23145 38.3282 3.07227 36.6202 2.75C36.2764 2.68555 35.9219 2.65332 35.5782 2.65332C34.128 2.65332 32.8282 3.24414 31.711 4.39356C29.8741 6.29492 28.9502 9.4209 29.0147 11.3867C29.1006 13.8252 29.6377 16.3711 29.6377 16.3711C29.3155 15.791 28.1768 14.9424 26.7696 14.9424C26.587 14.9424 26.3936 14.9531 26.211 14.9854C25.1475 15.1572 24.2129 15.7803 23.6436 16.7041C23.0098 17.7246 22.8916 18.9922 23.2998 20.292C23.6651 21.4092 24.127 22.5049 24.6641 23.5469L24.8467 23.8906L24.5137 23.6865C23.8262 23.2676 23.1924 23.0527 22.6446 23.0527C21.9463 23.0527 21.3877 23.4072 20.9903 24.1162C20.292 25.3408 21.0332 28.7354 21.7422 32.0225C22.043 33.4189 22.333 34.7402 22.5049 35.8789L27.6504 30.1211L27.9727 24.5244L27.9834 24.417L28.0909 24.4277L28.9932 24.4814H29.1006L29.0899 24.5889L28.8536 28.7461L34.2354 22.5801L33.709 11.6016V11.4941L33.8164 11.4834L34.7188 11.4404H34.8262V11.5479L35.2881 21.3662L41.0459 14.7705L41.3682 9.12012L41.3789 9.0127L41.4864 9.02344L42.3887 9.07715L42.4961 9.08789L42.4854 9.19531L42.2491 13.417L50.0264 4.51172L50.1016 4.42578L50.1875 4.50098L50.8643 5.0918L50.9502 5.16699L50.875 5.25293L43.0977 14.1475L47.1797 13.417L47.2871 13.3955L47.3086 13.5029L47.4698 14.3945L47.4912 14.502L47.3838 14.5234L41.9268 15.4902L36.1905 22.0537L45.8262 21.1729L45.9336 21.1621L45.9444 21.2695L46.0303 22.1719L46.0411 22.2793L45.9336 22.29L35.127 23.2676L29.6377 29.5518L33.7735 28.8213L33.8809 28.7998L33.9024 28.9072L34.0635 29.7988L34.085 29.9062L33.9776 29.9277L28.4668 30.9053L23.3428 36.6309C23.7832 36.6523 24.4278 36.7275 25.2227 36.8027C27.0918 36.9961 29.6592 37.2432 31.7969 37.2432C33.709 37.2432 34.9336 37.0391 35.4278 36.6201C36.7705 35.5137 36.0079 33.8701 35.3418 33.0645L35.0948 32.7529L35.4707 32.8818C36.5879 33.2686 37.7266 33.5693 38.8868 33.7734C39.1661 33.8164 39.4346 33.8379 39.7139 33.8379C40.8418 33.8379 41.8623 33.4297 42.6036 32.71C43.3018 32.0332 43.6993 31.0986 43.71 30.1318C43.7315 28.4023 42.5176 27.1885 41.8516 26.9307C41.8516 26.9307 43.377 26.9521 44.7305 26.9521C45.4502 26.9521 46.17 26.9092 46.8789 26.834C49.1133 26.5977 52.3037 24.9648 53.7647 22.666Z" fill="#002438"/>
<path d="M27.1025 38.7363C26.0498 38.5859 24.1055 38.8223 22.2363 39.4238L21.3447 36.9209L19.3359 37.7051L20.3564 40.165C18.9707 40.7881 17.7031 41.5723 17.2197 42.3242L16.8438 45.5146L18.498 46.3096C18.498 46.3096 19.3145 44.7842 23.1924 43.377C27.1885 41.9268 28.9287 42.4961 28.9287 42.4961L29.3799 40.7773L27.1025 38.7363Z" fill="#002438"/>
</g>
<defs>
<clipPath id="clip0_3166_1213">
<rect width="55" height="55" fill="white"/>
</clipPath>
</defs>
</svg>
