<svg width="56" height="55" viewBox="0 0 56 55" fill="none" xmlns="http://www.w3.org/2000/svg">
<g clip-path="url(#clip0_3167_1214)">
<path d="M49.7984 13.4277L43.6034 19.6743L44.3691 22.3513L46.212 20.5423C46.2218 20.5329 46.235 20.5277 46.2487 20.5277C46.2624 20.5277 46.2755 20.5329 46.2853 20.5423L50.0237 24.2097C50.0332 24.2191 50.0385 24.2319 50.0385 24.2451C50.0385 24.2584 50.0332 24.2711 50.0237 24.2806L46.0392 28.195L47.0783 31.8474L48.7277 30.2221C48.7378 30.2129 48.751 30.2077 48.7648 30.2077C48.7786 30.2077 48.7919 30.2129 48.802 30.2221L52.5306 33.8798C52.54 33.8897 52.5452 33.9028 52.5452 33.9163C52.5452 33.9299 52.54 33.9429 52.5306 33.9528L48.7517 37.6847L52.3348 50.2283L50.4427 52.0814L37.0464 31.886L33.7039 28.6064C30.4062 31.7647 19.4173 40.4981 19.4173 40.4981L23.2378 52.5519L20.7452 55L14.2308 44.4104C11.6867 46.344 7.18484 47.9435 7.18484 47.9435C7.18484 47.9435 8.80687 43.5123 10.7778 41.0233L0 34.6231L2.49375 32.1739L14.7623 35.9337C14.7623 35.9337 23.6567 25.1475 26.8691 21.9033L23.5353 18.628L2.97281 5.45704L4.865 3.59864L17.6345 7.12207L21.4233 3.40098C21.4331 3.3916 21.4462 3.38635 21.4599 3.38635C21.4736 3.38635 21.4868 3.3916 21.4966 3.40098L25.2241 7.06514C25.2336 7.07477 25.239 7.08768 25.239 7.10113C25.239 7.11457 25.2336 7.12748 25.2241 7.13711L23.5834 8.76133L27.3022 9.78614L31.2812 5.87276C31.2911 5.86337 31.3042 5.85812 31.3179 5.85812C31.3316 5.85812 31.3447 5.86337 31.3545 5.87276L33.308 7.78594L35.093 9.53907C35.1025 9.54869 35.1079 9.56161 35.1079 9.57505C35.1079 9.5885 35.1025 9.60141 35.093 9.61104L34.0758 10.6101L33.25 11.4243L35.9691 12.1763L42.3281 6.0876C42.3281 6.0876 44.9302 3.4461 48.0802 1.69942C50.8594 0.161136 54.122 -0.592965 55.3656 0.555375L55.4356 0.623051C56.6048 1.84121 55.8316 5.0542 54.2664 7.7752C52.4869 10.8657 49.7984 13.4277 49.7984 13.4277Z" fill="#002438"/>
</g>
<defs>
<clipPath id="clip0_3167_1214">
<rect width="56" height="55" fill="white"/>
</clipPath>
</defs>
</svg>
