<svg width="54" height="55" viewBox="0 0 54 55" fill="none" xmlns="http://www.w3.org/2000/svg">
<path d="M51.2573 5.9835H52.6495L53.9985 7.86123V9.52842L51.5727 12.0947L52.0262 13.5245L52.7392 13.3376V13.7995L52.1517 14.0724L51.8353 13.7759L51.5189 13.9521L51.6054 14.3259C51.6054 14.3259 49.0425 15.702 49.2186 15.5591C49.747 15.3829 50.2874 15.2468 50.8355 15.152V15.6493L49.129 16.2541L49.669 16.8041L48.859 18.4981L47.9203 17.7612L48.7261 18.8591V19.7303L48.4097 20.8303L48.2156 20.6315L48.3211 19.8291L47.9646 19.2802L47.6482 19.4112L47.1947 18.1802V19.6422L48.8569 22.0731L47.7769 22.5351L48.9529 22.3922V23.2172L48.0469 23.4041V23.8553H48.8316L48.5573 24.4558L47.7906 24.401L44.1076 29.5809L45.9839 34.2988L46.5777 35.4977V37.1036L45.3511 37.8298L45.1243 36.8179H44.4546L42.7945 34.1216L42.9675 32.9238L41.1207 31.4607L39.7275 32.4179L38.5621 31.3189C37.3997 31.3544 36.2416 31.4782 35.0974 31.6896C35.0109 31.8657 34.6007 32.4705 34.6007 32.4705L34.9245 32.6467L35.7777 33.5157V34.1603H34.6988L33.9605 33.4083L33.4205 33.9583H32.7718V32.8583H31.8648L31.4598 33.2633H29.7417L26.083 37.023V38.2337H24.753L22.9506 36.3678L21.5363 32.8809L19.3119 33.7306L15.8673 29.5411H14.2484V30.1513H10.9324L7.56375 26.7986H4.65914V25.3903L1.86211 22.5318L0.00585938 14.602L1.14914 13.7007L1.22508 10.8852L2.83453 7.33272L2.76914 4.24326L4.92914 5.40771L4.65914 3.79639L28.4761 7.58623L28.552 6.6291L29.092 6.76123L29.362 7.79463L33.5386 8.47676L31.1128 10.2686L33.6072 10.2052L35.302 8.96338L34.762 9.93018L35.9064 10.4028L38.272 9.38125L38.8764 9.65518L38.6707 10.6123L37.9261 10.3975L35.437 11.4352L34.8327 12.953L35.9106 11.9239L35.437 14.5246L36.2449 16.8653L37.1309 14.6653L36.7849 12.5985L37.9303 11.158L39.5598 11.6414L39.1495 13.6985L40.1652 13.083L40.6293 14.7319L39.9595 16.1284L41.0364 16.614L44.0053 14.2056L43.5961 13.2484H45.485L46.3056 12.3579L45.773 11.6017L47.1124 10.1611L50.016 9.80879L50.556 8.98486L51.2573 5.9835Z" fill="#002438"/>
<path d="M4.78074 40.077C5.10453 40.0641 5.35871 40.0544 5.61289 40.0416C5.65332 40.0416 5.69262 40.028 5.72469 40.0029C5.93563 39.788 6.16555 39.8686 6.41867 39.9513L6.25098 40.2833C6.59059 40.5937 6.93441 40.6829 7.2002 40.5196C7.13797 40.3907 7.07258 40.2607 7.01141 40.1286C6.97977 40.0587 6.91648 39.9696 6.93652 39.9137C7.00719 39.7182 6.8859 39.657 6.76039 39.5775C6.7182 39.5517 6.66441 39.4776 6.67496 39.4443C6.76566 39.136 6.59375 38.9072 6.46402 38.6687C6.37332 38.5033 6.26574 38.3464 6.16344 38.181C6.29316 37.9844 6.45875 37.9361 6.69078 37.9962C7.05148 38.0918 7.31621 37.9683 7.52188 37.6493C7.68219 37.4011 7.86149 37.1949 8.19688 37.2647C8.23115 37.2677 8.2653 37.2577 8.29285 37.2368C8.57656 37.0166 8.90457 37.0284 9.24207 37.0133C9.38445 37.0069 9.51945 36.8597 9.68188 36.762C9.92234 36.8629 10.1776 37.0069 10.2092 37.3646C10.553 37.1927 10.5773 37.2303 10.7123 37.5257C10.7596 37.597 10.8221 37.6565 10.8952 37.6997C10.9682 37.7428 11.0499 37.7686 11.1342 37.775C11.4004 37.7845 11.6592 37.8673 11.883 38.0145C12.1773 38.1864 12.5295 38.2541 12.8575 38.3636C12.8741 38.3679 12.8912 38.3687 12.9081 38.3661C12.9249 38.3635 12.9411 38.3576 12.9556 38.3486C13.3627 38.079 13.5884 38.4872 13.8764 38.6214C13.927 38.644 13.9302 38.8073 13.9302 38.9061C13.9302 41.3861 13.9302 43.8665 13.9302 46.3472C13.9302 46.7769 14.0789 46.8704 14.4807 46.7103C14.5263 46.693 14.5727 46.6783 14.6199 46.6663L15.548 47.7727C15.6904 47.6975 15.8982 47.6653 15.9488 47.3763C15.9731 47.241 16.1819 47.1389 16.3116 47.0175L16.8569 47.7297C16.878 47.7566 16.8959 47.7985 16.9234 47.8071C17.2482 47.9145 17.3305 48.2271 17.495 48.4709C17.7186 48.805 17.9169 49.1606 18.1658 49.4732C18.2713 49.6053 18.4822 49.6794 18.6499 49.7278C19.1255 49.8621 19.3407 50.2649 19.1593 50.7354C19.1044 50.8543 19.0428 50.9697 18.9747 51.0813C18.7248 50.7 18.595 50.6 18.2059 50.4948C18.2412 50.6006 18.2711 50.7081 18.2955 50.817C18.3069 50.9003 18.3125 50.9843 18.3124 51.0684L17.939 51.1941C17.803 51.0501 17.6427 50.889 17.6827 50.6162C17.6922 50.5517 17.6089 50.4722 17.5667 50.4013C17.5254 50.3524 17.4922 50.2969 17.4686 50.237C17.4296 50.0565 17.3874 49.9738 17.186 50.1048C17.1227 50.1467 16.9096 50.064 16.8495 49.9781C16.5532 49.5484 16.1946 49.1316 16.0364 48.6493C15.9246 48.3087 15.6778 48.2196 15.4837 48.0305C15.2693 47.8237 15.0301 47.6454 14.7718 47.4999C14.5936 47.3978 14.4554 47.3323 14.5936 47.1131C14.5693 47.0906 14.5524 47.0691 14.545 47.0712C14.1907 47.198 13.8911 47.0444 13.5768 46.9026C13.4229 46.8338 13.2246 46.8747 13.0495 46.8338C12.8248 46.7801 12.6076 46.6953 12.3882 46.619C12.3502 46.6061 12.3207 46.547 12.2827 46.5459C11.9874 46.5288 11.9146 46.2828 11.8081 46.0744C11.7195 45.9014 11.5972 45.9014 11.4242 45.9358C10.9791 46.0228 11.0023 46.3504 11.0403 46.7049C10.8515 46.6716 10.6817 46.605 10.5214 46.6244C10.3922 46.6584 10.2783 46.7365 10.1987 46.8457C9.96453 47.1357 9.71246 47.2517 9.24945 47.1905C9.36547 47.111 9.42559 47.0691 9.4857 47.0293C9.56826 46.9814 9.63727 46.9126 9.68609 46.8295L9.39289 46.8102L9.66289 46.3719C9.70601 46.3189 9.74152 46.26 9.76836 46.1968C9.85485 45.8681 9.91074 45.8316 10.2693 45.8746C10.3266 45.8753 10.3838 45.868 10.4391 45.8531C10.3885 45.5308 10.2356 45.4792 9.88754 45.5888C9.52156 45.7048 9.30113 46.0185 9.13449 46.3494C9.02902 46.5642 8.92988 46.7125 8.68309 46.7361C8.46266 46.7576 8.33926 46.9015 8.30023 47.1357C8.34664 47.1593 8.38988 47.183 8.43524 47.2044C8.60926 47.2893 8.64617 47.4719 8.48375 47.5847C8.19899 47.7867 7.90367 47.9704 7.60941 48.1573C7.38518 48.3115 7.15241 48.4525 6.91227 48.5794C6.74984 48.6579 6.55684 48.6686 6.37859 48.7191C6.21723 48.7642 6.06219 48.8265 5.89977 48.8738C6.00523 49.196 5.94723 49.2626 5.64348 49.2175C5.41126 49.1683 5.16955 49.1997 4.95688 49.3067C4.74594 49.4206 4.48648 49.4829 4.25234 49.2573C4.10363 49.4184 3.94754 49.5645 3.71129 49.4721C3.47398 49.7246 3.19871 49.6322 2.92238 49.5667C2.87492 49.5548 2.81691 49.615 2.75785 49.6139C2.66375 49.5995 2.57098 49.5772 2.48047 49.5473C2.57466 49.4646 2.68473 49.4028 2.80367 49.3658C2.92261 49.3288 3.04781 49.3175 3.17129 49.3325C3.37652 49.3531 3.58337 49.3159 3.7693 49.225C4.0857 49.0306 4.38207 48.8233 4.77441 49.022C4.80605 49.0392 4.88937 48.9973 4.92207 48.9597C5.1868 48.6536 5.55488 48.675 5.93457 48.5999C5.94934 48.3775 6.10965 48.2636 6.3343 48.2035C6.4051 48.1784 6.46514 48.129 6.5041 48.0638C6.68023 47.763 6.84582 47.4558 7.01352 47.1507C7.03047 47.1057 7.04387 47.0594 7.05359 47.0122L6.5948 47.1121L6.38387 46.8542L6.17293 47.1561C5.99574 46.633 5.65508 46.4041 5.10348 46.6706C5.09071 46.5102 5.09353 46.349 5.11191 46.1893C5.12879 46.1044 5.23109 46.0389 5.31125 45.9455C5.30176 45.8853 5.28277 45.7843 5.27117 45.6823C5.25957 45.5802 5.25746 45.4846 5.25324 45.4148H4.48648C4.39789 45.1881 4.31035 44.9851 4.24285 44.7767C4.236 44.7421 4.23592 44.7064 4.24261 44.6718C4.24931 44.6371 4.26265 44.6042 4.28187 44.5748C4.43691 44.3406 4.43902 44.2987 4.25867 44.1171C4.1532 44.0151 4.21016 43.5553 4.33988 43.4382C4.60461 43.1987 4.86723 42.9527 5.13934 42.725C5.26379 42.6175 5.41145 42.48 5.52219 42.7765C5.60234 42.9914 5.7848 42.8839 5.9082 42.812C6.0316 42.74 6.11914 42.6917 6.27629 42.755C6.32479 42.7716 6.37611 42.778 6.4271 42.7737C6.47809 42.7693 6.52768 42.7545 6.57282 42.7299C6.61795 42.7054 6.65769 42.6717 6.68958 42.6309C6.72147 42.5902 6.74485 42.5432 6.75828 42.4929C6.83 42.2781 6.89539 42.0503 6.95867 41.8269C7.00297 41.669 6.88801 41.5863 6.78149 41.6239C6.41867 41.7539 6.09805 41.6593 5.76898 41.5165C5.59707 41.4413 5.39879 41.4284 5.22793 41.351C5.05707 41.2737 5.00117 41.1093 5.06551 40.9138C5.12984 40.7183 5.1984 40.497 4.93367 40.3606C4.87883 40.3251 4.85984 40.2263 4.78074 40.077Z" fill="#002438"/>
<path d="M30.4004 50.6558C30.2514 50.5635 30.098 50.4789 29.9406 50.4023C29.8745 50.3804 29.8173 50.337 29.7779 50.2788C29.7384 50.2206 29.7189 50.1507 29.7223 50.08C29.7194 49.9859 29.7251 49.8917 29.7391 49.7986C29.7994 49.5207 29.749 49.2297 29.5989 48.9897C29.5868 48.9609 29.5773 48.931 29.5704 48.9005C29.5205 48.7732 29.4624 48.6494 29.3964 48.5299C29.2593 48.3151 29.3204 48.1002 29.5556 47.9767C29.6153 47.9366 29.6671 47.8856 29.7085 47.8263C29.7404 47.7728 29.7756 47.7215 29.814 47.6727C29.9395 47.5578 29.9195 47.4579 29.8404 47.3139C29.7769 47.1911 29.7362 47.0575 29.7202 46.9197C29.7043 46.8058 29.7813 46.7392 29.8952 46.7704C29.9843 46.7882 30.0687 46.8248 30.1431 46.8778C30.3072 47.0194 30.5021 47.1192 30.7116 47.1689C31.1623 47.2859 31.5705 47.5323 31.8875 47.879C31.9147 47.9151 31.9298 47.9591 31.9308 48.0046C31.9382 48.0874 31.9308 48.1711 31.9308 48.2732C31.9821 48.2644 32.0345 48.2644 32.0858 48.2732C32.1364 48.2947 32.2092 48.3366 32.2166 48.3806C32.2556 48.6105 32.4159 48.7276 32.5963 48.8221C32.6944 48.8748 32.7165 48.9295 32.6427 49.0144C32.3421 49.3721 31.9814 49.6192 31.5036 49.6503C31.3781 49.6579 30.7232 50.1144 30.7042 50.2207C30.6683 50.4367 30.5217 50.5516 30.4004 50.6558Z" fill="#002438"/>
<path d="M28.549 45.8305C28.2557 45.8305 28.2252 45.8047 28.2167 45.5963C28.2141 45.5389 28.2067 45.4817 28.1946 45.4255C28.1693 45.3074 28.1461 45.2053 27.9741 45.2547C27.8444 45.2923 27.6293 45.1237 27.566 44.9711C27.5454 44.9062 27.5444 44.8364 27.5632 44.7709C27.582 44.7054 27.6197 44.6472 27.6715 44.6037C27.6867 44.586 27.7055 44.5717 27.7266 44.5619C27.7477 44.5522 27.7706 44.5471 27.7938 44.5471C27.817 44.5471 27.8399 44.5522 27.861 44.5619C27.8821 44.5717 27.9009 44.586 27.9161 44.6037C27.9309 44.6188 27.9509 44.6306 27.9583 44.6489C28.0638 44.9131 28.241 44.926 28.472 44.81C28.608 44.7412 28.7335 44.8046 28.8538 44.8959C28.974 44.9872 29.1406 45.0657 29.2756 45.158C29.3452 45.2053 29.4602 45.2869 29.4518 45.3331C29.4338 45.4352 29.3684 45.577 29.2872 45.6081C29.045 45.6948 28.7986 45.769 28.549 45.8305Z" fill="#002438"/>
<path d="M24.6164 43.405L24.705 43.3201C24.7863 43.4802 24.8601 43.6273 24.9455 43.7949C24.9149 43.84 24.858 43.8519 24.762 43.8669C24.686 43.8834 24.6072 43.8815 24.532 43.8611C24.4569 43.8408 24.3875 43.8026 24.3296 43.7498C24.2726 43.7025 24.1482 43.7326 24.0543 43.7401C23.9604 43.7477 23.8539 43.7702 23.7664 43.7853C23.6799 43.6424 23.5997 43.5167 23.527 43.3878C23.4542 43.2589 23.3888 43.1235 23.3213 42.9936C23.3329 42.9828 23.3403 42.9699 23.3466 42.971C23.4552 42.9936 23.568 42.9815 23.6696 42.9363C23.7711 42.8911 23.8565 42.815 23.914 42.7186C24.0501 42.5187 24.1534 42.5531 24.2547 42.7733C24.2969 42.8657 24.3602 42.9484 24.4129 43.0376C24.435 43.0763 24.4698 43.1214 24.4656 43.159C24.4584 43.2115 24.4695 43.2649 24.4971 43.3099C24.5247 43.3549 24.5669 43.3886 24.6164 43.405Z" fill="#002438"/>
<path d="M20.0389 42.0901C19.9503 42.0536 19.7953 41.9934 19.6424 41.9257C19.5685 41.8935 19.501 41.843 19.4314 41.8044C19.2616 41.7141 19.25 41.6035 19.3481 41.438C19.4543 41.2755 19.6122 41.1553 19.7953 41.0975C19.9742 41.045 20.1624 41.0344 20.3459 41.0664C20.5325 41.0879 20.6137 41.3005 20.5431 41.4821C20.5168 41.5607 20.4995 41.6422 20.4914 41.7249C20.4669 41.8285 20.409 41.9207 20.327 41.9869C20.245 42.0531 20.1436 42.0895 20.0389 42.0901Z" fill="#002438"/>
<path d="M25.8887 44.3567L26.0711 44.0098C26.3011 44.0216 26.5457 44.1763 26.8094 44.0581C26.994 44.2837 27.2693 44.0452 27.4812 44.173C27.444 44.276 27.3723 44.3623 27.2787 44.4168C27.1852 44.4712 27.0757 44.4903 26.9697 44.4706C26.6807 44.3943 26.3949 44.3213 26.0933 44.3847C26.0241 44.385 25.9553 44.3756 25.8887 44.3567Z" fill="#002438"/>
<path d="M26.9363 45.4793C26.8572 45.3869 26.8024 45.3332 26.7602 45.2709C26.7122 45.1964 26.6689 45.1189 26.6304 45.0389C26.6104 45.0002 26.5798 44.9486 26.5914 44.9175C26.6036 44.9002 26.6194 44.8857 26.6376 44.8751C26.6558 44.8646 26.676 44.8581 26.6969 44.8563C26.7703 44.8392 26.8469 44.8424 26.9187 44.8656C26.9904 44.8889 27.0548 44.9313 27.1051 44.9884C27.1599 45.0571 27.2358 45.1774 27.2105 45.229C27.1673 45.3203 27.0544 45.3783 26.9363 45.4793Z" fill="#002438"/>
<path d="M18.1182 42.3243C18.0127 42.1997 18.0127 42.0955 18.1182 41.9934C18.2143 41.9019 18.315 41.8155 18.4198 41.7345C18.443 41.7163 18.4841 41.7238 18.5179 41.7195C18.5325 41.7914 18.5233 41.8662 18.4918 41.9322C18.4604 41.9983 18.4083 42.0519 18.3439 42.0847C18.2532 42.1341 18.193 42.2459 18.1182 42.3243Z" fill="#002438"/>
<path d="M27.5439 45.9831C27.6409 45.9224 27.7409 45.8668 27.8435 45.8166C27.872 45.8037 27.9489 45.837 27.9563 45.8596C27.9669 45.9144 27.9563 46.0228 27.9363 46.0261C27.8115 46.0439 27.6858 46.0546 27.5598 46.0583L27.5439 45.9831Z" fill="#002438"/>
</svg>
