<svg width="56" height="55" viewBox="0 0 56 55" fill="none" xmlns="http://www.w3.org/2000/svg">
<g clip-path="url(#clip0_3167_1216)">
<path d="M33.5011 8.712C28.5683 10.9893 26.2933 14.9317 27.6824 17.8429C28.5245 19.6046 30.5152 20.5929 33.0527 20.5929C34.7152 20.5929 36.6074 20.1739 38.5542 19.2716C43.487 16.9942 47.3152 8.77646 47.3152 8.77646C47.3152 8.77646 43.3011 7.72372 39.1667 7.72372C37.1652 7.71298 35.1199 7.96005 33.5011 8.712Z" fill="#002438"/>
<path d="M26.9498 22.7949C26.6107 19.8301 24.8498 15.2969 19.7857 14.5449V14.5664C19.7419 14.5557 19.6982 14.5449 19.6544 14.5449L19.2716 17.0586C21.306 17.3594 22.7607 18.5518 23.6029 20.6035C23.8763 21.291 24.0732 22 24.1826 22.7197C0.907573 14.5449 5.85132 60.4355 25.6591 54.4629C45.8388 60.1348 50.4435 14.2764 26.9498 22.7949Z" fill="#002438"/>
<path d="M32.9875 7.63769C34.5844 6.89648 36.6625 6.53125 39.1672 6.53125C39.2766 6.53125 39.3859 6.53125 39.4953 6.53125C39.1453 4.30762 38.5766 2.12695 37.8219 0C37.8219 0 29.8594 4.51172 28.0109 9.5498C27.6828 10.4307 27.4422 11.3437 27.2891 12.2676C28.4812 10.4307 30.5047 8.78711 32.9875 7.63769Z" fill="#002438"/>
</g>
<defs>
<clipPath id="clip0_3167_1216">
<rect width="56" height="55" fill="white"/>
</clipPath>
</defs>
</svg>
