<svg width="49" height="50" viewBox="0 0 49 50" fill="none" xmlns="http://www.w3.org/2000/svg">
<g clip-path="url(#clip0_3167_1219)">
<path d="M31.0076 0.000101138H8.64271C8.33234 -0.00690123 8.02366 0.0485473 7.73429 0.163281C7.44493 0.278014 7.18054 0.449785 6.95624 0.668785C6.73193 0.887785 6.55209 1.14973 6.427 1.43965C6.3019 1.72957 6.234 2.0418 6.22716 2.3585V47.5343C6.22017 47.8511 6.27442 48.1662 6.3868 48.4615C6.49918 48.7569 6.66749 49.0268 6.88213 49.2558C7.09676 49.4848 7.3535 49.6684 7.63769 49.7961C7.92188 49.9238 8.22794 49.9931 8.53839 50.0001H30.8994C31.2098 50.0074 31.5185 49.9521 31.8079 49.8376C32.0973 49.723 32.3618 49.5513 32.5861 49.3324C32.8105 49.1134 32.9903 48.8515 33.1154 48.5616C33.2404 48.2716 33.3083 47.9594 33.315 47.6427C33.315 47.6065 33.315 47.5714 33.315 47.5353V2.46592C33.3291 1.82681 33.094 1.20811 32.6614 0.745755C32.2287 0.2834 31.6339 0.0152088 31.0076 0.000101138ZM20.0295 47.5343C19.7222 47.5343 19.4219 47.4413 19.1664 47.2671C18.911 47.0929 18.7119 46.8453 18.5943 46.5556C18.4768 46.266 18.4461 45.9472 18.5061 45.6398C18.5661 45.3323 18.7142 45.0499 18.9315 44.8282C19.1488 44.6066 19.4257 44.4557 19.727 44.3947C20.0284 44.3337 20.3407 44.3652 20.6245 44.4853C20.9083 44.6054 21.1509 44.8087 21.3214 45.0695C21.492 45.3303 21.5829 45.6368 21.5827 45.9503C21.5827 46.1584 21.5425 46.3644 21.4645 46.5567C21.3864 46.7489 21.272 46.9236 21.1277 47.0707C20.9835 47.2178 20.8122 47.3344 20.6238 47.414C20.4354 47.4935 20.2334 47.5344 20.0295 47.5343ZM30.5568 41.9015H9.33273V4.57823H30.5539L30.5568 41.9015Z" fill="#002438"/>
<path d="M13.1533 11.8643H12.3877V7.79297H16.6695V8.57422H13.1533V11.8643Z" fill="#002438"/>
<path d="M27.7993 11.8643H27.0337V8.57422H23.5176V7.79297H27.7993V11.8643Z" fill="#002438"/>
<path d="M16.6695 38.918H12.3877V34.8467H13.1533V38.1367H16.6695V38.918Z" fill="#002438"/>
<path d="M27.7993 38.918H23.5176V38.1367H27.0337V34.8467H27.7993V38.918Z" fill="#002438"/>
<path d="M29.7256 12.8633L21.2588 15.8799L29.7256 19.1191V12.8633Z" fill="#002438"/>
<path d="M34.1748 20.3271V34.1934L42.7728 30.5137V17L34.1748 20.3271Z" fill="#002438"/>
<path d="M29.7258 20.2363L21.3604 17V30.5137L29.7258 34.0938V20.2363Z" fill="#002438"/>
<path d="M34.1748 19.2139L42.5976 15.9844L34.1748 12.9883V19.2139Z" fill="#002438"/>
</g>
<defs>
<clipPath id="clip0_3167_1219">
<rect width="49" height="50" fill="white"/>
</clipPath>
</defs>
</svg>
