<svg width="50" height="50" viewBox="0 0 50 50" fill="none" xmlns="http://www.w3.org/2000/svg">
<g clip-path="url(#clip0_3167_1220)">
<path d="M43.6602 0L36.8486 0.470703L0.470703 36.8486L0 43.6602L6.33984 50L13.1514 49.5293L49.5293 13.1514L50 6.33984L43.6602 0ZM32.3115 10.1748C32.4363 10.0502 32.5951 9.96542 32.7681 9.93111C32.941 9.8968 33.1202 9.91452 33.283 9.98204C33.4459 10.0496 33.5851 10.1638 33.683 10.3104C33.7809 10.457 33.8332 10.6294 33.8332 10.8057C33.8332 10.982 33.7809 11.1543 33.683 11.3009C33.5851 11.4475 33.4459 11.5618 33.283 11.6293C33.1202 11.6968 32.941 11.7145 32.7681 11.6802C32.5951 11.6459 32.4363 11.5611 32.3115 11.4365C32.2285 11.3538 32.1626 11.2555 32.1177 11.1472C32.0727 11.0389 32.0496 10.9229 32.0496 10.8057C32.0496 10.6884 32.0727 10.5724 32.1177 10.4641C32.1626 10.3559 32.2285 10.2575 32.3115 10.1748ZM7.72949 37.2793C7.6047 37.4042 7.44565 37.4893 7.27249 37.5238C7.09932 37.5583 6.91981 37.5407 6.75667 37.4732C6.59352 37.4056 6.45407 37.2912 6.35596 37.1444C6.25785 36.9976 6.20548 36.825 6.20548 36.6484C6.20548 36.4719 6.25785 36.2993 6.35596 36.1525C6.45407 36.0057 6.59352 35.8913 6.75667 35.8237C6.91981 35.7562 7.09932 35.7386 7.27249 35.7731C7.44565 35.8076 7.6047 35.8927 7.72949 36.0176C7.81241 36.1004 7.87818 36.1987 7.92306 36.307C7.96794 36.4152 7.99104 36.5313 7.99104 36.6484C7.99104 36.7656 7.96794 36.8817 7.92306 36.9899C7.87818 37.0981 7.81241 37.1965 7.72949 37.2793ZM10.8545 40.4043C10.7297 40.5292 10.5707 40.6143 10.3975 40.6488C10.2243 40.6833 10.0448 40.6657 9.88167 40.5982C9.71852 40.5306 9.57907 40.4162 9.48096 40.2694C9.38285 40.1226 9.33048 39.95 9.33048 39.7734C9.33048 39.5969 9.38285 39.4243 9.48096 39.2775C9.57907 39.1307 9.71852 39.0163 9.88167 38.9487C10.0448 38.8812 10.2243 38.8636 10.3975 38.8981C10.5707 38.9326 10.7297 39.0177 10.8545 39.1426C10.9377 39.2253 11.0037 39.3236 11.0489 39.4318C11.094 39.5401 11.1173 39.6562 11.1175 39.7735C11.1177 39.8908 11.0947 40.007 11.0499 40.1154C11.0051 40.2238 10.9394 40.3223 10.8564 40.4053L10.8545 40.4043ZM11.1689 33.8369C11.0441 33.9618 10.8851 34.0469 10.7119 34.0814C10.5388 34.1159 10.3593 34.0983 10.1961 34.0308C10.033 33.9632 9.89353 33.8488 9.79541 33.702C9.6973 33.5552 9.64493 33.3826 9.64493 33.2061C9.64493 33.0295 9.6973 32.8569 9.79541 32.7101C9.89353 32.5633 10.033 32.4489 10.1961 32.3813C10.3593 32.3138 10.5388 32.2962 10.7119 32.3307C10.8851 32.3652 11.0441 32.4503 11.1689 32.5752C11.2521 32.6579 11.3182 32.7562 11.3633 32.8645C11.4085 32.9727 11.4318 33.0888 11.432 33.2061C11.4321 33.3234 11.4092 33.4396 11.3644 33.548C11.3196 33.6564 11.2538 33.7549 11.1709 33.8379L11.1689 33.8369ZM13.9805 43.5312C13.8557 43.6562 13.6966 43.7413 13.5235 43.7758C13.3503 43.8103 13.1708 43.7926 13.0076 43.7251C12.8445 43.6576 12.7051 43.5432 12.6069 43.3964C12.5088 43.2496 12.4565 43.077 12.4565 42.9004C12.4565 42.7238 12.5088 42.5512 12.6069 42.4044C12.7051 42.2576 12.8445 42.1432 13.0076 42.0757C13.1708 42.0081 13.3503 41.9905 13.5235 42.025C13.6966 42.0595 13.8557 42.1446 13.9805 42.2695C14.148 42.4368 14.2423 42.6637 14.2427 42.9005C14.243 43.1372 14.1494 43.3644 13.9824 43.5322L13.9805 43.5312ZM14.2959 36.9629C14.1711 37.0878 14.0121 37.1729 13.8389 37.2074C13.6657 37.2419 13.4862 37.2243 13.3231 37.1567C13.1599 37.0892 13.0205 36.9748 12.9224 36.828C12.8243 36.6812 12.7719 36.5086 12.7719 36.332C12.7719 36.1555 12.8243 35.9829 12.9224 35.8361C13.0205 35.6893 13.1599 35.5749 13.3231 35.5073C13.4862 35.4398 13.6657 35.4222 13.8389 35.4567C14.0121 35.4912 14.1711 35.5763 14.2959 35.7012C14.3791 35.7839 14.4451 35.8822 14.4903 35.9904C14.5354 36.0987 14.5587 36.2148 14.5589 36.3321C14.5591 36.4494 14.5361 36.5656 14.4913 36.674C14.4465 36.7824 14.3808 36.8809 14.2979 36.9639L14.2959 36.9629ZM17.4209 40.0879C17.2961 40.2128 17.1371 40.2979 16.9639 40.3324C16.7907 40.3669 16.6112 40.3493 16.4481 40.2817C16.2849 40.2142 16.1455 40.0998 16.0474 39.953C15.9493 39.8062 15.8969 39.6336 15.8969 39.457C15.8969 39.2805 15.9493 39.1079 16.0474 38.9611C16.1455 38.8143 16.2849 38.6999 16.4481 38.6323C16.6112 38.5648 16.7907 38.5472 16.9639 38.5817C17.1371 38.6162 17.2961 38.7013 17.4209 38.8262C17.5042 38.909 17.5704 39.0074 17.6156 39.1158C17.6609 39.2242 17.6843 39.3404 17.6846 39.4579C17.6848 39.5753 17.6619 39.6917 17.6172 39.8003C17.5725 39.9089 17.5068 40.0076 17.4238 40.0908L17.4209 40.0879ZM22.7979 36.249L13.7451 27.1963L27.1992 13.748L36.252 22.8008L22.7979 36.249ZM36.6992 14.5625C36.5744 14.6874 36.4154 14.7725 36.2422 14.807C36.069 14.8415 35.8895 14.8239 35.7264 14.7564C35.5633 14.6888 35.4238 14.5744 35.3257 14.4276C35.2276 14.2808 35.1752 14.1082 35.1752 13.9316C35.1752 13.7551 35.2276 13.5825 35.3257 13.4357C35.4238 13.2889 35.5633 13.1745 35.7264 13.1069C35.8895 13.0394 36.069 13.0218 36.2422 13.0563C36.4154 13.0908 36.5744 13.1759 36.6992 13.3008C36.7821 13.3836 36.8479 13.4819 36.8928 13.5902C36.9377 13.6984 36.9608 13.8145 36.9608 13.9316C36.9608 14.0488 36.9377 14.1649 36.8928 14.2731C36.8479 14.3814 36.7821 14.4797 36.6992 14.5625ZM37.0117 7.99512C36.8873 8.12039 36.7284 8.20588 36.5553 8.24075C36.3822 8.27561 36.2026 8.2583 36.0394 8.19098C35.8761 8.12367 35.7365 8.00939 35.6383 7.86264C35.5401 7.7159 35.4876 7.54329 35.4876 7.3667C35.4876 7.19011 35.5401 7.0175 35.6383 6.87075C35.7365 6.72401 35.8761 6.60973 36.0394 6.54242C36.2026 6.4751 36.3822 6.45778 36.5553 6.49265C36.7284 6.52752 36.8873 6.61301 37.0117 6.73828C37.1779 6.90519 37.2712 7.13115 37.2712 7.3667C37.2712 7.60225 37.1779 7.8282 37.0117 7.99512ZM39.8232 17.6885C39.6986 17.8132 39.5397 17.8981 39.3667 17.9326C39.1938 17.967 39.0145 17.9493 38.8516 17.8819C38.6886 17.8144 38.5494 17.7001 38.4514 17.5535C38.3534 17.4069 38.3011 17.2345 38.3011 17.0581C38.3011 16.8818 38.3534 16.7094 38.4514 16.5627C38.5494 16.4161 38.6886 16.3018 38.8516 16.2344C39.0145 16.1669 39.1938 16.1492 39.3667 16.1837C39.5397 16.2181 39.6986 16.303 39.8232 16.4277C39.9907 16.5947 40.0849 16.8213 40.0853 17.0577C40.0856 17.2941 39.9921 17.521 39.8252 17.6885H39.8232ZM40.1367 11.1211C40.0121 11.2466 39.8531 11.3322 39.6798 11.3671C39.5065 11.4021 39.3267 11.3848 39.1632 11.3174C38.9998 11.2501 38.86 11.1357 38.7616 10.9887C38.6633 10.8418 38.6108 10.669 38.6108 10.4922C38.6108 10.3154 38.6633 10.1426 38.7616 9.99564C38.86 9.84872 38.9998 9.73432 39.1632 9.66695C39.3267 9.59958 39.5065 9.58227 39.6798 9.61723C39.8531 9.65218 40.0121 9.73782 40.1367 9.86328C40.303 10.0304 40.3963 10.2565 40.3963 10.4922C40.3963 10.7279 40.303 10.954 40.1367 11.1211ZM43.2617 14.2461C43.137 14.3708 42.9782 14.4558 42.8052 14.4902C42.6322 14.5246 42.453 14.507 42.29 14.4395C42.1271 14.372 41.9878 14.2577 41.8899 14.1111C41.7919 13.9645 41.7396 13.7921 41.7396 13.6157C41.7396 13.4394 41.7919 13.267 41.8899 13.1203C41.9878 12.9737 42.1271 12.8594 42.29 12.792C42.453 12.7245 42.6322 12.7068 42.8052 12.7413C42.9782 12.7757 43.137 12.8606 43.2617 12.9854C43.345 13.0678 43.4111 13.1659 43.4564 13.274C43.5017 13.3821 43.5253 13.498 43.5257 13.6152C43.5262 13.7324 43.5035 13.8485 43.4591 13.9569C43.4146 14.0653 43.3492 14.1639 43.2666 14.2471L43.2617 14.2461Z" fill="#002438"/>
</g>
<defs>
<clipPath id="clip0_3167_1220">
<rect width="50" height="50" fill="white"/>
</clipPath>
</defs>
</svg>
