<svg width="49" height="50" viewBox="0 0 49 50" fill="none" xmlns="http://www.w3.org/2000/svg">
<g clip-path="url(#clip0_3167_1221)">
<path d="M40.8651 6.7998C40.6927 7.03139 40.5905 7.30944 40.5713 7.59961C40.5713 8.2002 40.9627 8.5 41.4527 8.7998V6.5C41.3401 6.5073 41.2301 6.5376 41.1291 6.5891C41.0282 6.6406 40.9384 6.71225 40.8651 6.7998Z" fill="#002438"/>
<path d="M42.4336 10.7998V13.2002C42.7001 13.147 42.9378 12.9948 43.1008 12.7731C43.2638 12.5515 43.3404 12.276 43.316 12C43.3242 11.7275 43.2414 11.4601 43.081 11.242C42.9207 11.0239 42.6923 10.868 42.4336 10.7998Z" fill="#002438"/>
<path d="M14.21 20.9004H0V50H14.21V20.9004Z" fill="#002438"/>
<path d="M31.6534 10.5H17.4434V50H31.6534V10.5Z" fill="#002438"/>
<path d="M34.79 0V50H49V0H34.79ZM45.0762 11.7998C45.0727 12.4674 44.8097 13.1064 44.345 13.5763C43.8803 14.0463 43.2518 14.309 42.5975 14.3066C42.543 14.3066 42.4884 14.3066 42.4339 14.2998V15.2998H41.5524V14.2002C41.299 14.1603 41.0591 14.0572 40.8539 13.9002C40.6488 13.7431 40.4847 13.5369 40.3762 13.2998V14.0996H39.1024V11.0996H40.4738C40.4738 12 40.7677 12.9004 41.65 13.0996V10.4004L41.0624 10.2051C39.9838 9.80469 39.1024 9.20508 39.1024 7.90527C39.0864 7.5914 39.1313 7.27738 39.2343 6.9812C39.3374 6.68502 39.4967 6.41248 39.7031 6.17919C39.9095 5.9459 40.159 5.75642 40.4372 5.62161C40.7155 5.48681 41.017 5.40931 41.3246 5.39355C41.4331 5.38753 41.5419 5.38982 41.65 5.40039V4.29688H42.5324V5.5C42.9745 5.62501 43.3573 5.90912 43.61 6.2998V5.5H44.8848V8.30078H43.5124C43.4167 7.30078 43.12 6.60059 42.5324 6.50098V9.09961L43.0224 9.29492C43.6112 9.45494 44.1505 9.76473 44.59 10.1953C44.9535 10.6436 45.1283 11.2204 45.0762 11.7998Z" fill="#002438"/>
</g>
<defs>
<clipPath id="clip0_3167_1221">
<rect width="49" height="50" fill="white"/>
</clipPath>
</defs>
</svg>
