<svg width="50" height="50" viewBox="0 0 50 50" fill="none" xmlns="http://www.w3.org/2000/svg">
<path d="M12.6738 33.6759L17.0898 21.8907V11.3936H17.0518C16.8562 9.27455 15.8761 7.30494 14.3036 5.87097C12.7312 4.437 10.6799 3.64209 8.55176 3.64209C6.42366 3.64209 4.3723 4.437 2.79988 5.87097C1.22745 7.30494 0.247357 9.27455 0.0517578 11.3936H0V46.3604H15.1045V35.6974H11.9141L12.6738 33.6759Z" fill="#002438"/>
<path d="M45.3203 22.416L31.7568 16.8027L18.4639 22.416L14.0439 34.2002H16.5742V46.2666H26.4199V35.2168H37.4697V46.2666H47.1934V34.2002H50L45.3203 22.416ZM34.375 29.1504H29.3203V24.0957H34.375V29.1504Z" fill="#002438"/>
</svg>
