<svg width="51" height="50" viewBox="0 0 51 50" fill="none" xmlns="http://www.w3.org/2000/svg">
<path d="M29.2852 31.8916V24.3047H21.7148V31.8916H29.2852ZM24.9023 27.6465V25.9355H26.0977V27.6465H27.8428V28.8184H24.9023V27.6465Z" fill="#002438"/>
<path d="M20.5193 33.0664H12.0993L11.8145 50H20.5193V33.0664Z" fill="#002438"/>
<path d="M29.2821 33.0664H26.0986V50H29.2821V33.0664Z" fill="#002438"/>
<path d="M30.4805 31.8916H38.8815L38.754 24.3047H30.4805V31.8916Z" fill="#002438"/>
<path d="M20.5192 24.3047H12.2457L12.1182 31.8916H20.5192V24.3047Z" fill="#002438"/>
<path d="M38.9004 33.0664H30.4805V50H39.1853L38.9004 33.0664Z" fill="#002438"/>
<path d="M24.9013 33.0664H21.7178V50H24.9013V33.0664Z" fill="#002438"/>
<path d="M38.3493 0H33.6677V4.7334C33.6677 4.7334 30.791 0.851563 25.4748 0.851563C20.1587 0.851563 17.3168 4.7334 17.3168 4.7334V0H12.6551L12.2656 23.1299H38.7338L38.3493 0ZM21.4516 19.9785H18.2173V8.45508H21.4516V19.9785ZM27.1174 19.9785H23.8821V7.2832C23.8821 7.2832 24.152 6.05957 25.4997 6.05957C26.8474 6.05957 27.1174 7.27832 27.1174 7.27832V19.9785ZM32.7822 19.9785H29.5479V8.45508H32.7822V19.9785Z" fill="#002438"/>
</svg>
