<svg width="49" height="48" viewBox="0 0 49 48" fill="none" xmlns="http://www.w3.org/2000/svg">
<path d="M16.8438 41.9998C18.5351 41.9998 19.9062 40.6566 19.9062 38.9998C19.9062 37.3429 18.5351 35.9998 16.8438 35.9998C15.1524 35.9998 13.7812 37.3429 13.7812 38.9998C13.7812 40.6566 15.1524 41.9998 16.8438 41.9998Z" fill="#002438"/>
<path d="M38.2812 41.9998C39.9726 41.9998 41.3438 40.6566 41.3438 38.9998C41.3438 37.3429 39.9726 35.9998 38.2812 35.9998C36.5899 35.9998 35.2188 37.3429 35.2188 38.9998C35.2188 40.6566 36.5899 41.9998 38.2812 41.9998Z" fill="#002438"/>
<path d="M43.7172 11.3236C43.502 11.0658 43.231 10.8582 42.9238 10.7159C42.6166 10.5735 42.2808 10.4999 41.9409 10.5005H12.8137L12.227 7.23986C12.1645 6.89255 11.979 6.57793 11.7032 6.35127C11.4273 6.12461 11.0788 6.00041 10.7187 6.00049H4.59375C4.18764 6.00049 3.79816 6.15852 3.51099 6.43983C3.22383 6.72113 3.0625 7.10266 3.0625 7.50049C3.0625 7.89831 3.22383 8.27984 3.51099 8.56115C3.79816 8.84245 4.18764 9.00049 4.59375 9.00049H9.43441L13.8042 33.2611C13.8668 33.6084 14.0523 33.923 14.3281 34.1497C14.6039 34.3764 14.9525 34.5006 15.3125 34.5005H39.8125C40.2186 34.5005 40.6081 34.3424 40.8952 34.0611C41.1824 33.7798 41.3437 33.3983 41.3437 33.0005C41.3437 32.6027 41.1824 32.2211 40.8952 31.9398C40.6081 31.6585 40.2186 31.5005 39.8125 31.5005H16.5968L16.0571 28.5005H39.1847C39.7157 28.4998 40.2302 28.3195 40.6411 27.9899C41.052 27.6604 41.334 27.2019 41.4394 26.692L44.1957 13.192C44.2621 12.8653 44.2536 12.5282 44.1709 12.2051C44.0881 11.882 43.9332 11.5809 43.7172 11.3236Z" fill="#002438"/>
</svg>
