<svg width="49" height="50" viewBox="0 0 49 50" fill="none" xmlns="http://www.w3.org/2000/svg">
<g clip-path="url(#clip0_3167_1224)">
<path d="M20.1671 36.9102H14.2383V50H20.1671V36.9102Z" fill="#002438"/>
<path d="M41.6007 41.4404H41.0906V34H41.1394C41.4156 33.9836 41.6744 33.8569 41.8598 33.6472C42.0452 33.4376 42.1422 33.162 42.1299 32.8799V1.25977C42.1201 0.947091 42.0011 0.648287 41.7944 0.417279C41.5877 0.186271 41.3068 0.0382749 41.0025 0L13.7817 0C9.99951 0 6.84322 1.5625 6.44223 5.70996V37.207C6.41952 37.6759 6.44164 38.1459 6.50826 38.6103C6.59546 39.0483 6.72365 39.4767 6.89107 39.8896L7.00879 40.1504C7.28942 40.7502 7.66698 41.2976 8.12564 41.7695C8.57342 42.2433 9.09708 42.6356 9.67412 42.9297C10.2664 43.2383 10.9059 43.4414 11.5652 43.5303C11.8167 43.5449 12.0688 43.5449 12.3203 43.5303H12.3691V41.6201H12.3203C11.7913 41.6406 11.2634 41.5546 10.767 41.367C10.2705 41.1794 9.81511 40.8938 9.4268 40.5266C9.03849 40.1593 8.72486 39.7177 8.50382 39.2268C8.28279 38.7359 8.15867 38.2054 8.13856 37.6655C8.11846 37.1257 8.20275 36.5871 8.38663 36.0805C8.57051 35.5739 8.85037 35.1092 9.21025 34.713C9.57012 34.3167 10.003 33.9967 10.484 33.7711C10.9651 33.5456 11.485 33.419 12.0141 33.3984H37.7582L37.9142 41.5684H22.0495V43.4482H41.5902C41.7189 43.4482 41.8463 43.4224 41.9652 43.3721C42.0841 43.3219 42.1921 43.2482 42.2831 43.1553C42.3741 43.0625 42.4463 42.9522 42.4956 42.8309C42.5448 42.7096 42.5702 42.5796 42.5702 42.4482C42.5725 42.1834 42.4716 41.9286 42.2898 41.7396C42.1081 41.5506 41.8602 41.443 41.6007 41.4404Z" fill="#002438"/>
</g>
<defs>
<clipPath id="clip0_3167_1224">
<rect width="49" height="50" fill="white"/>
</clipPath>
</defs>
</svg>
