<svg width="48" height="50" viewBox="0 0 48 50" fill="none" xmlns="http://www.w3.org/2000/svg">
<g clip-path="url(#clip0_3167_1225)">
<path d="M15.0956 41.4082H13.3209H9.25215H7.4784L4.45215 49.9482H9.25215H13.3209H18.1209L15.0956 41.4082Z" fill="#002438"/>
<path d="M40.6249 41.4082H38.8511H34.7814H33.0077L29.9814 49.9482H34.7814H38.8511H43.6511L40.6249 41.4082Z" fill="#002438"/>
<path d="M48.0252 19.8242V15.0391C46.1778 14.7508 44.4074 14.0683 42.8249 13.0342C41.729 12.3125 40.2674 10.8066 39.1012 9.50879V0.0517578H34.573V9.51855C33.6771 10.4543 32.7318 11.3375 31.7418 12.1641C29.2762 14.165 26.8049 15.1553 24.1077 15.1553C21.9065 15.1553 19.7062 14.4414 17.5668 13.0322C15.9346 11.958 14.743 10.7861 13.5459 9.45312V0.0517578H9.01773V9.42676C8.25461 10.3242 7.49336 11.1729 6.54086 12.0039C4.54023 13.751 2.2218 14.7764 -7.81231e-05 15.0684V19.7627C3.1518 19.3955 6.31586 18.0439 9.01398 15.8379V25.9131H-0.0253906V31.2793H9.01773V40.0908H13.5459V31.2793H34.573V40.0908H39.1012V31.2793H47.984V25.9131H39.1012V16.0156C41.616 18.2335 44.7395 19.5665 48.0252 19.8242ZM13.5459 25.9131V15.8604C16.378 18.5332 19.8759 19.8643 23.6868 19.8643C27.6093 19.8643 31.3743 18.624 34.573 15.8818V25.9131H13.5459Z" fill="#002438"/>
</g>
<defs>
<clipPath id="clip0_3167_1225">
<rect width="48" height="50" fill="white"/>
</clipPath>
</defs>
</svg>
