<svg width="50" height="50" viewBox="0 0 50 50" fill="none" xmlns="http://www.w3.org/2000/svg">
<path d="M40.6602 14.2296C32.8379 11.4874 26.0752 11.5929 20.9238 12.588C25.3428 18.7003 32.2666 29.3097 39.4707 41.3898C56.7383 28.9425 49.333 17.2687 40.6602 14.2296Z" fill="#002438"/>
<path d="M42.2393 47.8516C34.7559 34.9502 27.1641 23.0703 21.9912 15.6396C21.9307 15.7246 21.8574 15.8213 21.7744 15.9248L21.751 15.9531C21.7187 15.9922 21.6846 16.0332 21.6533 16.0742L21.6152 16.1182C21.5791 16.1592 21.541 16.2002 21.502 16.2422C21.4902 16.2539 21.4795 16.2666 21.4678 16.2793C21.417 16.3311 21.3652 16.3838 21.3096 16.4365L21.2715 16.4727C21.2275 16.5137 21.1836 16.5537 21.1367 16.5947L21.0762 16.6465C21.0332 16.6826 20.9883 16.7188 20.9434 16.7539C20.9229 16.7695 20.9033 16.7861 20.8828 16.8008C20.8164 16.8506 20.749 16.8984 20.6787 16.9463C20.1334 17.2916 19.5244 17.5241 18.8877 17.6299L18.8936 17.6406C24.1982 26.6338 32.4961 38.9834 41.0303 48.8115C41.0991 48.8981 41.1861 48.9684 41.2852 49.0175C41.3843 49.0666 41.493 49.0933 41.6035 49.0957C42.1299 49.0947 42.5996 48.4766 42.2393 47.8516Z" fill="#002438"/>
<path d="M24.6748 28.5244C21.2832 23.4209 18.1055 18.2217 15.7881 14.001C12.2207 15.293 10.2158 16.7148 10.2158 16.7148C9.06642 17.542 7.4717 19.123 7.74025 20.5322C8.13088 22.5684 9.92482 23.0713 11 24.2432C12.7461 26.1445 10.8379 28.6377 8.19924 28.4941C2.82814 28.2012 -2.87791 33.5186 1.98244 39.7041C11.9141 52.3545 29.0674 46.8574 35.6446 43.71C31.2324 38.1289 27.3887 32.6074 24.6748 28.5244ZM5.49513 38.8066C5.45851 38.6823 5.45851 38.5501 5.49513 38.4258V38.8066ZM15.1426 38.4746C14.5518 40.1553 12 40.7891 9.44338 39.8906C6.88674 38.9922 5.29103 36.9023 5.88088 35.2217C6.47072 33.541 9.02345 32.9072 11.5801 33.8057C14.1367 34.7041 15.7324 36.7949 15.1426 38.4766V38.4746Z" fill="#002438"/>
<path d="M15.959 2.76759C14.7559 1.74317 13.0908 1.30274 11.5049 1.30274C11.0201 1.30203 10.5361 1.34386 10.0586 1.42774C8.40527 1.72071 7.03125 2.6211 7.03125 2.6211C7.03125 2.6211 10.1494 3.25587 9.87305 4.91602C9.58008 6.7002 10.0107 8.54298 11.0098 9.48732C11.8143 10.2613 12.8865 10.6951 14.0029 10.6983C14.6014 10.7015 15.1935 10.5746 15.7382 10.3264C16.2828 10.0782 16.767 9.71457 17.1572 9.26075C18.6445 7.50782 18.5166 4.94727 15.959 2.76759Z" fill="#002438"/>
<path d="M16.2441 10.0186C16.1299 10.0937 16.0332 10.1611 15.9463 10.2217C16.1291 10.1256 16.3044 10.0159 16.4707 9.89355C16.3919 9.929 16.3161 9.9708 16.2441 10.0186Z" fill="#002438"/>
<path d="M14.9775 10.5694L14.9834 10.5816L15.0361 10.5684L14.9775 10.5694Z" fill="#002438"/>
<path d="M17.7158 9.81836C17.0899 10.5334 16.2689 11.0503 15.3535 11.3057C16.1787 12.8975 17.209 14.7588 18.4053 16.8145V16.8018C18.983 16.7514 19.5429 16.5758 20.0459 16.2871C20.0918 16.2598 20.1377 16.2314 20.1826 16.2021C20.6886 15.8454 21.1157 15.3883 21.4375 14.8594L21.4512 14.8672C19.96 12.748 18.6934 11.0352 17.7158 9.81836Z" fill="#002438"/>
</svg>
