<svg width="49" height="50" viewBox="0 0 49 50" fill="none" xmlns="http://www.w3.org/2000/svg">
<g clip-path="url(#clip0_3167_1228)">
<path d="M24.9707 6.59961L22.9121 3.2998L20.8449 0L18.7959 3.2998L16.8359 6.59961H20.8449H24.9707Z" fill="#002438"/>
<path d="M12.5437 15.4004H1.76367V21.1006H12.5437V15.4004Z" fill="#002438"/>
<path d="M16.297 8.7998H25.6071V14.7002H26.7737V8.7998V7.5H15.0137V7.59961V8.7998V21.0996H16.297V8.7998Z" fill="#002438"/>
<path d="M34.5939 25.7998H30.8701V29.5996H34.5939V25.7998Z" fill="#002438"/>
<path d="M39.6896 25.7998H35.9658V29.5996H39.6896V25.7998Z" fill="#002438"/>
<path d="M34.5939 31.2998H30.8701V35.0996H34.5939V31.2998Z" fill="#002438"/>
<path d="M39.6896 31.2998H35.9658V35.0996H39.6896V31.2998Z" fill="#002438"/>
<path d="M34.5939 36.7998H30.8701V40.5996H34.5939V36.7998Z" fill="#002438"/>
<path d="M39.6896 36.7998H35.9658V40.5996H39.6896V36.7998Z" fill="#002438"/>
<path d="M34.5939 42.2998H30.8701V46.0996H34.5939V42.2998Z" fill="#002438"/>
<path d="M39.6896 42.2998H35.9658V46.0996H39.6896V42.2998Z" fill="#002438"/>
<path d="M8.03631 25.7998H4.3125V29.5996H8.03631V25.7998Z" fill="#002438"/>
<path d="M13.131 25.7998H9.40723V29.5996H13.131V25.7998Z" fill="#002438"/>
<path d="M18.2277 25.7998H14.5039V29.5996H18.2277V25.7998Z" fill="#002438"/>
<path d="M8.03631 31.2998H4.3125V35.0996H8.03631V31.2998Z" fill="#002438"/>
<path d="M13.131 31.2998H9.40723V35.0996H13.131V31.2998Z" fill="#002438"/>
<path d="M18.2277 31.2998H14.5039V35.0996H18.2277V31.2998Z" fill="#002438"/>
<path d="M8.03631 36.7998H4.3125V40.5996H8.03631V36.7998Z" fill="#002438"/>
<path d="M13.131 36.7998H9.40723V40.5996H13.131V36.7998Z" fill="#002438"/>
<path d="M18.2277 36.7998H14.5039V40.5996H18.2277V36.7998Z" fill="#002438"/>
<path d="M8.03631 42.2998H4.3125V46.0996H8.03631V42.2998Z" fill="#002438"/>
<path d="M13.131 42.2998H9.40723V46.0996H13.131V42.2998Z" fill="#002438"/>
<path d="M18.2277 42.2998H14.5039V46.0996H18.2277V42.2998Z" fill="#002438"/>
<path d="M47.53 48.4004V15.5996H39.5924V10.2002H38.3176V15.5996H36.6543V21.2695H43.1219V48.2695H42.2395V22.2002H28.4238V48.2998H27.2438V21.2998H34.3V15.5996H23.2262V48.4004H20.9724V22H1.66619V48.2998H0V50H49V48.4004H47.53ZM19.4038 48.3027H3.22998V23.5H19.4038V48.3027ZM40.8662 48.4004H29.5962V23.7998H40.8652L40.8662 48.4004Z" fill="#002438"/>
</g>
<defs>
<clipPath id="clip0_3167_1228">
<rect width="49" height="50" fill="white"/>
</clipPath>
</defs>
</svg>
