<svg width="50" height="50" viewBox="0 0 50 50" fill="none" xmlns="http://www.w3.org/2000/svg">
<g clip-path="url(#clip0_3167_1229)">
<path d="M0 16.2998V50H50V16.2998H0ZM12.5 47.7998H3V39.2002H12.5977V47.7998H12.5ZM12.5 37.5977H3V29.0039H12.5977V37.5977H12.5ZM12.5 27.2979H3V18.7002H12.5977V27.2998L12.5 27.2979ZM24 47.7998H14.4004V39.2002H24V47.7998ZM24 37.5996H14.4004V29.0039H24V37.5996ZM24 27.2998H14.4004V18.7002H24V27.2998ZM35.5 47.7998H25.9004V39.2002H35.5V47.7998ZM35.5 37.5996H25.9004V29.0039H35.5V37.5996ZM35.5 27.2998H25.9004V18.7002H35.5V27.2998ZM47 47.7998H37.4023V39.2002H47.002L47 47.7998ZM47 37.5996H37.4023V29.0039H47.002L47 37.5996ZM47 27.2998H37.4023V18.7002H47.002L47 27.2998Z" fill="#002438"/>
<path d="M39.2998 6.7998V8.59961V9.5H38.4004H35.4004H34.5V8.59961V6.7998H14.7002V8.59961V9.5H13.7998H10.7002H9.7998V8.59961V6.7998H0V15.2002H50V6.7998H39.2998Z" fill="#002438"/>
<path d="M13.7998 0H10.7998V8.40039H13.7998V0Z" fill="#002438"/>
<path d="M38.4004 0H35.4004V8.40039H38.4004V0Z" fill="#002438"/>
</g>
<defs>
<clipPath id="clip0_3167_1229">
<rect width="50" height="50" fill="white"/>
</clipPath>
</defs>
</svg>
