<svg width="49" height="50" viewBox="0 0 49 50" fill="none" xmlns="http://www.w3.org/2000/svg">
<g clip-path="url(#clip0_3167_1230)">
<path d="M0 40.4492V13.1445C0.694805 11.3623 1.29582 10.9502 3.19361 10.9502H4.34875V9.51172H11.3552V10.9111C11.4179 10.9273 11.482 10.9371 11.5466 10.9404C13.8291 10.9404 16.1021 10.9502 18.3846 10.9307C18.479 10.9185 18.5693 10.8835 18.6477 10.8284C18.7261 10.7734 18.7905 10.6999 18.8353 10.6143C19.2765 9.69434 19.6967 8.75879 20.0938 7.81543C20.2163 7.52832 20.3666 7.43262 20.6767 7.43262C23.1841 7.44238 25.6918 7.44238 28.1999 7.43262C28.51 7.43262 28.6602 7.55664 28.7913 7.82324C29.2143 8.72461 29.6747 9.59668 30.0785 10.5068C30.2374 10.8613 30.4441 10.9668 30.8202 10.9668C35.948 10.9482 41.0767 10.957 46.2045 10.957C47.9425 10.957 49.0038 12.04 49.0038 13.8037V39.7119C48.9943 41.5137 47.9511 42.5674 46.1672 42.5674H35.1278C24.3351 42.5674 13.5433 42.5612 2.75242 42.5488C2.25215 42.5345 1.75992 42.4169 1.30539 42.2031C0.581875 41.8867 0.263184 41.1777 0 40.4492ZM24.5239 14.8125C17.752 14.8125 12.2194 20.4092 12.2098 27.2813C12.2002 34.1533 17.6764 39.7881 24.2607 39.8838C30.9475 39.9814 36.7433 34.5361 36.7806 27.4248C36.7952 25.7733 36.4888 24.1352 35.8793 22.6052C35.2698 21.0752 34.3691 19.6836 33.2295 18.5109C32.0898 17.3381 30.7337 16.4075 29.2394 15.7727C27.7452 15.1379 26.1425 14.8115 24.5239 14.8125ZM27.9606 10.9209C27.6419 10.2881 27.3787 9.72266 27.0782 9.17676C27.0323 9.11716 26.9744 9.06835 26.9083 9.03364C26.8422 8.99893 26.7696 8.97913 26.6954 8.97559C25.2015 8.96582 23.699 8.96582 22.205 8.97559C22.0835 8.97559 21.8959 9.04297 21.849 9.13867C21.5667 9.71387 21.3227 10.2979 21.0413 10.9307C23.3592 10.9209 25.613 10.9209 27.9606 10.9209ZM35.926 15.7061C35.9256 15.8924 35.9613 16.077 36.031 16.2493C36.1007 16.4216 36.203 16.5781 36.3321 16.7099C36.4612 16.8417 36.6145 16.9463 36.7833 17.0175C36.9521 17.0887 37.133 17.1253 37.3156 17.125C37.592 17.1262 37.8625 17.0435 38.0929 16.8876C38.3232 16.7316 38.5029 16.5093 38.6093 16.249C38.7156 15.9886 38.7438 15.7019 38.6902 15.4252C38.6366 15.1485 38.5037 14.8943 38.3083 14.6947C38.1129 14.4952 37.8639 14.3594 37.5927 14.3045C37.3216 14.2497 37.0406 14.2782 36.7854 14.3866C36.5302 14.4949 36.3122 14.6782 36.1592 14.9131C36.0062 15.148 35.925 15.424 35.926 15.7061Z" fill="#002438"/>
<path d="M34.5073 27.3672C34.5073 33.041 30.0275 37.5645 24.4011 37.5547C18.9719 37.5459 14.492 32.9453 14.4824 27.3672C14.4824 24.6575 15.5373 22.0588 17.415 20.1428C19.2927 18.2268 21.8394 17.1504 24.4949 17.1504C27.1504 17.1504 29.6971 18.2268 31.5748 20.1428C33.4525 22.0588 34.5073 24.6575 34.5073 27.3672ZM32.7416 27.3672C32.7598 22.7383 29.0695 18.9434 24.5513 18.9336C20.0992 18.9141 16.3802 22.6709 16.2769 27.0889C16.1735 31.623 19.6858 35.6826 24.4011 35.7344C25.4889 35.7505 26.5691 35.5462 27.579 35.1332C28.5888 34.7202 29.5083 34.1068 30.2841 33.3285C31.06 32.5502 31.6767 31.6225 32.0985 30.5992C32.5204 29.5759 32.7389 28.4773 32.7416 27.3672Z" fill="#002438"/>
</g>
<defs>
<clipPath id="clip0_3167_1230">
<rect width="49" height="50" fill="white"/>
</clipPath>
</defs>
</svg>
