<svg width="49" height="49" viewBox="0 0 49 49" fill="none" xmlns="http://www.w3.org/2000/svg">
<path d="M33.4127 13.0952C29.5539 13.0952 27.9232 14.9365 25.2358 14.9365C22.4805 14.9365 20.3789 13.1086 17.035 13.1086C13.762 13.1086 10.2717 15.1069 8.05519 18.5111C4.94292 23.3115 5.4712 32.3526 10.5119 40.0548C12.3149 42.812 14.7228 45.9042 17.881 45.9377H17.9384C20.6832 45.9377 21.4986 44.1403 25.276 44.1193H25.3334C29.0544 44.1193 29.8009 45.9271 32.5341 45.9271H32.5916C35.7498 45.8936 38.2868 42.4675 40.0899 39.7208C41.3876 37.7455 41.87 36.754 42.8653 34.5193C35.5737 31.7516 34.4023 21.4147 41.6135 17.4516C39.4123 14.6954 36.3192 13.099 33.4031 13.099L33.4127 13.0952Z" fill="#002438"/>
<path d="M32.5628 3.06494C30.2659 3.22094 27.5862 4.68328 26.0167 6.59256C24.5926 8.32287 23.4212 10.8896 23.8806 13.3789H24.0643C26.5105 13.3789 29.0141 11.906 30.4764 10.0187C31.8852 8.22238 32.9532 5.67668 32.5628 3.06494Z" fill="#002438"/>
</svg>
