<svg width="50" height="50" viewBox="0 0 50 50" fill="none" xmlns="http://www.w3.org/2000/svg">
<g clip-path="url(#clip0_3167_1232)">
<path d="M4.29687 26.4004C4.80875 26.4066 5.30786 26.561 5.73385 26.8449C6.15984 27.1288 6.49446 27.53 6.69727 28H16.0967C16.2942 27.5262 16.6275 27.1214 17.0547 26.8367C17.4818 26.5519 17.9837 26.4 18.4971 26.4C19.0104 26.4 19.5123 26.5519 19.9395 26.8367C20.3666 27.1214 20.6999 27.5262 20.8975 28H22.5V25.5996H12.0996V20.8008H4.7998L3.59961 23.2002H7.2002V25.5996H0V28H1.90039C2.10272 27.5304 2.43669 27.1295 2.86197 26.8456C3.28724 26.5618 3.78561 26.4071 4.29687 26.4004Z" fill="#002438"/>
<path d="M41.6992 25.7998V23.2998H45.0986L43.7002 20.8008H35.4971L34.0967 25.9014H31.4004V28.4014H32.5C32.6251 27.8315 32.9412 27.3215 33.3959 26.9558C33.8506 26.5901 34.4165 26.3908 35 26.3908C35.5835 26.3908 36.1494 26.5901 36.6041 26.9558C37.0588 27.3215 37.3749 27.8315 37.5 28.4014H42.9004C43.0255 27.8315 43.3416 27.3215 43.7963 26.9558C44.251 26.5901 44.8169 26.3908 45.4004 26.3908C45.9839 26.3908 46.5498 26.5901 47.0045 26.9558C47.4592 27.3215 47.7752 27.8315 47.9004 28.4014H50V25.7998H41.6992ZM39.6992 25.7998H35.5977L36.3076 23.2998H39.6982L39.6992 25.7998Z" fill="#002438"/>
<path d="M11.9004 0.0976562V12H13.2002C13.2134 11.3191 13.4931 10.6706 13.9793 10.1938C14.4655 9.71692 15.1193 9.44981 15.8003 9.44981C16.4813 9.44981 17.1351 9.71692 17.6213 10.1938C18.1075 10.6706 18.3872 11.3191 18.4004 12H18.498C18.5112 11.3191 18.791 10.6706 19.2772 10.1938C19.7633 9.71692 20.4172 9.44981 21.0981 9.44981C21.7791 9.44981 22.433 9.71692 22.9191 10.1938C23.4053 10.6706 23.685 11.3191 23.6982 12H35.9004C35.9004 11.3105 36.1743 10.6493 36.6618 10.1618C37.1493 9.67428 37.8105 9.40039 38.5 9.40039C39.1895 9.40039 39.8507 9.67428 40.3382 10.1618C40.8257 10.6493 41.0996 11.3105 41.0996 12H41.1973C41.2105 11.3191 41.4902 10.6706 41.9764 10.1938C42.4626 9.71692 43.1164 9.44981 43.7974 9.44981C44.4784 9.44981 45.1322 9.71692 45.6184 10.1938C46.1045 10.6706 46.3843 11.3191 46.3975 12H50V0.0976562H11.9004Z" fill="#002438"/>
<path d="M5 9.5C5.67555 9.48925 6.32794 9.74603 6.81492 10.2144C7.30191 10.6827 7.58397 11.3245 7.59961 12H11V10.0996H9.5V2.40039H0V4.7998H2.40039V7.2002H0V12H2.40039C2.41603 11.3245 2.69809 10.6827 3.18508 10.2144C3.67206 9.74603 4.32445 9.48925 5 9.5Z" fill="#002438"/>
<path d="M5 10.2998C4.54908 10.2998 4.11663 10.4789 3.79778 10.7978C3.47893 11.1166 3.2998 11.5491 3.2998 12C3.2998 12.4509 3.47893 12.8834 3.79778 13.2022C4.11663 13.5211 4.54908 13.7002 5 13.7002C5.44688 13.6874 5.87194 13.5042 6.18806 13.1881C6.50418 12.8719 6.68741 12.4469 6.7002 12C6.70279 11.5518 6.52732 11.121 6.21234 10.8022C5.89736 10.4833 5.46867 10.3026 5.02051 10.2998H5Z" fill="#002438"/>
<path d="M4.29688 27.2998C3.84596 27.2998 3.4135 27.4789 3.09466 27.7978C2.77581 28.1166 2.59668 28.5491 2.59668 29C2.59668 29.4509 2.77581 29.8834 3.09466 30.2022C3.4135 30.5211 3.84596 30.7002 4.29688 30.7002C4.74361 30.6882 5.16885 30.5058 5.48549 30.1905C5.80213 29.8751 5.9862 29.4506 6 29.0039C6.0026 28.5557 5.82712 28.1249 5.51214 27.8061C5.19717 27.4872 4.76848 27.3066 4.32031 27.3037L4.29688 27.2998Z" fill="#002438"/>
<path d="M18.5 27.2997C18.1639 27.2997 17.8353 27.3993 17.5558 27.586C17.2763 27.7726 17.0584 28.0379 16.9296 28.3484C16.8008 28.6588 16.7669 29.0005 16.8322 29.3302C16.8975 29.6599 17.059 29.9628 17.2964 30.2007C17.5338 30.4387 17.8364 30.6009 18.1659 30.667C18.4955 30.733 18.8372 30.6999 19.1479 30.5718C19.4587 30.4437 19.7245 30.2264 19.9118 29.9473C20.099 29.6682 20.1994 29.3399 20.2002 29.0038C20.219 28.572 20.0656 28.1504 19.7737 27.8316C19.4819 27.5128 19.0754 27.3229 18.6436 27.3036C18.596 27.2991 18.5482 27.2978 18.5 27.2997Z" fill="#002438"/>
<path d="M36.7021 29.0098V29.0039C36.7183 28.5719 36.5622 28.1513 36.2683 27.8343C35.9744 27.5173 35.5667 27.33 35.1348 27.3135C35.0898 27.3135 35.0459 27.3135 35.002 27.3135C34.6657 27.3135 34.337 27.4132 34.0574 27.6C33.7778 27.7868 33.5599 28.0524 33.4312 28.363C33.3025 28.6737 33.2688 29.0156 33.3344 29.3454C33.4 29.6752 33.562 29.9781 33.7997 30.2159C34.0375 30.4537 34.3405 30.6156 34.6703 30.6812C35.0001 30.7468 35.3419 30.7131 35.6526 30.5844C35.9633 30.4558 36.2288 30.2378 36.4156 29.9583C36.6024 29.6787 36.7021 29.3499 36.7021 29.0137V29.0098Z" fill="#002438"/>
<path d="M47.0596 29.04C47.0614 28.5925 46.8855 28.1625 46.5706 27.8444C46.2557 27.5264 45.8274 27.3463 45.3799 27.3438H45.3604C45.024 27.3436 44.6952 27.4431 44.4155 27.6298C44.1358 27.8165 43.9177 28.082 43.7889 28.3926C43.66 28.7033 43.6262 29.0452 43.6917 29.375C43.7572 29.7049 43.9191 30.0079 44.1568 30.2458C44.3945 30.4837 44.6975 30.6457 45.0273 30.7114C45.3572 30.7771 45.6991 30.7435 46.0098 30.6148C46.3205 30.4862 46.5861 30.2682 46.773 29.9886C46.9598 29.709 47.0596 29.3803 47.0596 29.0439V29.04Z" fill="#002438"/>
<path d="M17.498 12C17.5075 11.7861 17.4747 11.5725 17.4016 11.3714C17.3285 11.1702 17.2164 10.9854 17.0719 10.8275C16.9273 10.6696 16.7531 10.5417 16.5591 10.4512C16.3652 10.3607 16.1553 10.3092 15.9414 10.2998C15.8932 10.2998 15.8454 10.2998 15.7979 10.2998C15.4616 10.2998 15.1329 10.3995 14.8533 10.5863C14.5737 10.7732 14.3558 11.0387 14.2271 11.3494C14.0984 11.66 14.0647 12.0019 14.1303 12.3317C14.1959 12.6615 14.3579 12.9644 14.5956 13.2022C14.8334 13.44 15.1364 13.6019 15.4662 13.6675C15.796 13.7331 16.1378 13.6995 16.4485 13.5708C16.7592 13.4421 17.0247 13.2242 17.2115 12.9446C17.3983 12.665 17.498 12.3363 17.498 12Z" fill="#002438"/>
<path d="M22.7979 12C22.7993 11.7781 22.7569 11.558 22.6733 11.3524C22.5896 11.1468 22.4663 10.9598 22.3103 10.8019C22.1543 10.644 21.9687 10.5184 21.7642 10.4322C21.5596 10.3461 21.3401 10.3011 21.1182 10.2998H21.0986C20.7623 10.2996 20.4335 10.3992 20.1538 10.5859C19.8741 10.7726 19.656 11.038 19.5272 11.3487C19.3983 11.6593 19.3645 12.0012 19.43 12.3311C19.4955 12.661 19.6574 12.964 19.8951 13.2019C20.1328 13.4397 20.4358 13.6018 20.7656 13.6675C21.0954 13.7331 21.4373 13.6995 21.7481 13.5709C22.0588 13.4422 22.3244 13.2243 22.5112 12.9447C22.6981 12.6651 22.7979 12.3363 22.7979 12Z" fill="#002438"/>
<path d="M40.1982 12C40.1997 11.7781 40.1573 11.558 40.0737 11.3524C39.99 11.1468 39.8667 10.9598 39.7107 10.8019C39.5547 10.644 39.3691 10.5184 39.1646 10.4322C38.96 10.3461 38.7405 10.3011 38.5186 10.2998H38.498C38.1618 10.2998 37.8331 10.3995 37.5535 10.5863C37.2739 10.7732 37.056 11.0387 36.9273 11.3494C36.7986 11.66 36.7649 12.0019 36.8305 12.3317C36.8961 12.6615 37.0581 12.9644 37.2958 13.2022C37.5336 13.44 37.8366 13.6019 38.1664 13.6675C38.4962 13.7331 38.838 13.6995 39.1487 13.5708C39.4594 13.4421 39.7249 13.2242 39.9117 12.9446C40.0985 12.665 40.1982 12.3363 40.1982 12Z" fill="#002438"/>
<path d="M45.498 12C45.5171 11.5688 45.3644 11.1476 45.0733 10.8288C44.7822 10.5101 44.3765 10.3198 43.9453 10.2998C43.8978 10.2998 43.8499 10.2998 43.8018 10.2998C43.4655 10.2998 43.1368 10.3995 42.8572 10.5863C42.5776 10.7732 42.3597 11.0387 42.231 11.3494C42.1023 11.66 42.0686 12.0019 42.1342 12.3317C42.1998 12.6615 42.3618 12.9644 42.5995 13.2022C42.8373 13.44 43.1403 13.6019 43.4701 13.6675C43.7999 13.7331 44.1417 13.6995 44.4524 13.5708C44.7631 13.4421 45.0286 13.2242 45.2154 12.9446C45.4022 12.665 45.502 12.3363 45.502 12H45.498Z" fill="#002438"/>
<path d="M0 48.2002H3.7998C3.81646 47.5252 4.09907 46.8841 4.58612 46.4164C5.07318 45.9487 5.72525 45.6924 6.40039 45.7031C7.07594 45.6924 7.72833 45.9492 8.21531 46.4175C8.7023 46.8858 8.98436 47.5277 9 48.2031C8.9933 47.8574 9.0556 47.5139 9.18326 47.1926C9.31092 46.8712 9.50137 46.5786 9.74347 46.3317C9.98558 46.0849 10.2745 45.8888 10.5933 45.755C10.9121 45.6211 11.2543 45.5521 11.6001 45.5521C11.9459 45.5521 12.2881 45.6211 12.6069 45.755C12.9257 45.8888 13.2146 46.0849 13.4567 46.3317C13.6988 46.5786 13.8893 46.8712 14.0169 47.1926C14.1446 47.5139 14.2069 47.8574 14.2002 48.2031H26.2998C26.313 47.5223 26.5927 46.8737 27.0789 46.3969C27.5651 45.92 28.2189 45.6529 28.8999 45.6529C29.5809 45.6529 30.2347 45.92 30.7209 46.3969C31.2071 46.8737 31.4868 47.5223 31.5 48.2031H31.5977C31.591 47.8574 31.6533 47.5139 31.7809 47.1926C31.9086 46.8712 32.099 46.5786 32.3411 46.3317C32.5832 46.0849 32.8721 45.8888 33.1909 45.755C33.5097 45.6211 33.852 45.5521 34.1978 45.5521C34.5435 45.5521 34.8858 45.6211 35.2046 45.755C35.5234 45.8888 35.8123 46.0849 36.0544 46.3317C36.2965 46.5786 36.4869 46.8712 36.6146 47.1926C36.7422 47.5139 36.8046 47.8574 36.7979 48.2031H38.0977V36.2998H0V48.2002Z" fill="#002438"/>
<path d="M40.5 46.2998H39V48.2002H42.4004C42.4004 47.5107 42.6743 46.8495 43.1618 46.362C43.6493 45.8745 44.3105 45.6006 45 45.6006C45.6895 45.6006 46.3507 45.8745 46.8382 46.362C47.3257 46.8495 47.5996 47.5107 47.5996 48.2002H50V43.4004H47.5996V41H50V38.5996H40.5V46.2998Z" fill="#002438"/>
<path d="M45.002 46.5C44.5538 46.4974 44.1229 46.6729 43.8041 46.9879C43.4853 47.3029 43.3046 47.7316 43.3018 48.1797V48.2002C43.3018 48.5365 43.4015 48.8652 43.5883 49.1448C43.7751 49.4244 44.0406 49.6423 44.3513 49.771C44.662 49.8997 45.0038 49.9334 45.3336 49.8678C45.6635 49.8021 45.9664 49.6402 46.2042 49.4024C46.442 49.1647 46.6039 48.8617 46.6695 48.5319C46.7351 48.2021 46.7014 47.8603 46.5727 47.5496C46.444 47.2389 46.2261 46.9734 45.9465 46.7866C45.6669 46.5997 45.3382 46.5 45.002 46.5Z" fill="#002438"/>
<path d="M34.2021 46.5C33.7551 46.5123 33.3298 46.6954 33.0136 47.0116C32.6973 47.3278 32.5143 47.7532 32.502 48.2002C32.502 48.5365 32.6017 48.8652 32.7885 49.1448C32.9753 49.4244 33.2408 49.6423 33.5515 49.771C33.8622 49.8997 34.204 49.9333 34.5338 49.8677C34.8636 49.8021 35.1666 49.6402 35.4044 49.4024C35.6421 49.1646 35.8041 48.8617 35.8697 48.5319C35.9353 48.2021 35.9016 47.8602 35.7729 47.5496C35.6442 47.2389 35.4263 46.9734 35.1467 46.7865C34.8671 46.5997 34.5384 46.5 34.2021 46.5Z" fill="#002438"/>
<path d="M28.9063 46.5C28.4581 46.4974 28.0272 46.6729 27.7084 46.9879C27.3896 47.3029 27.2089 47.7316 27.2061 48.1797V48.2002C27.2061 48.5365 27.3058 48.8652 27.4926 49.1448C27.6794 49.4244 27.9449 49.6423 28.2556 49.771C28.5663 49.8997 28.9081 49.9334 29.2379 49.8678C29.5677 49.8021 29.8707 49.6402 30.1085 49.4024C30.3462 49.1647 30.5082 48.8617 30.5738 48.5319C30.6394 48.2021 30.6057 47.8603 30.477 47.5496C30.3483 47.2389 30.1304 46.9734 29.8508 46.7866C29.5712 46.5997 29.2425 46.5 28.9063 46.5Z" fill="#002438"/>
<path d="M11.5996 46.5C11.1528 46.5126 10.7277 46.6957 10.4117 47.0119C10.0956 47.3281 9.91269 47.7533 9.90039 48.2002C9.90039 48.5365 10.0001 48.8653 10.187 49.1449C10.3739 49.4245 10.6394 49.6424 10.9502 49.7711C11.2609 49.8997 11.6028 49.9333 11.9326 49.8677C12.2625 49.802 12.5654 49.6399 12.8032 49.4021C13.0409 49.1642 13.2027 48.8612 13.2682 48.5313C13.3337 48.2014 13.2999 47.8595 13.1711 47.5489C13.0422 47.2382 12.8242 46.9728 12.5445 46.7861C12.2647 46.5994 11.9359 46.4998 11.5996 46.5Z" fill="#002438"/>
<path d="M6.39844 46.5C5.94752 46.5 5.51507 46.6791 5.19622 46.998C4.87737 47.3168 4.69824 47.7493 4.69824 48.2002C4.69824 48.6511 4.87737 49.0836 5.19622 49.4024C5.51507 49.7213 5.94752 49.9004 6.39844 49.9004C6.84936 49.9004 7.28181 49.7213 7.60066 49.4024C7.91951 49.0836 8.09863 48.6511 8.09863 48.2002C8.09863 47.7493 7.91951 47.3168 7.60066 46.998C7.28181 46.6791 6.84936 46.5 6.39844 46.5Z" fill="#002438"/>
<path d="M25.2002 18.4004H13V24.6006H25.2002V18.4004Z" fill="#002438"/>
</g>
<defs>
<clipPath id="clip0_3167_1232">
<rect width="50" height="50" fill="white"/>
</clipPath>
</defs>
</svg>
