<svg width="49" height="49" viewBox="0 0 49 49" fill="none" xmlns="http://www.w3.org/2000/svg">
<path d="M24.5001 16.8442C22.9858 16.8442 21.5056 17.2933 20.2465 18.1345C18.9874 18.9758 18.0061 20.1716 17.4266 21.5706C16.8472 22.9696 16.6955 24.509 16.991 25.9941C17.2864 27.4793 18.0156 28.8435 19.0863 29.9143C20.157 30.985 21.5213 31.7142 23.0064 32.0096C24.4916 32.305 26.031 32.1534 27.43 31.5739C28.829 30.9945 30.0247 30.0131 30.866 28.7541C31.7073 27.495 32.1563 26.0147 32.1563 24.5005C32.1503 22.4718 31.3417 20.5279 29.9072 19.0934C28.4727 17.6589 26.5288 16.8503 24.5001 16.8442ZM41.0299 24.5005C41.0259 25.2159 40.9735 25.9302 40.873 26.6385L45.5328 30.2867C45.7357 30.4543 45.8725 30.6886 45.9186 30.9477C45.9647 31.2068 45.9171 31.4739 45.7845 31.7012L41.3764 39.3115C41.2424 39.5368 41.0332 39.7076 40.7857 39.7939C40.5382 39.8802 40.2682 39.8765 40.0231 39.7833L34.5441 37.5821C33.4032 38.4607 32.1547 39.1898 30.8289 39.7517L30.0097 45.5686C29.9639 45.8291 29.829 46.0657 29.628 46.2378C29.4271 46.4099 29.1727 46.5069 28.9082 46.5122H20.092C19.8323 46.5071 19.582 46.4142 19.3819 46.2486C19.1819 46.0829 19.0439 45.8543 18.9905 45.6002L18.1712 39.7833C16.8418 39.2279 15.5924 38.4976 14.456 37.6118L8.97705 39.813C8.73213 39.9062 8.46219 39.9101 8.21468 39.824C7.96718 39.7379 7.75796 39.5672 7.62381 39.3421L3.21572 31.7328C3.08304 31.5055 3.0355 31.2384 3.08161 30.9793C3.12772 30.7201 3.26447 30.4859 3.46742 30.3183L8.1272 26.6701C8.02781 25.9511 7.97538 25.2263 7.97025 24.5005C7.97423 23.7851 8.02667 23.0708 8.1272 22.3625L3.46742 18.7143C3.26447 18.5467 3.12772 18.3124 3.08161 18.0533C3.0355 17.7942 3.08304 17.5271 3.21572 17.2998L7.62381 9.68947C7.75781 9.46418 7.96697 9.29336 8.21448 9.20706C8.462 9.12077 8.73202 9.12452 8.97705 9.21766L14.456 11.4188C15.5969 10.5403 16.8455 9.81118 18.1712 9.24924L18.9905 3.4324C19.0363 3.17185 19.1712 2.93531 19.3721 2.76319C19.5731 2.59108 19.8275 2.49408 20.092 2.48877H28.9082C29.1679 2.49382 29.4182 2.58676 29.6182 2.75241C29.8183 2.91806 29.9563 3.14663 30.0097 3.40082L30.8289 9.21766C32.16 9.77271 33.4111 10.503 34.5489 11.3892L40.0231 9.18799C40.2681 9.09476 40.538 9.09087 40.7855 9.17699C41.033 9.26311 41.2422 9.43373 41.3764 9.65885L45.7845 17.2692C45.9171 17.4965 45.9647 17.7635 45.9186 18.0227C45.8725 18.2818 45.7357 18.5161 45.5328 18.6837L40.873 22.3319C40.9723 23.0506 41.0248 23.775 41.0299 24.5005Z" fill="#002438"/>
</svg>
