<svg width="49" height="49" viewBox="0 0 49 49" fill="none" xmlns="http://www.w3.org/2000/svg">
<path d="M9.95312 47.47H6.89062C6.28146 47.47 5.69724 47.228 5.26649 46.7972C4.83574 46.3665 4.59375 45.7823 4.59375 45.1731V31.3918C4.59375 30.7827 4.83574 30.1985 5.26649 29.7677C5.69724 29.337 6.28146 29.095 6.89062 29.095H9.95312C10.5623 29.095 11.1465 29.337 11.5773 29.7677C12.008 30.1985 12.25 30.7827 12.25 31.3918V45.1731C12.25 45.7823 12.008 46.3665 11.5773 46.7972C11.1465 47.228 10.5623 47.47 9.95312 47.47Z" fill="#002438"/>
<path d="M31.3906 47.4673H28.3281C27.719 47.4673 27.1347 47.2253 26.704 46.7945C26.2732 46.3638 26.0312 45.7796 26.0312 45.1704V22.2017C26.0312 21.5925 26.2732 21.0083 26.704 20.5775C27.1347 20.1468 27.719 19.9048 28.3281 19.9048H31.3906C31.9998 19.9048 32.584 20.1468 33.0148 20.5775C33.4455 21.0083 33.6875 21.5925 33.6875 22.2017V45.1704C33.6875 45.7796 33.4455 46.3638 33.0148 46.7945C32.584 47.2253 31.9998 47.4673 31.3906 47.4673Z" fill="#002438"/>
<path d="M42.1094 47.4685H39.0469C38.4377 47.4685 37.8535 47.2265 37.4227 46.7957C36.992 46.365 36.75 45.7808 36.75 45.1716V11.4841C36.75 10.875 36.992 10.2907 37.4227 9.85999C37.8535 9.42925 38.4377 9.18726 39.0469 9.18726H42.1094C42.7185 9.18726 43.3028 9.42925 43.7335 9.85999C44.1643 10.2907 44.4062 10.875 44.4062 11.4841V45.1716C44.4062 45.7808 44.1643 46.365 43.7335 46.7957C43.3028 47.2265 42.7185 47.4685 42.1094 47.4685Z" fill="#002438"/>
<path d="M20.6719 47.4678H17.6094C17.0002 47.4678 16.416 47.2258 15.9852 46.795C15.5545 46.3643 15.3125 45.7801 15.3125 45.1709V3.82715C15.3125 3.21798 15.5545 2.63376 15.9852 2.20301C16.416 1.77226 17.0002 1.53027 17.6094 1.53027H20.6719C21.281 1.53027 21.8653 1.77226 22.296 2.20301C22.7268 2.63376 22.9687 3.21798 22.9687 3.82715V45.1709C22.9687 45.7801 22.7268 46.3643 22.296 46.795C21.8653 47.2258 21.281 47.4678 20.6719 47.4678Z" fill="#002438"/>
</svg>
