<svg width="50" height="49" viewBox="0 0 50 49" fill="none" xmlns="http://www.w3.org/2000/svg">
<g clip-path="url(#clip0_3167_1233)">
<path d="M49.0342 6.97192H17.2256V10.3579H49.0342V6.97192Z" fill="#002438"/>
<path d="M9.40039 5.37853L11.5342 3.38599H3.30273L5.43652 5.37853H9.40039Z" fill="#002438"/>
<path d="M13.4658 7.27051L11.4326 9.26209V13.1467H7.46973H7.36816H3.50586V9.36162L1.47363 7.37004V15.1383H13.4658V7.27051Z" fill="#002438"/>
<path d="M17.9375 1.39439L16.4121 0L7.36816 8.86402L2.49023 3.98412L0.96582 5.37852L7.36816 11.7523L17.9375 1.39439Z" fill="#002438"/>
<path d="M49.0342 23.9028H17.2256V27.2888H49.0342V23.9028Z" fill="#002438"/>
<path d="M9.40039 22.3094L11.5342 20.3169H3.30273L5.43652 22.3094H9.40039Z" fill="#002438"/>
<path d="M13.4658 24.2014L11.4326 26.193V30.0776H7.46973H7.36816H3.50586V26.2925L1.47363 24.3009V32.0692H13.4658V24.2014Z" fill="#002438"/>
<path d="M17.9375 18.3253L16.4121 16.9309L7.36816 25.7949L2.49023 20.915L0.96582 22.3094L7.36816 28.6833L17.9375 18.3253Z" fill="#002438"/>
<path d="M49.0342 40.8337H17.2256V44.2197H49.0342V40.8337Z" fill="#002438"/>
<path d="M9.40039 39.2401L11.5342 37.2476H3.30273L5.43652 39.2401H9.40039Z" fill="#002438"/>
<path d="M11.4326 46.9089H7.46973L7.36816 47.0084V46.9089H3.50586V43.2234L1.47363 41.2318V49H13.4658V41.0327L11.4326 43.1238V46.9089Z" fill="#002438"/>
<path d="M17.9375 35.256L16.4121 33.8616L7.36816 42.7256L2.49023 37.8457L0.96582 39.2401L7.36816 45.6139L17.9375 35.256Z" fill="#002438"/>
</g>
<defs>
<clipPath id="clip0_3167_1233">
<rect width="50" height="49" fill="white"/>
</clipPath>
</defs>
</svg>
