<svg width="49" height="48" viewBox="0 0 49 48" fill="none" xmlns="http://www.w3.org/2000/svg">
<path d="M24.5 4.49829C13.5066 4.49829 4.59375 13.2292 4.59375 23.9983C4.59375 34.7674 13.5066 43.4983 24.5 43.4983C35.4934 43.4983 44.4062 34.7674 44.4062 23.9983C44.4062 13.2292 35.4934 4.49829 24.5 4.49829Z" fill="white" stroke="#002438" stroke-width="2.4" stroke-miterlimit="10"/>
<path d="M24.4997 4.49829C18.9422 4.49829 13.7168 13.2292 13.7168 23.9983C13.7168 34.7674 18.9422 43.4983 24.4997 43.4983C30.0571 43.4983 35.2825 34.7674 35.2825 23.9983C35.2825 13.2292 30.0571 4.49829 24.4997 4.49829Z" fill="white" stroke="#002438" stroke-width="2.4" stroke-miterlimit="10"/>
<path d="M11.2285 10.9985C14.8882 13.5438 19.4953 15.0617 24.4997 15.0617C29.504 15.0617 34.1111 13.5438 37.7708 10.9985" fill="white"/>
<path d="M11.2285 10.9985C14.8882 13.5438 19.4953 15.0617 24.4997 15.0617C29.504 15.0617 34.1111 13.5438 37.7708 10.9985" stroke="#002438" stroke-width="2.4" stroke-linecap="round" stroke-linejoin="round"/>
<path d="M37.7708 37.0014C34.1111 34.456 29.504 32.9382 24.4997 32.9382C19.4953 32.9382 14.8882 34.456 11.2285 37.0014" stroke="#002438" stroke-width="2.4" stroke-linecap="round" stroke-linejoin="round"/>
<path d="M24.5 4.49829V43.4983" stroke="#002438" stroke-width="2.4" stroke-miterlimit="10"/>
<path d="M44.4062 23.9978H4.59375" stroke="#002438" stroke-width="2.4" stroke-miterlimit="10"/>
</svg>
