<svg width="49" height="48" viewBox="0 0 49 48" fill="none" xmlns="http://www.w3.org/2000/svg">
<g clip-path="url(#clip0_3167_1235)">
<path d="M31.4005 6.01577H27.5504C27.8999 5.57486 28.1427 5.06197 28.2605 4.51577C28.3919 3.90118 28.3636 3.26411 28.1783 2.66299C27.993 2.06188 27.6566 1.51597 27.1999 1.07535C26.7432 0.634722 26.1809 0.313492 25.5645 0.141124C24.9481 -0.0312447 24.2974 -0.0492327 23.6721 0.0888099C23.0467 0.226852 22.4668 0.516506 21.9855 0.931198C21.5041 1.34589 21.1368 1.87234 20.9172 2.46227C20.6976 3.05219 20.6327 3.68669 20.7285 4.30756C20.8243 4.92843 21.0777 5.51579 21.4655 6.01577H17.624V10.5158H31.4053L31.4005 6.01577ZM26.667 4.51577C26.4698 5.03889 26.0795 5.47053 25.5732 5.72539C25.0668 5.98026 24.4813 6.03981 23.9323 5.89229C23.3834 5.74477 22.9108 5.4009 22.6081 4.92863C22.3054 4.45636 22.1946 3.89005 22.2974 3.34159C22.4003 2.79312 22.7095 2.30241 23.1638 1.96641C23.6181 1.6304 24.1846 1.47355 24.7512 1.52684C25.3179 1.58014 25.8435 1.8397 26.2243 2.25424C26.605 2.66878 26.8132 3.20815 26.8077 3.76577C26.8053 4.02215 26.7577 4.27619 26.667 4.51671V4.51577Z" fill="#002438"/>
<path d="M13.5352 15.5054C13.5352 15.802 13.625 16.0921 13.7932 16.3387C13.9615 16.5854 14.2006 16.7777 14.4804 16.8912C14.7602 17.0047 15.0681 17.0344 15.3651 16.9765C15.6622 16.9187 15.935 16.7758 16.1492 16.566C16.3633 16.3563 16.5092 16.089 16.5682 15.798C16.6273 15.507 16.597 15.2054 16.4811 14.9313C16.3652 14.6573 16.1689 14.423 15.9171 14.2582C15.6653 14.0933 15.3693 14.0054 15.0664 14.0054C14.6603 14.0054 14.2708 14.1634 13.9836 14.4447C13.6965 14.726 13.5352 15.1075 13.5352 15.5054Z" fill="#002438"/>
<path d="M35.0717 14.0063H18.582V17.0054H35.0717V14.0063Z" fill="#002438"/>
<path d="M15.0654 21.8035C14.7626 21.8035 14.4665 21.8914 14.2147 22.0563C13.9629 22.2211 13.7666 22.4554 13.6507 22.7294C13.5348 23.0035 13.5045 23.3051 13.5636 23.5961C13.6227 23.8871 13.7685 24.1543 13.9827 24.3641C14.1968 24.5739 14.4697 24.7168 14.7667 24.7746C15.0637 24.8325 15.3716 24.8028 15.6514 24.6893C15.9312 24.5758 16.1704 24.3835 16.3386 24.1368C16.5069 23.8901 16.5967 23.6001 16.5967 23.3035C16.5967 22.9056 16.4354 22.5241 16.1482 22.2428C15.861 21.9615 15.4715 21.8035 15.0654 21.8035Z" fill="#002438"/>
<path d="M35.0717 21.8035H18.582V24.8025H35.0717V21.8035Z" fill="#002438"/>
<path d="M15.0654 29.5996C14.7626 29.5996 14.4665 29.6876 14.2147 29.8524C13.9629 30.0172 13.7666 30.2515 13.6507 30.5256C13.5348 30.7997 13.5045 31.1013 13.5636 31.3922C13.6227 31.6832 13.7685 31.9505 13.9827 32.1603C14.1968 32.37 14.4697 32.5129 14.7667 32.5708C15.0637 32.6287 15.3716 32.599 15.6514 32.4854C15.9312 32.3719 16.1704 32.1796 16.3386 31.933C16.5069 31.6863 16.5967 31.3963 16.5967 31.0996C16.5967 30.7018 16.4354 30.3203 16.1482 30.0389C15.861 29.7576 15.4715 29.5996 15.0654 29.5996Z" fill="#002438"/>
<path d="M35.0717 29.5996H18.582V32.5987H35.0717V29.5996Z" fill="#002438"/>
<path d="M32.907 6.01587V9.01493H37.4988V45.0009H29.8684H19.1324H11.502V9.01493H16.0938V6.01587H8.39453V47.9999H19.1324H29.8684H40.6063V6.01587H32.907Z" fill="#002438"/>
<path d="M15.0654 37.397C14.7626 37.397 14.4665 37.4849 14.2147 37.6498C13.9629 37.8146 13.7666 38.0489 13.6507 38.3229C13.5348 38.597 13.5045 38.8986 13.5636 39.1896C13.6227 39.4806 13.7685 39.7479 13.9827 39.9576C14.1968 40.1674 14.4697 40.3103 14.7667 40.3682C15.0637 40.426 15.3716 40.3963 15.6514 40.2828C15.9312 40.1693 16.1704 39.977 16.3386 39.7303C16.5069 39.4837 16.5967 39.1936 16.5967 38.897C16.5967 38.4991 16.4354 38.1176 16.1482 37.8363C15.861 37.555 15.4715 37.397 15.0654 37.397Z" fill="#002438"/>
<path d="M35.0307 37.397H18.541V40.396H35.0307V37.397Z" fill="#002438"/>
</g>
<defs>
<clipPath id="clip0_3167_1235">
<rect width="49" height="48" fill="white"/>
</clipPath>
</defs>
</svg>
