<svg width="48" height="49" viewBox="0 0 48 49" fill="none" xmlns="http://www.w3.org/2000/svg">
<path d="M44.7784 3.66376C44.7613 3.57912 44.7209 3.50122 44.662 3.43918C44.603 3.37714 44.528 3.33354 44.4456 3.31349C38.9547 1.94302 26.2675 6.82675 19.3937 13.8408C18.1677 15.0822 17.0501 16.4304 16.0534 17.8699C13.9337 17.6785 11.8141 17.8383 10.0075 18.6423C4.9103 20.9324 3.42624 26.9081 3.0128 29.4787C2.98935 29.6194 2.9982 29.7637 3.03865 29.9004C3.07909 30.037 3.15004 30.1622 3.2459 30.266C3.34176 30.3699 3.45993 30.4497 3.5911 30.4991C3.72228 30.5484 3.86288 30.5661 4.00187 30.5506L12.1872 29.629C12.193 30.2589 12.2303 30.8882 12.2987 31.5143C12.3399 31.9491 12.529 32.3554 12.8331 32.6628L16.0028 35.8908C16.3041 36.2009 16.702 36.3938 17.1278 36.4363C17.7377 36.506 18.3507 36.544 18.9644 36.5502L18.0662 44.8955C18.0513 45.0374 18.0687 45.1808 18.1171 45.3146C18.1655 45.4484 18.2437 45.569 18.3454 45.6668C18.4471 45.7646 18.5697 45.837 18.7034 45.8784C18.8371 45.9198 18.9784 45.9289 19.1162 45.9052C21.6297 45.4937 27.4937 43.9787 29.724 38.7753C30.5115 36.9311 30.6728 34.7778 30.4909 32.6245C31.9045 31.607 33.2286 30.4657 34.4481 29.2136C41.3434 22.2101 46.1003 9.54759 44.7784 3.66376ZM27.5687 20.8587C26.9391 20.2164 26.5102 19.3979 26.3364 18.5067C26.1625 17.6155 26.2514 16.6917 26.5919 15.8521C26.9324 15.0126 27.5092 14.295 28.2493 13.7901C28.9894 13.2851 29.8595 13.0157 30.7497 13.0157C31.6398 13.0157 32.51 13.2851 33.25 13.7901C33.9901 14.295 34.5669 15.0126 34.9074 15.8521C35.2479 16.6917 35.3369 17.6155 35.163 18.5067C34.9891 19.3979 34.5602 20.2164 33.9306 20.8587C33.5131 21.2856 33.0173 21.6242 32.4714 21.8552C31.9256 22.0862 31.3405 22.2051 30.7497 22.2051C30.1588 22.2051 29.5737 22.0862 29.0279 21.8552C28.4821 21.6242 27.9862 21.2856 27.5687 20.8587Z" fill="#002438"/>
<path d="M15.7875 38.2291C15.2737 38.7546 14.4497 38.9594 13.4578 39.1345C11.2294 39.5221 9.26156 37.5563 9.66187 35.2566C9.81469 34.3847 10.2666 33.1626 10.5478 32.8755C10.6093 32.814 10.6502 32.7342 10.6648 32.6476C10.6793 32.561 10.6667 32.4718 10.6289 32.3929C10.591 32.314 10.5297 32.2492 10.4537 32.2079C10.3777 32.1665 10.2909 32.1507 10.2056 32.1625C8.95946 32.3182 7.80013 32.8949 6.91219 33.801C4.70813 36.0529 4.5 44.4087 4.5 44.4087C4.5 44.4087 12.69 44.1962 14.8941 41.9443C15.7844 41.0386 16.3501 39.8533 16.5 38.5794C16.5347 38.1794 16.0575 37.9411 15.7875 38.2291Z" fill="#002438"/>
</svg>
