<svg width="49" height="48" viewBox="0 0 49 48" fill="none" xmlns="http://www.w3.org/2000/svg">
<g clip-path="url(#clip0_3167_1237)">
<path d="M24.5005 0C10.9814 0 0.0224609 10.7456 0.0224609 24C0.0224609 37.2544 10.9814 48 24.5005 48C38.0195 48 48.9784 37.2544 48.9784 24C48.9784 10.7456 38.0195 0 24.5005 0ZM24.5005 45.3122C12.4954 45.3122 2.7634 35.7703 2.7634 24C2.7634 12.2297 12.4974 2.69344 24.5005 2.68781C36.5035 2.68219 46.2375 12.2297 46.2375 24C46.2375 35.7703 36.5055 45.3122 24.5005 45.3122Z" fill="#002438"/>
<path d="M44.7678 22.6555H40.9492V25.3433H44.7678V22.6555Z" fill="#002438"/>
<path d="M8.05098 22.6555H4.23242V25.3433H8.05098V22.6555Z" fill="#002438"/>
<path d="M25.8718 40.1279H23.1299V43.8723H25.8718V40.1279Z" fill="#002438"/>
<path d="M35.1732 13.7278L24.9904 17.9522V10.7522H23.619V18.4322L19.9966 20.1563L18.6252 23.3241H10.5967V24.6684H18.0386L13.5338 35.04L23.7176 30.72V37.92H25.088V30.24L28.7114 28.7044L30.4742 24.7669H38.1113V23.3278H30.9623L35.1732 13.7278ZM16.4719 32.0625L21.2695 21.3103L27.5361 27.4538L16.4719 32.0625Z" fill="#002438"/>
<path d="M25.7731 4.12793H23.0312V7.8723H25.7731V4.12793Z" fill="#002438"/>
</g>
<defs>
<clipPath id="clip0_3167_1237">
<rect width="49" height="48" fill="white"/>
</clipPath>
</defs>
</svg>
