<svg width="50" height="48" viewBox="0 0 50 48" fill="none" xmlns="http://www.w3.org/2000/svg">
<path d="M25.0977 3.84384C25.6193 3.84395 26.1398 3.89072 26.6523 3.98353V0.0666504H23.1201V4.07071C23.7676 3.92028 24.4315 3.84413 25.0977 3.84384Z" fill="#002438"/>
<path d="M41.7256 42.8916L35.2217 30.0094C36.6265 29.091 37.9046 28.0055 39.0254 26.7788L40.7227 24.75L37.4355 22.2188L35.8398 24.1416C35.0965 24.9499 34.2675 25.6816 33.3662 26.325L29.0273 17.731C30.3758 16.9186 31.4146 15.7096 31.9889 14.2842C32.5631 12.8587 32.642 11.2933 32.2138 9.82134C31.7856 8.34935 30.8733 7.04967 29.6128 6.11611C28.3524 5.18256 26.8114 4.66514 25.2196 4.64102C23.6278 4.6169 22.0705 5.08738 20.78 5.98229C19.4895 6.87719 18.5349 8.14859 18.0585 9.60687C17.5822 11.0651 17.6096 12.6322 18.1367 14.0743C18.6638 15.5164 19.6623 16.7563 20.9834 17.6091L16.6377 26.2172C15.7376 25.5526 14.9134 24.7984 14.1787 23.9672L12.6719 22.1344L9.36328 24.6375L10.8936 26.4994L10.9404 26.5538C12.0597 27.8278 13.345 28.9583 14.7646 29.9175L8.21484 42.8916L12.3252 44.6625L18.7441 31.9482C20.7015 32.665 22.7762 33.0412 24.8711 33.0591H25.0439C27.1518 33.0595 29.2428 32.6976 31.2178 31.9903L37.6152 44.6625L41.7256 42.8916ZM25 9.9816C25.3403 9.98178 25.6729 10.0788 25.9557 10.2604C26.2385 10.4421 26.4589 10.7001 26.589 11.002C26.7191 11.3038 26.753 11.6359 26.6865 11.9563C26.62 12.2767 26.4561 12.5709 26.2154 12.8019C25.9747 13.0328 25.6681 13.19 25.3344 13.2537C25.0006 13.3173 24.6547 13.2846 24.3403 13.1595C24.026 13.0345 23.7573 12.8227 23.5682 12.5511C23.3792 12.2795 23.2783 11.9601 23.2783 11.6335C23.2783 11.4165 23.3229 11.2016 23.4094 11.0011C23.4959 10.8006 23.6228 10.6185 23.7826 10.4651C23.9425 10.3117 24.1323 10.19 24.3412 10.1071C24.5501 10.0241 24.774 9.98147 25 9.9816ZM25.043 29.0185H24.9121C23.44 29.0051 21.9803 28.7587 20.5918 28.2891L24.9697 19.6163L29.373 28.335C27.9779 28.787 26.5154 29.0178 25.043 29.0185Z" fill="#002438"/>
<path d="M7.98535 43.5188L12.0928 45.2775L8.24707 47.9335L7.98535 43.5188Z" fill="#002438"/>
<path d="M42.0146 43.5188L37.9072 45.2775L41.7529 47.9335L42.0146 43.5188Z" fill="#002438"/>
</svg>
