<svg width="50" height="48" viewBox="0 0 50 48" fill="none" xmlns="http://www.w3.org/2000/svg">
<g clip-path="url(#clip0_3167_1238)">
<path d="M44.1772 4.36604C44.1768 4.35886 44.1768 4.35166 44.1772 4.34448L40.1294 4.51886C40.1226 5.27542 40.1841 6.03479 40.2271 6.79042C40.395 9.75292 39.6489 10.7129 36.6606 11.3654C35.7417 11.566 34.8052 11.732 33.9165 12.0217C29.894 13.3342 27.9653 16.7148 28.9038 20.7648L32.7642 20.0692C32.7642 19.891 32.7642 19.471 32.769 19.052C32.8062 17.0476 33.4683 16.1757 35.481 15.6123C36.5435 15.3151 37.6499 15.1689 38.7105 14.8623C42.4009 13.7982 44.2222 11.4873 44.2886 7.78698C44.3081 6.64792 44.1489 5.50604 44.1772 4.36604Z" fill="#002438"/>
<path d="M33.4013 1.9534L31.7598 4.53809L35.5169 6.73714L37.1584 4.15245L33.4013 1.9534Z" fill="#002438"/>
<path d="M49.4717 13.4128H46.3184V17.6372H49.4717V13.4128Z" fill="#002438"/>
<path d="M14.0939 5.92397L10.6777 8.20361L12.4751 10.6859L15.8913 8.40626L14.0939 5.92397Z" fill="#002438"/>
<path d="M40.4721 35.7579L37.7412 37.2715L39.9292 40.9096L42.6601 39.396L40.4721 35.7579Z" fill="#002438"/>
<path d="M38.5547 18.6511L37.3398 21.4446L41.5051 23.114L42.7199 20.3205L38.5547 18.6511Z" fill="#002438"/>
<path d="M28.252 27.6637C28.252 27.6637 30.6777 26.6906 30.75 26.6634C29.5912 24.9469 28.2443 23.3544 26.7324 21.9131C25.8255 21.0407 24.8634 20.2229 23.8516 19.4644V19.47V19.4756V19.4812L22.4434 21.7059C23.2314 22.3331 24.0244 23.025 24.8047 23.774C26.062 24.9785 27.2149 26.2793 28.252 27.6637Z" fill="#002438"/>
<path d="M30.8595 32.5312C31.1905 33.765 31.0968 34.7484 30.4991 35.3222C28.752 36.9994 23.3653 34.5478 18.4678 29.8453C13.5704 25.1428 11.0157 19.9725 12.7628 18.2953C13.6661 17.4281 15.544 17.6653 17.8233 18.7472C17.8233 18.7472 18.8263 17.0437 19.0255 16.5965C15.4874 15.0394 12.3214 14.8865 10.627 16.5103C10.1426 16.9847 9.79666 17.5732 9.6241 18.2165L9.35164 18.9722C9.32527 19.0331 9.29988 19.095 9.27742 19.1597L0.218825 44.1797C-0.552659 46.3106 1.31843 48.1069 3.53914 47.3672L29.5997 38.6672L30.7198 38.2922C31.3366 38.1187 31.8989 37.8011 32.3565 37.3678C33.6397 36.1369 33.8575 34.0865 33.1798 31.6903C32.6329 31.8459 30.8595 32.5312 30.8595 32.5312Z" fill="#002438"/>
<path d="M20.4199 23.2753L17.0664 21.075C17.0879 21.0441 19.2842 17.9466 20.5635 15.2728C21.9141 12.4509 21.9834 7.2525 18.9453 2.50594L22.4063 0.46875C26.2471 6.46875 26.1025 13.0463 24.2559 16.9059C22.8301 19.8797 20.5186 23.1384 20.4199 23.2753Z" fill="#002438"/>
<path d="M26.1465 29.4121L27.9629 32.9005L27.0508 31.1559L27.958 32.9005C27.9932 32.8846 31.4873 31.213 34.4209 30.3618C37.5166 29.4599 42.8916 30.1002 47.377 33.6346L49.9541 30.6196C44.2891 26.1562 37.4795 25.3968 33.2461 26.6296C29.9805 27.5812 26.3018 29.3371 26.1465 29.4121Z" fill="#002438"/>
</g>
<defs>
<clipPath id="clip0_3167_1238">
<rect width="50" height="48" fill="white"/>
</clipPath>
</defs>
</svg>
