<svg width="50" height="48" viewBox="0 0 50 48" fill="none" xmlns="http://www.w3.org/2000/svg">
<path d="M38.5195 11.1365V28.2383H16.3506L12.8867 32.038V34.2233H34.5605L43.7646 44.1993V34.2233H50V11.1365H38.5195Z" fill="#002438"/>
<path d="M15.5381 26.8874H37.2119V3.80054H0V26.8874H6.23535V36.8633L15.5381 26.8874ZM27.8096 12.2558C28.4165 12.2557 29.0098 12.4283 29.5145 12.7518C30.0192 13.0754 30.4127 13.5354 30.6451 14.0736C30.8774 14.6118 30.9383 15.2041 30.8201 15.7756C30.7018 16.347 30.4096 16.872 29.9805 17.284C29.5515 17.6961 29.0047 17.9767 28.4095 18.0904C27.8143 18.2042 27.1973 18.1459 26.6366 17.923C26.0758 17.7 25.5966 17.3225 25.2594 16.8381C24.9222 16.3536 24.7422 15.7841 24.7422 15.2015C24.7422 14.4204 25.0653 13.6713 25.6405 13.1189C26.2158 12.5665 26.996 12.2561 27.8096 12.2558ZM18.6055 12.2558C19.2124 12.2557 19.8057 12.4283 20.3104 12.7518C20.8151 13.0754 21.2086 13.5354 21.441 14.0736C21.6733 14.6118 21.7342 15.2041 21.616 15.7756C21.4977 16.347 21.2055 16.872 20.7764 17.284C20.3474 17.6961 19.8006 17.9767 19.2054 18.0904C18.6102 18.2042 17.9932 18.1459 17.4325 17.923C16.8717 17.7 16.3925 17.3225 16.0553 16.8381C15.7181 16.3536 15.5381 15.7841 15.5381 15.2015C15.5381 14.4204 15.8612 13.6713 16.4364 13.1189C17.0117 12.5665 17.7919 12.2561 18.6055 12.2558ZM9.30273 12.2558C9.90964 12.2557 10.503 12.4283 11.0077 12.7518C11.5124 13.0754 11.9058 13.5354 12.1382 14.0736C12.3706 14.6118 12.4315 15.2041 12.3132 15.7756C12.1949 16.347 11.9028 16.872 11.4737 17.284C11.0446 17.6961 10.4979 17.9767 9.90268 18.0904C9.30745 18.2042 8.69045 18.1459 8.12973 17.923C7.569 17.7 7.08973 17.3225 6.75253 16.8381C6.41533 16.3536 6.23535 15.7841 6.23535 15.2015C6.23535 14.4204 6.55849 13.6713 7.13371 13.1189C7.70893 12.5665 8.48912 12.2561 9.30273 12.2558Z" fill="#002438"/>
</svg>
