<svg width="48" height="48" viewBox="0 0 48 48" fill="none" xmlns="http://www.w3.org/2000/svg">
<path d="M17.8581 3.33667H7.27934L1.16309 7.96417L6.13559 12.3845V15.3198H12.4618V12.4998L17.8581 8.62605V3.33667Z" fill="#002438"/>
<path d="M22.4521 3.88867H19.3115V8.01648H22.4521V3.88867Z" fill="#002438"/>
<path d="M14.3867 13.2478L17.3623 10.9331C17.3623 10.9331 18.2717 15.2315 18.6842 15.8925C19.0967 16.5534 20.172 18.2887 20.172 18.2887L19.1802 19.1981L14.3867 13.2478Z" fill="#002438"/>
<path d="M25.466 6.8072C26.0593 6.8072 26.5404 6.32618 26.5404 5.73282C26.5404 5.13946 26.0593 4.65845 25.466 4.65845C24.8726 4.65845 24.3916 5.13946 24.3916 5.73282C24.3916 6.32618 24.8726 6.8072 25.466 6.8072Z" fill="#002438"/>
<path d="M29.1857 4.59748C29.7791 4.59748 30.2601 4.11647 30.2601 3.52311C30.2601 2.92974 29.7791 2.44873 29.1857 2.44873C28.5923 2.44873 28.1113 2.92974 28.1113 3.52311C28.1113 4.11647 28.5923 4.59748 29.1857 4.59748Z" fill="#002438"/>
<path d="M29.1857 9.12556C29.7791 9.12556 30.2601 8.64454 30.2601 8.05118C30.2601 7.45782 29.7791 6.97681 29.1857 6.97681C28.5923 6.97681 28.1113 7.45782 28.1113 8.05118C28.1113 8.64454 28.5923 9.12556 29.1857 9.12556Z" fill="#002438"/>
<path d="M44.8619 27.0094L36.6063 18.75C35.3378 17.4874 33.6209 16.7786 31.8311 16.7786C30.0414 16.7786 28.3244 17.4874 27.056 18.75L25.016 20.791C23.7513 22.0584 23.041 23.7757 23.041 25.5661C23.041 27.3566 23.7513 29.0739 25.016 30.3413L33.2707 38.596C34.5391 39.8586 36.256 40.5675 38.0458 40.5675C39.8356 40.5675 41.5525 39.8586 42.821 38.596L44.8619 36.5625C46.1272 35.2949 46.8379 33.577 46.8379 31.786C46.8379 29.9949 46.1272 28.277 44.8619 27.0094ZM26.3369 25.2282C26.1688 25.0599 26.0543 24.8456 26.0079 24.6123C25.9616 24.379 25.9854 24.1372 26.0765 23.9174C26.1676 23.6977 26.3217 23.5099 26.5195 23.3778C26.7173 23.2456 26.9498 23.1751 27.1877 23.1751C27.4255 23.1751 27.6581 23.2456 27.8559 23.3778C28.0536 23.5099 28.2078 23.6977 28.2989 23.9174C28.3899 24.1372 28.4138 24.379 28.3674 24.6123C28.3211 24.8456 28.2066 25.0599 28.0385 25.2282C27.9268 25.34 27.7942 25.4288 27.6482 25.4894C27.5022 25.5499 27.3457 25.5811 27.1877 25.5811C27.0296 25.5811 26.8731 25.5499 26.7271 25.4894C26.5811 25.4288 26.4485 25.34 26.3369 25.2282ZM29.321 30.6169C29.1528 30.7852 28.9385 30.8998 28.7051 30.9463C28.4718 30.9927 28.2299 30.9689 28.0101 30.8779C27.7903 30.7869 27.6024 30.6327 27.4702 30.4349C27.338 30.2371 27.2674 30.0045 27.2674 29.7666C27.2674 29.5287 27.338 29.2961 27.4702 29.0983C27.6024 28.9005 27.7903 28.7463 28.0101 28.6553C28.2299 28.5643 28.4718 28.5405 28.7051 28.5869C28.9385 28.6334 29.1528 28.748 29.321 28.9163C29.4327 29.0279 29.5214 29.1605 29.5818 29.3064C29.6423 29.4523 29.6734 29.6087 29.6734 29.7666C29.6734 29.9245 29.6423 30.0809 29.5818 30.2268C29.5214 30.3727 29.4327 30.5053 29.321 30.6169ZM30.6082 20.6513C30.4399 20.4831 30.3253 20.2688 30.2788 20.0354C30.2323 19.8021 30.2561 19.5602 30.3472 19.3404C30.4382 19.1206 30.5923 18.9327 30.7902 18.8005C30.988 18.6683 31.2205 18.5978 31.4585 18.5978C31.6964 18.5978 31.929 18.6683 32.1268 18.8005C32.3246 18.9327 32.4788 19.1206 32.5698 19.3404C32.6608 19.5602 32.6846 19.8021 32.6381 20.0354C32.5917 20.2688 32.4771 20.4831 32.3088 20.6513C32.1972 20.763 32.0646 20.8517 31.9187 20.9122C31.7728 20.9726 31.6164 21.0038 31.4585 21.0038C31.3005 21.0038 31.1441 20.9726 30.9982 20.9122C30.8523 20.8517 30.7198 20.763 30.6082 20.6513ZM32.2441 26.2857C32.0759 26.1174 31.9615 25.9031 31.9151 25.6698C31.8688 25.4365 31.8926 25.1947 31.9837 24.9749C32.0747 24.7552 32.2289 24.5674 32.4267 24.4353C32.6245 24.3031 32.857 24.2326 33.0949 24.2326C33.3327 24.2326 33.5653 24.3031 33.763 24.4353C33.9608 24.5674 34.115 24.7552 34.2061 24.9749C34.2971 25.1947 34.321 25.4365 34.2746 25.6698C34.2283 25.9031 34.1138 26.1174 33.9457 26.2857C33.834 26.3974 33.7013 26.4861 33.5553 26.5466C33.4094 26.6071 33.2529 26.6382 33.0949 26.6382C32.9369 26.6382 32.7804 26.6071 32.6344 26.5466C32.4884 26.4861 32.3558 26.3974 32.2441 26.2857ZM33.6363 31.0829C33.6726 30.8478 33.7779 30.6287 33.9387 30.4534C34.0995 30.2782 34.3087 30.1545 34.5399 30.0981C34.771 30.0417 35.0136 30.0551 35.2371 30.1366C35.4606 30.2182 35.6549 30.3641 35.7954 30.556C35.936 30.748 36.0164 30.9773 36.0267 31.2149C36.0369 31.4526 35.9764 31.688 35.8529 31.8913C35.7293 32.0946 35.5483 32.2567 35.3326 32.3571C35.117 32.4575 34.8764 32.4917 34.6413 32.4554C34.4852 32.4312 34.3353 32.3766 34.2003 32.2946C34.0653 32.2125 33.9478 32.1047 33.8545 31.9773C33.7612 31.8498 33.6939 31.7052 33.6564 31.5518C33.619 31.3983 33.6121 31.239 33.6363 31.0829ZM36.6625 37.4185C36.6262 37.6535 36.521 37.8726 36.3602 38.0479C36.1995 38.2231 35.9903 38.3468 35.7593 38.4033C35.5282 38.4597 35.2856 38.4464 35.0621 38.365C34.8386 38.2836 34.6443 38.1377 34.5037 37.9459C34.3631 37.754 34.2825 37.5248 34.2721 37.2872C34.2618 37.0495 34.3221 36.8142 34.4455 36.6108C34.5689 36.4075 34.7498 36.2453 34.9654 36.1447C35.181 36.0442 35.4215 36.0098 35.6566 36.046C35.9719 36.0947 36.255 36.2666 36.4436 36.524C36.6323 36.7814 36.711 37.1031 36.6625 37.4185ZM38.2 24.6235C37.9619 24.6237 37.729 24.5532 37.5309 24.421C37.3328 24.2888 37.1784 24.1008 37.0871 23.8808C36.9959 23.6608 36.972 23.4187 37.0184 23.1851C37.0648 22.9515 37.1795 22.737 37.3479 22.5685C37.5163 22.4001 37.7309 22.2855 37.9645 22.2391C38.1981 22.1926 38.4402 22.2166 38.6602 22.3078C38.8802 22.399 39.0682 22.5534 39.2004 22.7515C39.3326 22.9496 39.403 23.1825 39.4028 23.4207C39.4026 23.7396 39.2758 24.0454 39.0503 24.2709C38.8248 24.4964 38.519 24.6232 38.2 24.6235ZM39.0635 28.92C39.0633 28.6819 39.1337 28.449 39.2659 28.2509C39.3981 28.0528 39.5861 27.8984 39.8061 27.8072C40.0261 27.7159 40.2682 27.692 40.5018 27.7384C40.7354 27.7849 40.95 27.8995 41.1184 28.0679C41.2868 28.2363 41.4015 28.4509 41.4479 28.6845C41.4943 28.9181 41.4704 29.1602 41.3792 29.3802C41.2879 29.6002 41.1335 29.7882 40.9354 29.9204C40.7373 30.0526 40.5044 30.123 40.2663 30.1229C39.9473 30.1226 39.6416 29.9958 39.416 29.7703C39.1905 29.5448 39.0637 29.239 39.0635 28.92ZM40.6235 37.9032C40.3856 37.9032 40.153 37.8326 39.9552 37.7005C39.7574 37.5683 39.6032 37.3804 39.5122 37.1606C39.4212 36.9409 39.3974 36.699 39.4438 36.4657C39.4902 36.2324 39.6047 36.0181 39.7729 35.8498C39.9412 35.6816 40.1555 35.5671 40.3888 35.5207C40.6221 35.4742 40.864 35.4981 41.0838 35.5891C41.3035 35.6801 41.4914 35.8343 41.6236 36.0321C41.7557 36.2299 41.8263 36.4625 41.8263 36.7004C41.8263 37.0194 41.6996 37.3253 41.474 37.5509C41.2484 37.7764 40.9425 37.9032 40.6235 37.9032ZM44.2666 33.6722C44.0284 33.6726 43.7954 33.6023 43.5972 33.4702C43.399 33.3381 43.2444 33.1502 43.153 32.9302C43.0617 32.7102 43.0376 32.4681 43.0839 32.2344C43.1302 32.0008 43.2448 31.7861 43.4132 31.6176C43.5816 31.4491 43.7961 31.3344 44.0298 31.2879C44.2634 31.2414 44.5055 31.2653 44.7256 31.3564C44.9456 31.4476 45.1337 31.6021 45.2659 31.8002C45.3982 31.9983 45.4686 32.2312 45.4685 32.4694C45.4686 32.6273 45.4376 32.7837 45.3772 32.9296C45.3169 33.0756 45.2284 33.2082 45.1168 33.3199C45.0052 33.4316 44.8726 33.5202 44.7267 33.5807C44.5809 33.6411 44.4245 33.6722 44.2666 33.6722Z" fill="#002438"/>
<path d="M32.9045 6.72932C33.4978 6.72932 33.9788 6.2483 33.9788 5.65494C33.9788 5.06158 33.4978 4.58057 32.9045 4.58057C32.3111 4.58057 31.8301 5.06158 31.8301 5.65494C31.8301 6.2483 32.3111 6.72932 32.9045 6.72932Z" fill="#002438"/>
<path d="M32.9045 2.26594C33.4978 2.26594 33.9788 1.78492 33.9788 1.19156C33.9788 0.598202 33.4978 0.117188 32.9045 0.117188C32.3111 0.117188 31.8301 0.598202 31.8301 1.19156C31.8301 1.78492 32.3111 2.26594 32.9045 2.26594Z" fill="#002438"/>
<path d="M32.9045 11.2574C33.4978 11.2574 33.9788 10.7764 33.9788 10.183C33.9788 9.58966 33.4978 9.10864 32.9045 9.10864C32.3111 9.10864 31.8301 9.58966 31.8301 10.183C31.8301 10.7764 32.3111 11.2574 32.9045 11.2574Z" fill="#002438"/>
<path d="M14.9651 25.7335V19.8657L12.5689 17.0532H5.79168L1.65918 25.7335V43.757L1.75762 43.6585L5.98199 47.8829H18.4039L22.6282 43.6585L22.6517 43.682V33.7501L14.9651 25.7335ZM12.0936 44.1264C8.38387 44.1264 5.3773 41.7826 5.3773 38.896C5.3773 36.0095 8.38387 33.6648 12.0936 33.6648C15.8032 33.6648 18.8098 36.0085 18.8098 38.896C18.8098 41.7835 15.8061 44.1264 12.0936 44.1264Z" fill="#002438"/>
</svg>
