<svg width="51" height="48" viewBox="0 0 51 48" fill="none" xmlns="http://www.w3.org/2000/svg">
<g clip-path="url(#clip0_3167_1243)">
<path d="M50.3691 29.5219V47.941H45.4215V40.4597H6.05986V47.941H1.11426V21.3872H6.05986V35.806H20.1207V27.9094C20.121 27.6075 20.2486 27.318 20.4755 27.1046C20.7025 26.8911 21.0102 26.7713 21.331 26.7713H47.4486C48.2233 26.7718 48.9662 27.0618 49.5138 27.5776C50.0615 28.0934 50.3691 28.7927 50.3691 29.5219Z" fill="#002438"/>
<path d="M13.282 34.6642C15.9149 34.6642 18.0493 32.8979 18.0493 30.7192C18.0493 28.5404 15.9149 26.7742 13.282 26.7742C10.649 26.7742 8.51465 28.5404 8.51465 30.7192C8.51465 32.8979 10.649 34.6642 13.282 34.6642Z" fill="#002438"/>
<path d="M48.7795 18.0928L25.4998 4.73908L2.22008 18.0928L0.0107422 14.6803L25.4998 0.059082L50.9888 14.6803L48.7795 18.0928Z" fill="#002438"/>
</g>
<defs>
<clipPath id="clip0_3167_1243">
<rect width="51" height="48" fill="white"/>
</clipPath>
</defs>
</svg>
