<svg width="51" height="48" viewBox="0 0 51 48" fill="none" xmlns="http://www.w3.org/2000/svg">
<path d="M13.785 18.676L13.0429 29.9832H11.6663V41.9457H2.16459V29.9832H0.787988L0.0458984 18.676L3.8948 16.9998C4.78015 17.5254 5.80417 17.8072 6.85093 17.8134C7.89768 17.8195 8.92535 17.5497 9.81758 17.0344L13.785 18.676Z" fill="#002438"/>
<path d="M11.3551 11.0841C11.3551 13.8582 9.35293 16.1101 6.88461 16.1101C4.41629 16.1101 2.41016 13.8601 2.41016 11.0841C2.41016 8.30819 4.4123 6.05444 6.88461 6.05444C9.35691 6.05444 11.3551 8.30632 11.3551 11.0841Z" fill="#002438"/>
<path d="M50.954 18.676L50.2119 29.9832H48.8353V41.9457H39.3335V29.9832H37.9569L37.2148 18.676L41.0638 16.9998C41.9493 17.5254 42.9735 17.8072 44.0204 17.8133C45.0673 17.8195 46.0951 17.5496 46.9875 17.0344L50.954 18.676Z" fill="#002438"/>
<path d="M48.5289 11.0841C48.5289 13.8582 46.5268 16.1101 44.0594 16.1101C41.5921 16.1101 39.584 13.8601 39.584 11.0841C39.584 8.30819 41.5861 6.05444 44.0594 6.05444C46.5327 6.05444 48.5289 8.30632 48.5289 11.0841Z" fill="#002438"/>
<path d="M31.1946 28.1016V25.2141H19.8053V28.1016L14.8447 24L19.8053 19.8984V22.7859H31.1946V19.8984L36.1552 24L31.1946 28.1016Z" fill="#002438"/>
</svg>
