<svg width="49" height="48" viewBox="0 0 49 48" fill="none" xmlns="http://www.w3.org/2000/svg">
<g clip-path="url(#clip0_3167_1244)">
<path d="M0.153672 34.6763L0.123047 47.1094H48.8761V34.6763H0.153672Z" fill="#002438"/>
<path d="M46.8164 21.2259H36.5369L40.2368 5.06244L38.7601 5.71212C37.2783 6.31806 35.7353 6.76869 34.1568 7.0565C29.9898 7.8065 27.6375 6.90275 26.3991 6.01306C26.0009 5.73181 25.6076 5.40744 25.1903 5.06806C22.5862 2.94837 19.3381 0.310248 9.70461 1.004L8.76385 1.0715L13.4265 21.2277H2.24838L0.15918 32.6952V32.804H48.8769V32.6952L46.8164 21.2259ZM19.4903 3.46869C21.6072 4.21869 22.9011 5.27337 24.1529 6.2915C24.5893 6.64587 25.0018 6.9815 25.4382 7.29462C27.1408 8.51806 29.2175 8.93056 31.2445 8.93056C33.8792 8.93056 36.4307 8.23306 37.9667 7.71181L33.5921 26.8293H16.3885L10.7669 2.53119C14.3453 2.35025 17.2068 2.65869 19.4903 3.46869ZM35.1923 30.0796H13.8084V28.4859H35.1923V30.0796Z" fill="#002438"/>
</g>
<defs>
<clipPath id="clip0_3167_1244">
<rect width="49" height="48" fill="white"/>
</clipPath>
</defs>
</svg>
