<svg width="50" height="48" viewBox="0 0 50 48" fill="none" xmlns="http://www.w3.org/2000/svg">
<path d="M38.498 3.62433C38.142 3.62451 37.794 3.52333 37.4979 3.33359C37.2018 3.14385 36.9709 2.87407 36.8345 2.55837C36.6982 2.24267 36.6624 1.89523 36.7317 1.56001C36.8011 1.22479 36.9724 0.916831 37.2241 0.675098C37.4757 0.433365 37.7964 0.268714 38.1456 0.20197C38.4947 0.135226 38.8567 0.169388 39.1856 0.300134C39.5145 0.430881 39.7957 0.652338 39.9935 0.936496C40.1913 1.22065 40.2969 1.55474 40.2969 1.89651C40.2964 2.35444 40.1067 2.79349 39.7695 3.11738C39.4323 3.44128 38.9751 3.62358 38.498 3.62433ZM38.498 0.881202C38.2889 0.881202 38.0844 0.940749 37.9105 1.05231C37.7365 1.16388 37.601 1.32245 37.5209 1.50797C37.4409 1.69349 37.4199 1.89764 37.4608 2.09459C37.5016 2.29154 37.6023 2.47245 37.7502 2.61445C37.8981 2.75644 38.0866 2.85314 38.2917 2.89232C38.4969 2.93149 38.7095 2.91139 38.9028 2.83454C39.096 2.75769 39.2612 2.62756 39.3774 2.46059C39.4936 2.29362 39.5557 2.09732 39.5557 1.89651C39.5554 1.62731 39.4439 1.36921 39.2456 1.17885C39.0473 0.9885 38.7785 0.88145 38.498 0.881202Z" fill="#002438"/>
<path d="M41.8311 9.07685C41.3368 9.07593 40.8539 8.93438 40.4435 8.6701C40.033 8.40582 39.7133 8.03067 39.5248 7.59205C39.3364 7.15343 39.2876 6.67101 39.3846 6.20577C39.4816 5.74052 39.7201 5.31332 40.0699 4.97815C40.4197 4.64297 40.8652 4.41486 41.35 4.32263C41.8348 4.2304 42.3372 4.27821 42.7938 4.45999C43.2503 4.64178 43.6405 4.9494 43.9149 5.34397C44.1894 5.73855 44.3359 6.20238 44.3359 6.67685C44.3352 7.31396 44.0708 7.92468 43.6011 8.37474C43.1314 8.8248 42.4947 9.07735 41.8311 9.07685ZM41.8311 4.98841C41.4834 4.98841 41.1435 5.08738 40.8545 5.27281C40.5654 5.45823 40.3401 5.72179 40.207 6.03014C40.074 6.33849 40.0392 6.67779 40.107 7.00513C40.1748 7.33247 40.3423 7.63316 40.5881 7.86916C40.8339 8.10516 41.1471 8.26588 41.4881 8.33099C41.8291 8.3961 42.1825 8.36268 42.5037 8.23496C42.8249 8.10724 43.0995 7.89095 43.2926 7.61344C43.4858 7.33593 43.5889 7.00967 43.5889 6.67591C43.5889 6.22836 43.4037 5.79914 43.074 5.48267C42.7444 5.1662 42.2973 4.98841 41.8311 4.98841Z" fill="#002438"/>
<path d="M31.9111 7.2113C31.4164 7.21148 30.9328 7.07083 30.5214 6.80712C30.11 6.54342 29.7893 6.16851 29.5998 5.72981C29.4104 5.29111 29.3607 4.80834 29.4571 4.34254C29.5535 3.87674 29.7916 3.44885 30.1414 3.11297C30.4911 2.7771 30.9367 2.54834 31.4219 2.45563C31.9071 2.36291 32.41 2.4104 32.867 2.5921C33.3241 2.77379 33.7147 3.08152 33.9896 3.47638C34.2644 3.87123 34.4111 4.33546 34.4111 4.81036C34.4104 5.44674 34.1467 6.05685 33.6781 6.50693C33.2095 6.957 32.574 7.21031 31.9111 7.2113ZM31.9111 3.12286C31.5635 3.12286 31.2236 3.22183 30.9345 3.40726C30.6455 3.59268 30.4202 3.85623 30.2871 4.16458C30.1541 4.47293 30.1193 4.81223 30.1871 5.13958C30.2549 5.46692 30.4223 5.7676 30.6682 6.00361C30.914 6.23961 31.2272 6.40032 31.5682 6.46544C31.9092 6.53055 32.2626 6.49713 32.5838 6.36941C32.905 6.24169 33.1796 6.02539 33.3727 5.74789C33.5659 5.47038 33.6689 5.14412 33.6689 4.81036C33.6689 4.36281 33.4837 3.93359 33.1541 3.61712C32.8244 3.30065 32.3773 3.12286 31.9111 3.12286Z" fill="#002438"/>
<path d="M37.5449 37.3331C37.189 37.3331 36.841 37.2317 36.545 37.0419C36.249 36.852 36.0183 36.5822 35.8821 36.2665C35.7459 35.9507 35.7103 35.6033 35.7797 35.2682C35.8491 34.933 36.0206 34.6251 36.2723 34.3835C36.524 34.1419 36.8447 33.9773 37.1938 33.9106C37.5429 33.844 37.9048 33.8782 38.2337 34.009C38.5625 34.1397 38.8436 34.3612 39.0414 34.6453C39.2392 34.9295 39.3447 35.2635 39.3447 35.6053C39.3442 36.0633 39.1544 36.5025 38.817 36.8265C38.4796 37.1504 38.0221 37.3326 37.5449 37.3331ZM37.5449 34.5899C37.3355 34.5898 37.1307 34.6492 36.9564 34.7608C36.7822 34.8724 36.6464 35.0311 36.5661 35.2169C36.4859 35.4026 36.4648 35.607 36.5056 35.8042C36.5465 36.0014 36.6473 36.1826 36.7954 36.3248C36.9435 36.467 37.1322 36.5638 37.3377 36.603C37.5431 36.6421 37.756 36.6219 37.9495 36.5449C38.143 36.4679 38.3083 36.3375 38.4245 36.1702C38.5408 36.0029 38.6027 35.8063 38.6025 35.6053C38.6013 35.3367 38.4893 35.0796 38.2911 34.89C38.0929 34.7005 37.8247 34.5939 37.5449 34.5937V34.5899Z" fill="#002438"/>
<path d="M26.7412 46.8121C26.3852 46.8121 26.0372 46.7107 25.7412 46.5208C25.4452 46.3309 25.2145 46.061 25.0783 45.7452C24.9421 45.4295 24.9065 45.082 24.9761 44.7468C25.0456 44.4116 25.2171 44.1038 25.4689 43.8622C25.7207 43.6206 26.0415 43.4561 26.3907 43.3895C26.7399 43.323 27.1018 43.3573 27.4306 43.4882C27.7595 43.6192 28.0405 43.8408 28.2382 44.125C28.4358 44.4093 28.5412 44.7434 28.541 45.0852C28.5405 45.5432 28.3507 45.9823 28.0132 46.3061C27.6758 46.6298 27.2183 46.8118 26.7412 46.8121ZM26.7412 44.0699C26.532 44.0699 26.3276 44.1294 26.1536 44.241C25.9797 44.3526 25.8441 44.5111 25.7641 44.6967C25.6841 44.8822 25.6631 45.0863 25.7039 45.2833C25.7447 45.4802 25.8455 45.6611 25.9934 45.8031C26.1413 45.9451 26.3297 46.0418 26.5349 46.081C26.74 46.1202 26.9527 46.1001 27.1459 46.0232C27.3392 45.9464 27.5044 45.8162 27.6206 45.6493C27.7368 45.4823 27.7988 45.286 27.7988 45.0852C27.7986 44.816 27.6871 44.5579 27.4888 44.3675C27.2905 44.1772 27.0216 44.0701 26.7412 44.0699Z" fill="#002438"/>
<path d="M18.75 18.3891L21.7773 14.6682L17.0566 16.7813C17.1543 16.846 17.2441 16.9116 17.3359 16.9801C17.8733 17.3843 18.3493 17.8585 18.75 18.3891Z" fill="#002438"/>
<path d="M41.6016 13.1945C41.681 13.3184 41.7191 13.4627 41.7107 13.6079C41.7024 13.7532 41.6479 13.8926 41.5547 14.0073L40.0254 15.8823L44.7734 13.757L46.5029 12.9836C46.3834 11.6473 45.7749 10.3948 44.7852 9.44824L40.6182 11.3157L40.0742 11.5595C40.6782 12.0154 41.195 12.5687 41.6016 13.1945Z" fill="#002438"/>
<path d="M40.3008 16.546C41.4242 17.0749 42.3713 17.8949 43.0352 18.9132C43.1018 19.0168 43.1395 19.1351 43.1446 19.2568C43.1498 19.3785 43.1222 19.4994 43.0645 19.6078L43.3496 19.4803L46.3457 18.1388C46.2261 16.8041 45.6179 15.5532 44.6289 14.6082L40.3008 16.546Z" fill="#002438"/>
<path d="M4.78536 26.9643C4.90059 26.8021 5.02071 26.6408 5.14864 26.4843L13.7531 15.9252C13.8227 15.8399 13.9116 15.7709 14.0132 15.7236C14.1147 15.6763 14.2262 15.652 14.3391 15.6524C14.405 15.6526 14.4707 15.6611 14.5344 15.6777L14.7727 15.7405C15.3066 15.8822 15.822 16.082 16.3088 16.3358L22.7893 13.4296L23.0393 13.123L23.4826 12.5783C23.1992 11.2767 22.4964 10.0937 21.4738 9.19677L21.2893 9.03833L8.63204 14.7036C6.49689 15.6626 4.84529 17.3956 4.03971 19.5224C3.23413 21.6491 3.34039 23.9958 4.33516 26.0474L4.78536 26.9643Z" fill="#002438"/>
<path d="M43.2101 20.3297L42.0822 20.8351L37.0246 27.0422C36.8509 26.8724 36.6609 26.7185 36.4572 26.5829L40.5997 21.4988L42.4015 19.2872C42.3185 19.1579 42.2296 19.0332 42.1359 18.9122C42.1301 18.9054 42.1249 18.8982 42.1203 18.8907C42.0285 18.7738 41.9324 18.6604 41.8322 18.5504C41.8234 18.5401 41.8146 18.5297 41.8048 18.5204C41.7072 18.4126 41.6017 18.3094 41.4933 18.2091L41.4601 18.1782C41.3514 18.0788 41.2391 17.9851 41.1232 17.8969L41.089 17.8697C40.9718 17.7791 40.8507 17.6926 40.7257 17.6101L40.6945 17.5894C40.5675 17.5069 40.4367 17.4291 40.3038 17.356L40.2794 17.3429C40.1427 17.2688 40.0031 17.1994 39.8605 17.1366L39.8468 17.131C39.7003 17.0685 39.5512 17.0097 39.3996 16.9547C39.3351 16.9322 39.2697 16.9097 39.2042 16.8901L39.0089 17.1291L33.4962 23.8885L32.4835 25.1316L29.3009 29.0372L28.715 28.5985L28.8361 28.4494L38.9249 16.0744L40.963 13.5741C40.9132 13.4972 40.8605 13.4213 40.8078 13.3463L40.7579 13.2807C40.7189 13.2272 40.6798 13.1747 40.6388 13.1232C40.6203 13.1007 40.6007 13.0782 40.5822 13.0547C40.5402 13.0041 40.4982 12.9535 40.4542 12.9047L40.4015 12.8447C40.3527 12.7913 40.3038 12.7388 40.2511 12.6863L40.2111 12.6451C40.1466 12.5804 40.0802 12.5176 40.0158 12.4576C39.5773 12.0585 39.0781 11.7259 38.5353 11.4713C38.4181 11.4169 38.2999 11.3663 38.1798 11.3194L38.1281 11.2997C38.0099 11.2547 37.8908 11.2116 37.7697 11.1741L36.9494 12.181L35.9376 13.4138L30.4249 20.1788L29.4132 21.421L25.5275 26.1901L25.5216 26.1966L24.9357 25.7579L27.9259 22.0885L28.9376 20.8472L32.1681 16.8826L35.4601 12.8438L37.4894 10.3538L38.672 8.90631C38.6007 8.79568 38.5236 8.68787 38.4445 8.58287C38.4328 8.56693 38.422 8.551 38.4103 8.536C38.3322 8.43381 38.2492 8.33443 38.1642 8.23787C38.1525 8.22475 38.1408 8.21068 38.1281 8.19756C38.0382 8.09725 37.9454 8.00068 37.8488 7.90693C37.7453 7.80662 37.6378 7.711 37.5265 7.61818C36.9277 7.11879 36.2302 6.74032 35.4757 6.50537L32.6437 9.98068L27.3576 16.4691L26.3458 17.7104L21.7033 23.4001L21.1173 22.9613L21.1583 22.9107L31.7052 9.96381C30.8623 8.92199 29.7634 8.09707 28.507 7.56287L23.6163 13.5629L23.257 14.0035L11.4621 28.5001L10.8761 28.0613L18.2697 18.9788C17.8865 18.4342 17.4166 17.9508 16.8771 17.5463C16.7794 17.4732 16.6818 17.4038 16.5792 17.3363L16.5675 17.3288C16.0986 17.0164 15.589 16.7642 15.0519 16.5788L14.9738 16.5526C14.84 16.5076 14.7052 16.4663 14.5675 16.4297L14.3302 16.3669L5.72768 26.9222C5.62351 27.0516 5.52357 27.1826 5.42787 27.3151L5.41615 27.3319C4.1308 29.1223 3.60511 31.3159 3.94625 33.4655C4.28739 35.6152 5.46968 37.559 7.25209 38.9007L19.1408 47.8304L24.8556 40.8169C24.8742 40.8366 24.8927 40.8572 24.9122 40.876C25.8755 41.8212 27.1902 42.3607 28.5675 42.376C28.749 42.8623 29.0734 43.2877 29.5015 43.6007C29.9296 43.9137 30.443 44.1008 30.9796 44.1394C31.0255 44.1394 31.0704 44.146 31.1154 44.1469C31.1329 44.1469 31.1486 44.1469 31.1662 44.1469H31.214C31.297 44.1469 31.38 44.1422 31.4621 44.1347H31.4835C31.6429 44.1201 31.8007 44.0925 31.9552 44.0522C32.5888 43.8842 33.1389 43.5042 33.506 42.9807C33.5148 42.9685 33.5226 42.9544 33.5324 42.9413C33.5685 42.8869 33.6046 42.8326 33.6369 42.7763C33.6691 42.7201 33.6886 42.6826 33.7121 42.6338C33.7238 42.6104 33.7374 42.5869 33.7492 42.5616C33.9722 42.0834 34.0448 41.553 33.958 41.0357C33.8713 40.5183 33.629 40.0366 33.2609 39.6497C33.8001 38.6252 33.9582 37.4546 33.7091 36.3319C33.8258 36.2529 33.9359 36.1651 34.0382 36.0694C34.1923 35.9239 34.328 35.7616 34.4425 35.5857C34.826 35.0497 34.9721 34.3894 34.8488 33.7501C34.8371 33.6722 34.8224 33.5954 34.8029 33.5176C35.5726 33.3989 36.2896 33.0676 36.8664 32.5641C37.4432 32.0607 37.8548 31.4069 38.0509 30.6826C38.1825 30.1947 38.2121 29.6867 38.1378 29.1878C38.0636 28.689 37.887 28.2092 37.6183 27.7763C37.5119 27.6071 37.392 27.446 37.2599 27.2944L44.922 23.8632C44.8033 22.5284 44.197 21.2769 43.2101 20.3297ZM28.464 41.6569C27.3253 41.6173 26.2458 41.1596 25.4484 40.3782C25.4054 40.3369 25.3654 40.2919 25.3244 40.2488L29.6427 34.9491C29.8216 35.4658 30.1662 35.915 30.6272 36.2323C31.0882 36.5495 31.6419 36.7186 32.2091 36.7154C32.4506 36.714 32.6909 36.6825 32.924 36.6216C32.9542 36.6132 32.9835 36.6019 33.0138 36.5935C33.1844 37.4826 33.06 38.4008 32.6583 39.2185C32.6349 39.2054 32.6134 39.1894 32.59 39.1772C32.1564 38.9408 31.6642 38.8213 31.1656 38.8314C30.667 38.8415 30.1806 38.9809 29.7577 39.2347C29.3349 39.4886 28.9914 39.8474 28.7637 40.2733C28.5359 40.6992 28.4324 41.1763 28.464 41.6541V41.6569ZM32.6408 42.8757C32.4188 43.0863 32.1496 43.2454 31.8537 43.3407C31.5579 43.436 31.2432 43.465 30.9338 43.4256C30.6245 43.3861 30.3286 43.2792 30.0689 43.1131C29.8093 42.9469 29.5926 42.7259 29.4357 42.4669C29.421 42.4407 29.4044 42.4154 29.3898 42.3882L29.3781 42.3638C29.3214 42.2531 29.2757 42.1376 29.2413 42.0188C29.1694 41.7688 29.1495 41.5076 29.1827 41.2501C29.2159 40.9927 29.3016 40.744 29.4349 40.5184C29.5682 40.2927 29.7465 40.0945 29.9596 39.935C30.1727 39.7755 30.4164 39.6579 30.6769 39.5888C30.8563 39.5413 31.0416 39.517 31.2277 39.5166C31.634 39.5149 32.0316 39.6302 32.3689 39.8477C32.7063 40.0651 32.9679 40.3747 33.1201 40.7364C33.2723 41.0981 33.3079 41.4953 33.2225 41.8767C33.137 42.258 32.9344 42.606 32.6408 42.8757ZM33.7453 35.3185C33.4861 35.632 33.1286 35.8568 32.7257 35.9597C32.232 36.0923 31.7038 36.0332 31.2551 35.7952C30.8064 35.5572 30.4732 35.1593 30.3273 34.6876C30.2802 34.5265 30.2569 34.3599 30.2579 34.1926L31.6769 32.4516H31.6867C31.8567 32.4078 32.032 32.3854 32.2081 32.3851C32.5434 32.3851 32.873 32.4671 33.1662 32.6232C33.3867 32.7382 33.5813 32.8941 33.7385 33.082C33.8958 33.2698 34.0126 33.4857 34.0822 33.7172C34.0958 33.7641 34.1056 33.811 34.1154 33.8588C34.1937 34.3723 34.0598 34.8948 33.7423 35.3147L33.7453 35.3185ZM37.3361 30.5082C37.1661 31.1332 36.7993 31.6926 36.2858 32.1101C35.7723 32.5275 35.1371 32.7827 34.4669 32.8407C34.2299 32.4986 33.9103 32.2165 33.5353 32.0185C33.1555 31.8151 32.7307 31.7017 32.296 31.6876L35.0831 28.2676L35.9992 27.1426C36.556 27.5016 36.9832 28.0174 37.2221 28.6191C37.461 29.2208 37.4998 29.8788 37.3331 30.5026L37.3361 30.5082Z" fill="#002438"/>
<path d="M39.3662 11.0907L39.7988 10.8966C39.6892 10.3463 39.5176 9.80913 39.2871 9.29443C39.2754 9.31131 39.2646 9.32912 39.252 9.346L38.251 10.5732C38.6388 10.7117 39.0122 10.885 39.3662 11.0907Z" fill="#002438"/>
</svg>
