<svg width="49" height="48" viewBox="0 0 49 48" fill="none" xmlns="http://www.w3.org/2000/svg">
<g clip-path="url(#clip0_3167_1241)">
<path d="M19.0631 30.7069L18.8047 31.2637C18.8879 31.3012 20.8843 32.1684 24.5019 32.1684C28.4726 32.1684 30.1675 31.1372 30.2383 31.0903L29.9024 30.5737C29.8862 30.584 28.264 31.5562 24.5019 31.5562C21.0327 31.5562 19.0813 30.7153 19.0631 30.7069Z" fill="#002438"/>
<path d="M30.3644 27.2925C30.3472 27.3037 28.5853 28.3603 24.4997 28.3603C20.7319 28.3603 18.614 27.4453 18.5929 27.4369L18.3135 28.0425C18.4034 28.0828 20.5711 29.025 24.4997 29.025C28.8121 29.025 30.6525 27.9 30.729 27.8531L30.3644 27.2925Z" fill="#002438"/>
<path d="M16.9711 21.7219H31.9754L39.6824 19.5534C39.7322 18.9675 39.759 18.3731 39.759 17.7722C39.759 10.4297 35.8926 4.13625 30.4758 1.39688C28.8727 0.580312 27.0285 0.114375 25.1843 0H24.0541C23.0425 0 22.0903 0.175313 21.139 0.40875C20.2461 0.64125 19.3541 0.932813 18.5215 1.39875C13.0482 4.13813 9.23828 10.4925 9.23828 17.8331C9.23828 18.4131 9.26157 18.9872 9.30814 19.5553L16.9711 21.7219Z" fill="#002438"/>
<path d="M15.7444 22.1484L9.39062 20.3494C9.99164 25.3556 12.3574 29.6944 15.7444 32.4684V22.1484Z" fill="#002438"/>
<path d="M24.5271 34.7811C21.2034 34.7811 19.0893 34.3424 17.7695 33.8643C19.2444 34.7192 20.873 35.2889 22.5671 35.5424C23.2217 35.6005 23.8754 35.6586 24.53 35.6586H24.5893C25.2677 35.6584 25.9447 35.5998 26.6125 35.4833C27.981 35.2555 29.3048 34.8199 30.5363 34.1924C29.2252 34.5252 27.3102 34.7858 24.5271 34.7811Z" fill="#002438"/>
<path d="M24.506 24.0403L30.2749 25.7578L30.4663 25.1428L24.5002 23.3662L18.5771 25.2431L18.7791 25.8553L24.506 24.0403Z" fill="#002438"/>
<path d="M33.2559 22.1344V32.4104C36.6208 29.6419 38.9866 25.3313 39.6 20.3513L33.2559 22.1344Z" fill="#002438"/>
<path d="M48.8837 48V43.8469L34.8976 37.7869C32.3866 39.2768 29.5812 40.2275 26.6671 40.5759C25.9867 40.6359 25.244 40.6969 24.5617 40.6969H24.4372C23.7568 40.6969 23.0141 40.6359 22.3949 40.5759C19.3346 40.2819 16.3879 39.2863 13.7931 37.6697L0.116211 43.8572V48H48.8837Z" fill="#002438"/>
</g>
<defs>
<clipPath id="clip0_3167_1241">
<rect width="49" height="48" fill="white"/>
</clipPath>
</defs>
</svg>
