<svg width="50" height="48" viewBox="0 0 50 48" fill="none" xmlns="http://www.w3.org/2000/svg">
<path d="M46.207 20.7635L45.9863 19.8644H25.6308V28.1351H37.793C36.5303 33.8913 30.6709 36.9213 25.8848 36.9213C22.4023 36.9213 18.7314 35.5151 16.3018 33.2547C15.0198 32.0431 13.9995 30.6007 13.299 29.01C12.5986 27.4194 12.2318 25.7117 12.2197 23.9847C12.2197 20.501 13.8506 17.0163 16.2236 14.7241C18.5967 12.4319 22.1807 11.1494 25.7441 11.1494C29.8252 11.1494 32.75 13.2298 33.8437 14.1785L39.9658 8.33225C38.1699 6.81725 33.2363 2.99976 25.5469 2.99976C19.6143 2.99976 13.9258 5.18132 9.76758 9.16007C5.66406 13.0779 3.54004 18.7432 3.54004 23.9997C3.54004 29.2563 5.5498 34.6385 9.52637 38.5872C13.7754 42.7985 19.793 44.9997 25.9893 44.9997C31.6269 44.9997 36.9707 42.8791 40.7793 39.0316C44.5234 35.2441 46.4599 30.0035 46.4599 24.5097C46.4599 22.1969 46.2178 20.8235 46.207 20.7635Z" fill="#002438"/>
</svg>
