<svg width="49" height="48" viewBox="0 0 49 48" fill="none" xmlns="http://www.w3.org/2000/svg">
<g clip-path="url(#clip0_3167_1246)">
<path d="M29.7539 21.7856H31.6105L35.9076 11.5481H34.0519L29.7539 21.7856Z" fill="#002438"/>
<path d="M28.6319 21.7856L23.4553 7.81689H21.5996L26.7762 21.7856H28.6319Z" fill="#002438"/>
<path d="M11.2179 40.155L6.13889 26.4731H4.2832L9.36217 40.155H11.2179Z" fill="#002438"/>
<path d="M12.2627 40.155H14.0112L20.564 7.81689H18.7963L12.2627 40.155Z" fill="#002438"/>
<path d="M44.5409 29.2481L38.8762 11.5481H37.0205L42.6852 29.2481H44.5409Z" fill="#002438"/>
<path d="M7.06645 25.6126V18.6282H0.0341797V25.6126H7.06645Z" fill="#002438"/>
<path d="M15.4268 41.0156H8.39453V48H15.4268V41.0156Z" fill="#002438"/>
<path d="M24.4512 0H17.4189V6.98438H24.4512V0Z" fill="#002438"/>
<path d="M39.9024 3.66479H32.8701V10.6492H39.9024V3.66479Z" fill="#002438"/>
<path d="M25.2621 22.6265H25.2324V29.6108H25.2621H32.2647H32.2944V22.6265H32.2647H25.2621Z" fill="#002438"/>
<path d="M48.9659 30.0132H41.9336V36.9976H48.9659V30.0132Z" fill="#002438"/>
</g>
<defs>
<clipPath id="clip0_3167_1246">
<rect width="49" height="48" fill="white"/>
</clipPath>
</defs>
</svg>
