<svg width="48" height="49" viewBox="0 0 48 49" fill="none" xmlns="http://www.w3.org/2000/svg">
<path d="M40.125 21.438H27C25.8065 21.438 24.6619 20.954 23.818 20.0925C22.9741 19.231 22.5 18.0626 22.5 16.8442V3.4458C22.5 3.34427 22.4605 3.2469 22.3902 3.17511C22.3198 3.10332 22.2245 3.06299 22.125 3.06299H13.5C11.9087 3.06299 10.3826 3.7083 9.25736 4.85696C8.13214 6.00562 7.5 7.56354 7.5 9.18799V39.813C7.5 41.4374 8.13214 42.9953 9.25736 44.144C10.3826 45.2927 11.9087 45.938 13.5 45.938H34.5C36.0913 45.938 37.6174 45.2927 38.7426 44.144C39.8679 42.9953 40.5 41.4374 40.5 39.813V21.8208C40.5 21.7193 40.4605 21.6219 40.3902 21.5501C40.3198 21.4783 40.2245 21.438 40.125 21.438Z" fill="#002438"/>
<path d="M39.3019 18.0516L25.8197 4.28857C25.7935 4.26196 25.7601 4.24386 25.7239 4.23654C25.6876 4.22923 25.65 4.23301 25.6159 4.24744C25.5817 4.26186 25.5525 4.28627 25.5318 4.31759C25.5112 4.34892 25.5002 4.38577 25.5 4.42351V16.8467C25.5 17.2528 25.658 17.6423 25.9393 17.9295C26.2206 18.2167 26.6022 18.378 27 18.378H39.1697C39.2067 18.3778 39.2428 18.3665 39.2734 18.3455C39.3041 18.3244 39.328 18.2946 39.3422 18.2597C39.3563 18.2248 39.36 18.1865 39.3528 18.1495C39.3457 18.1124 39.3279 18.0784 39.3019 18.0516Z" fill="#002438"/>
</svg>
