<svg width="48" height="48" viewBox="0 0 48 48" fill="none" xmlns="http://www.w3.org/2000/svg">
<g clip-path="url(#clip0_3167_1247)">
<path d="M45.0404 33.2925H38.1338V33.9506H45.0404V33.2925Z" fill="#002438"/>
<path d="M45.0404 35.0962H38.1338V35.7543H45.0404V35.0962Z" fill="#002438"/>
<path d="M43.4757 36.8203H38.1338V37.4784H43.4757V36.8203Z" fill="#002438"/>
<path d="M45.0404 31.4888H38.1338V32.1469H45.0404V31.4888Z" fill="#002438"/>
<path d="M45.0404 29.7544H38.1338V30.4125H45.0404V29.7544Z" fill="#002438"/>
<path d="M45.0394 25.2393H42V28.2786H45.0394V25.2393Z" fill="#002438"/>
<path d="M41.0931 25.2393H38.0537V28.2786H41.0931V25.2393Z" fill="#002438"/>
<path d="M46.8933 21.134C46.8767 21.1331 46.8601 21.1331 46.8436 21.134H36.2498C36.102 21.1299 35.9548 21.155 35.8167 21.2078C35.6786 21.2606 35.5522 21.3401 35.4448 21.4418C35.3375 21.5435 35.2512 21.6654 35.191 21.8005C35.1308 21.9356 35.0978 22.0812 35.0939 22.229C35.0939 22.2459 35.0939 22.2628 35.0939 22.2796V43.3181C35.0889 43.6194 35.2037 43.9103 35.413 44.1271C35.6224 44.3438 35.9092 44.4686 36.2105 44.474H46.8436C47.1448 44.4793 47.4358 44.3647 47.6525 44.1555C47.8693 43.9463 47.9941 43.6596 47.9995 43.3584V22.2796C48.0023 22.1317 47.9758 21.9847 47.9217 21.8471C47.8675 21.7094 47.7868 21.5838 47.684 21.4774C47.5813 21.371 47.4585 21.2859 47.3228 21.227C47.1872 21.168 47.0412 21.1364 46.8933 21.134ZM40.5933 21.8915H42.7664C42.8192 21.8915 42.8699 21.9124 42.9073 21.9497C42.9447 21.9869 42.9658 22.0375 42.9661 22.0903C42.9666 22.0937 42.9666 22.0971 42.9661 22.1006C42.9661 22.1534 42.9452 22.204 42.9079 22.2414C42.8707 22.2789 42.8201 22.3 42.7673 22.3003H40.5933C40.5408 22.3026 40.4896 22.2842 40.4505 22.2492C40.4114 22.2141 40.3876 22.1651 40.3842 22.1128V22.1024C40.384 22.0748 40.3892 22.0474 40.3996 22.0219C40.41 21.9963 40.4253 21.973 40.4448 21.9534C40.4642 21.9338 40.4874 21.9182 40.5128 21.9076C40.5383 21.897 40.5657 21.8915 40.5933 21.8915ZM41.752 43.1399C41.7249 43.1413 41.6976 43.1413 41.6705 43.1399L41.7202 43.1099C41.6265 43.0109 41.5753 42.8791 41.5776 42.7428C41.58 42.6065 41.6356 42.4766 41.7326 42.3808C41.8296 42.285 41.9603 42.231 42.0966 42.2305C42.2329 42.2299 42.364 42.2827 42.4618 42.3777C42.5597 42.4726 42.6164 42.6021 42.6199 42.7384C42.6234 42.8747 42.5733 43.0069 42.4805 43.1067C42.3877 43.2065 42.2594 43.266 42.1232 43.2724C41.9871 43.2788 41.8538 43.2316 41.752 43.1409V43.1399ZM36.607 40.6171V23.1871H46.687L46.7067 40.6171H36.607Z" fill="#002438"/>
<path d="M37.9168 9.09009H17.9209V10.0332H37.9168V9.09009Z" fill="#002438"/>
<path d="M37.9168 11.071H17.9209V12.0142H37.9168V11.071Z" fill="#002438"/>
<path d="M22.9196 13.1465H17.9209V13.9949H22.9196V13.1465Z" fill="#002438"/>
<path d="M15.469 8.42993H8.86621V15.0327H15.469V8.42993Z" fill="#002438"/>
<path d="M37.9168 18.7107H17.9209V19.6538H37.9168V18.7107Z" fill="#002438"/>
<path d="M27.73 22.7671H17.9209V23.7102H27.73V22.7671Z" fill="#002438"/>
<path d="M15.469 17.8623H8.86621V24.4651H15.469V17.8623Z" fill="#002438"/>
<path d="M34.0234 20.6917H17.9209V21.6348H34.0234V20.6917Z" fill="#002438"/>
<path d="M5.75344 5.41213H41.3119V20.309H43.1991V3.52588H3.86719V29.9353H34.0228V28.049H5.75344V5.41213Z" fill="#002438"/>
<path d="M27.3525 32.0289H19.9012V31.2742H0V33.8214H34.0228V31.2742H27.3525V32.0289Z" fill="#002438"/>
</g>
<defs>
<clipPath id="clip0_3167_1247">
<rect width="48" height="48" fill="white"/>
</clipPath>
</defs>
</svg>
