<svg width="49" height="48" viewBox="0 0 49 48" fill="none" xmlns="http://www.w3.org/2000/svg">
<path d="M43.512 9.6L33.712 0H5.38965V48H43.6096L43.512 9.6ZM34.4958 4.03125L39.4935 8.92688H34.4958V4.03125ZM7.74203 45.6956V2.30437H32.1463V11.2322H41.1625L41.2582 45.6956H7.74203Z" fill="#002438"/>
<path d="M31.0661 7.29565H12.0537V9.12003H31.0661V7.29565Z" fill="#002438"/>
<path d="M36.6513 17.9521H12.0537V19.7765H36.6513V17.9521Z" fill="#002438"/>
<path d="M36.6513 12.5757H12.0537V14.4001H36.6513V12.5757Z" fill="#002438"/>
<path d="M36.6513 23.2322H12.0537V25.0566H36.6513V23.2322Z" fill="#002438"/>
<path d="M36.6513 28.6079H12.0537V30.4323H36.6513V28.6079Z" fill="#002438"/>
<path d="M36.6513 33.8877H12.0537V35.7121H36.6513V33.8877Z" fill="#002438"/>
<path d="M24.4999 39.2644H12.0537V41.0888H24.4999V39.2644Z" fill="#002438"/>
</svg>
