<svg width="49" height="48" viewBox="0 0 49 48" fill="none" xmlns="http://www.w3.org/2000/svg">
<path d="M24.5 4.49951C13.5238 4.49951 4.59375 13.2473 4.59375 23.9995C4.59375 34.7517 13.5238 43.4995 24.5 43.4995C35.4762 43.4995 44.4062 34.7517 44.4062 23.9995C44.4062 13.2473 35.4762 4.49951 24.5 4.49951ZM34.8599 17.4642L21.9974 32.4642C21.8563 32.6288 21.6807 32.7618 21.4826 32.8542C21.2844 32.9465 21.0683 32.9961 20.8489 32.9995H20.8231C20.6085 32.9994 20.3962 32.9552 20.2002 32.8696C20.0042 32.784 19.8287 32.659 19.6852 32.5026L14.1727 26.5026C14.0327 26.3572 13.9238 26.1858 13.8524 25.9985C13.781 25.8112 13.7485 25.6119 13.7569 25.4121C13.7652 25.2124 13.8143 25.0163 13.9011 24.8354C13.9879 24.6545 14.1108 24.4924 14.2625 24.3586C14.4142 24.2249 14.5917 24.1222 14.7844 24.0567C14.9772 23.9911 15.1814 23.9639 15.3851 23.9767C15.5888 23.9896 15.7877 24.0421 15.9704 24.1314C16.153 24.2206 16.3155 24.3447 16.4485 24.4964L20.7829 29.2139L32.5151 15.5348C32.7783 15.2368 33.1506 15.0521 33.5516 15.0208C33.9527 14.9895 34.3501 15.1141 34.6582 15.3675C34.9662 15.621 35.16 15.983 35.1978 16.3754C35.2355 16.7677 35.1141 17.1588 34.8599 17.4642Z" fill="#002438"/>
</svg>
