<svg width="49" height="48" viewBox="0 0 49 48" fill="none" xmlns="http://www.w3.org/2000/svg">
<g clip-path="url(#clip0_3167_1249)">
<path d="M26.2639 0H22.7363V5.08781H26.2639V0Z" fill="#002438"/>
<path d="M4.7041 5.95215V31.3922H44.2965V5.95215H4.7041ZM41.4541 28.5121H7.54648V8.63715H41.4541V28.5121Z" fill="#002438"/>
<path d="M14.7978 17.8557H10.584V26.0157H14.7978V17.8557Z" fill="#002438"/>
<path d="M19.8935 14.8799H15.6797V26.0155H19.8935V14.8799Z" fill="#002438"/>
<path d="M25.0878 12H20.874V26.0156H25.0878V12Z" fill="#002438"/>
<path d="M38.5141 22.5601H29.1064V23.5201H38.5141V22.5601Z" fill="#002438"/>
<path d="M34.4964 25.0557H29.1064V26.0157H34.4964V25.0557Z" fill="#002438"/>
<path d="M38.5141 20.1599H29.1064V21.1199H38.5141V20.1599Z" fill="#002438"/>
<path d="M38.5141 17.6643H29.1064V18.6243H38.5141V17.6643Z" fill="#002438"/>
<path d="M38.5137 12H34.4961V15.9356H38.5137V12Z" fill="#002438"/>
<path d="M33.1241 12H29.1064V15.9356H33.1241V12Z" fill="#002438"/>
<path d="M9.70215 47.9999H13.426L17.9336 32.1599H14.2098L9.70215 47.9999Z" fill="#002438"/>
<path d="M31.0664 32.1599L35.574 47.9999H39.2978L34.7902 32.1599H31.0664Z" fill="#002438"/>
</g>
<defs>
<clipPath id="clip0_3167_1249">
<rect width="49" height="48" fill="white"/>
</clipPath>
</defs>
</svg>
