<svg width="48" height="48" viewBox="0 0 48 48" fill="none" xmlns="http://www.w3.org/2000/svg">
<path d="M24.5209 9.49612C24.3813 9.36261 24.1956 9.28809 24.0024 9.28809C23.8093 9.28809 23.6236 9.36261 23.484 9.49612L6.22461 25.9839C6.15131 26.054 6.093 26.1383 6.0532 26.2316C6.01339 26.3249 5.99293 26.4253 5.99305 26.5267L5.99023 42.0011C5.99023 42.7968 6.3063 43.5598 6.86891 44.1224C7.43152 44.685 8.19458 45.0011 8.99023 45.0011H17.9996C18.3974 45.0011 18.779 44.8431 19.0603 44.5618C19.3416 44.2805 19.4996 43.8989 19.4996 43.5011V30.7511C19.4996 30.5522 19.5786 30.3614 19.7193 30.2208C19.8599 30.0801 20.0507 30.0011 20.2496 30.0011H27.7496C27.9485 30.0011 28.1393 30.0801 28.2799 30.2208C28.4206 30.3614 28.4996 30.5522 28.4996 30.7511V43.5011C28.4996 43.8989 28.6576 44.2805 28.9389 44.5618C29.2202 44.8431 29.6018 45.0011 29.9996 45.0011H39.0052C39.8009 45.0011 40.5639 44.685 41.1265 44.1224C41.6892 43.5598 42.0052 42.7968 42.0052 42.0011V26.5267C42.0053 26.4253 41.9849 26.3249 41.9451 26.2316C41.9053 26.1383 41.847 26.054 41.7737 25.9839L24.5209 9.49612Z" fill="#002438"/>
<path d="M46.0238 22.892L39.0113 16.1832V6.00293C39.0113 5.6051 38.8533 5.22357 38.572 4.94227C38.2907 4.66096 37.9091 4.50293 37.5113 4.50293H33.0113C32.6135 4.50293 32.232 4.66096 31.9507 4.94227C31.6693 5.22357 31.5113 5.6051 31.5113 6.00293V9.00293L26.0813 3.81105C25.5732 3.2973 24.8176 3.00293 24.001 3.00293C23.1873 3.00293 22.4335 3.2973 21.9254 3.81199L1.98476 22.8901C1.40164 23.4526 1.32851 24.3779 1.85914 24.9873C1.99238 25.1411 2.15554 25.2662 2.33867 25.355C2.5218 25.4437 2.72107 25.4943 2.92436 25.5036C3.12765 25.5129 3.33071 25.4807 3.52118 25.409C3.71164 25.3374 3.88553 25.2277 4.03226 25.0867L23.4854 6.49793C23.625 6.36441 23.8107 6.28989 24.0038 6.28989C24.197 6.28989 24.3827 6.36441 24.5223 6.49793L43.9772 25.0867C44.2638 25.3615 44.6477 25.5115 45.0447 25.5038C45.4417 25.496 45.8194 25.3312 46.0951 25.0454C46.6707 24.4492 46.6229 23.4648 46.0238 22.892Z" fill="#002438"/>
</svg>
