<svg width="48" height="49" viewBox="0 0 48 49" fill="none" xmlns="http://www.w3.org/2000/svg">
<g clip-path="url(#clip0_3167_1250)">
<path d="M18.9375 32.0146L15.1697 33.7957L14.0203 34.3316V39.9781H0V27.8956L6.44344 24.8599C7.92698 25.8149 9.64286 26.3267 11.3967 26.3374C13.1506 26.348 14.8723 25.8571 16.3669 24.9202L16.8225 25.123C16.786 25.4285 16.7694 25.736 16.7728 26.0437C16.7728 28.3808 17.5959 30.4958 18.9375 32.0146Z" fill="#002438"/>
<path d="M11.4565 23.2444C15.5918 23.2444 18.9452 19.154 18.9452 14.1086C18.9452 9.06309 15.5918 4.97656 11.4565 4.97656C7.32117 4.97656 3.9668 9.06309 3.9668 14.1086C3.9668 19.154 7.32023 23.2444 11.4565 23.2444Z" fill="#002438"/>
<path d="M47.9999 27.8955V39.978H33.9824V34.3114L32.7927 33.7746L28.9668 32.0519C30.3149 30.5206 31.1577 28.3989 31.1577 26.0408C31.1577 25.6992 31.1376 25.3579 31.0977 25.0187L31.4352 24.8569C32.9186 25.812 34.6343 26.3238 36.388 26.3345C38.1418 26.3451 39.8633 25.8542 41.3577 24.9172L47.9999 27.8955Z" fill="#002438"/>
<path d="M36.4468 23.2444C40.583 23.2444 43.9364 19.154 43.9364 14.1086C43.9364 9.06309 40.583 4.97656 36.4468 4.97656C32.3105 4.97656 28.958 9.06596 28.958 14.1114C28.958 19.1569 32.3114 23.2444 36.4468 23.2444Z" fill="#002438"/>
<path d="M31.9994 35.6272V44.0233H16V35.6272L20.4803 33.5122C21.2504 34.0048 22.1124 34.3287 23.0116 34.4635C23.3287 34.5206 23.6504 34.5475 23.9725 34.5439C24.3148 34.544 24.6564 34.5136 24.9934 34.453C25.8407 34.3178 26.6531 34.0117 27.3831 33.5524L31.9994 35.6272Z" fill="#002438"/>
<path d="M29.1743 26.0436C29.1743 29.1195 27.3799 31.6901 24.9902 32.2643C24.6558 32.3459 24.3131 32.3867 23.9693 32.3858C23.6459 32.3851 23.3236 32.3478 23.0083 32.2748C20.5793 31.7274 18.7549 29.1377 18.7549 26.0407V25.99C18.7746 22.4987 21.0986 19.6851 23.9693 19.6851C26.8146 19.6851 29.1143 22.4604 29.1639 25.9192C29.1727 25.96 29.1762 26.0018 29.1743 26.0436Z" fill="#002438"/>
</g>
<defs>
<clipPath id="clip0_3167_1250">
<rect width="48" height="49" fill="white"/>
</clipPath>
</defs>
</svg>
