<svg width="50" height="49" viewBox="0 0 50 49" fill="none" xmlns="http://www.w3.org/2000/svg">
<path d="M36.6213 10.5934L34.3898 21.7754L27.6516 6.6543L25.3078 17.1816L22.2805 0.0507812L13.9797 21.7754L13.1008 7.89844C8.73501 13.8001 6.43057 20.9256 6.53046 28.2143C7.13397 40.0815 14.7101 49.3647 25.9025 48.935C36.4426 48.5349 43.1642 39.6355 43.4719 28.465C43.3752 20.4021 39.3703 13.4492 36.6213 10.5934ZM32.3391 37.0879C31.5099 40.0212 28.7121 42.097 25.4543 42.097C21.7072 42.097 18.6672 39.2891 18.2766 35.6523C18.2053 35.2006 18.2463 34.6953 18.2766 34.1776C18.5695 29.1445 23.2971 23.7794 23.2971 23.7794C23.2971 23.7794 25.799 26.9453 27.2697 30.2308C27.8182 29.314 28.4205 28.4292 29.0734 27.5807C29.0734 27.5807 32.632 31.8261 32.632 34.6953C32.632 35.5002 32.5627 36.5185 32.3391 37.0879Z" fill="#002438"/>
</svg>
