<svg width="50" height="49" viewBox="0 0 50 49" fill="none" xmlns="http://www.w3.org/2000/svg">
<path d="M18.9619 23.5219C20.5586 22.4462 21.7568 20.8815 22.4551 19.1196L24.1514 19.511L25.0498 15.5987L23.5527 15.1096V14.7191C23.5527 12.8615 23.0537 11.1982 22.2559 9.63348L23.5527 8.55777L21.1572 5.42828L19.6611 6.50781C18.1641 5.33066 16.4668 4.4502 14.4707 4.15639V2.39258H10.4795V4.15639C8.58301 4.54781 6.88672 5.42828 5.38965 6.69922L3.99219 5.62352L1.39746 8.75301L2.89453 9.82967C1.99609 11.3944 1.69629 13.0568 1.69629 14.8177V15.3068L0 15.5996L0.698242 19.512L2.39551 19.1205C3.09375 20.8815 4.49121 22.3486 5.98828 23.5229L5.28906 25.0876L8.88672 26.75L9.58594 25.1843C10.5245 25.4582 11.5003 25.5902 12.4795 25.5757C13.459 25.5902 14.4351 25.4582 15.374 25.1843L16.0723 26.75L19.666 25.0867L18.9619 23.5219ZM12.4746 20.7838C11.2506 20.7838 10.0542 20.4282 9.03648 19.7618C8.01879 19.0954 7.22559 18.1482 6.7572 17.04C6.28881 15.9318 6.16626 14.7124 6.40504 13.536C6.64383 12.3595 7.23322 11.2789 8.0987 10.4307C8.96417 9.58258 10.0669 9.00497 11.2673 8.77097C12.4677 8.53696 13.712 8.65706 14.8428 9.11608C15.9736 9.57511 16.9401 10.3524 17.6201 11.3498C18.3001 12.3471 18.6631 13.5197 18.6631 14.7191C18.6549 16.3251 18.0002 17.863 16.8414 18.9986C15.6827 20.1343 14.1134 20.7758 12.4746 20.7838Z" fill="#002438"/>
<path d="M12.4746 9.7312C11.4679 9.7312 10.4839 10.0237 9.64685 10.5718C8.80983 11.1199 8.15745 11.899 7.77221 12.8104C7.38697 13.7219 7.28617 14.7248 7.48257 15.6924C7.67896 16.66 8.16372 17.5487 8.87555 18.2463C9.58738 18.9439 10.4943 19.419 11.4816 19.6115C12.469 19.8039 13.4924 19.7051 14.4224 19.3276C15.3525 18.9501 16.1474 18.3107 16.7067 17.4905C17.2659 16.6702 17.5645 15.7058 17.5645 14.7192C17.5585 13.3981 17.0204 12.1328 16.0671 11.1986C15.1139 10.2644 13.8227 9.73699 12.4746 9.7312ZM12.4746 16.3826C11.4766 16.3826 10.7783 15.6973 10.7783 14.7192C10.7783 13.7412 11.4766 13.0569 12.4746 13.0569C13.4727 13.0569 14.1719 13.7412 14.1719 14.7192C14.1719 15.6973 13.4766 16.3826 12.4746 16.3826Z" fill="#002438"/>
<path d="M48.2031 30.9551L50 30.5637L49.1016 26.6513L47.3057 27.0427C46.8272 25.9065 46.2244 24.8245 45.5078 23.8156L46.8057 22.5437L44.0107 19.7071L42.7148 20.979C41.6849 20.2773 40.5805 19.6868 39.4209 19.218L39.9199 17.3604L35.9277 16.48L35.5293 18.24C34.3311 18.1443 32.9346 18.24 31.7363 18.4314L31.0381 16.769L27.2461 18.0447L27.9453 19.8057C26.8462 20.3769 25.8376 21.1016 24.9512 21.9571L23.3545 20.7838L20.959 24.0109L22.5586 25.1842C21.96 26.2608 21.4609 27.4342 21.2617 28.6075L19.166 28.5118L18.9658 32.4241L20.8623 32.5198C20.9798 33.7126 21.2136 34.8917 21.5605 36.0407L19.8643 36.9212L21.7607 40.4421L23.457 39.5617C24.1974 40.5834 25.1068 41.4768 26.1475 42.205L25.1494 43.8683L28.543 45.7259L29.541 44.0635C30.1396 44.2597 30.7383 44.455 31.3369 44.5526C31.9355 44.6502 32.5352 44.744 33.1338 44.744L33.2314 46.6025L37.2236 46.4111L37.126 44.5526C38.3232 44.3612 39.5205 43.8683 40.6191 43.2816L41.7168 44.8464L45.0098 42.4921L43.9121 40.9273C44.8105 40.0469 45.6084 39.1664 46.208 37.9931L48.0039 38.6774L49.501 34.9612L47.8047 34.3745C48.2031 33.4003 48.2031 32.1284 48.2031 30.9551ZM34.4336 39.464C32.8544 39.4642 31.3106 39.0055 29.9974 38.1458C28.6843 37.2861 27.6608 36.0642 27.0563 34.6344C26.4518 33.2046 26.2936 31.6313 26.6015 30.1134C26.9095 28.5955 27.6699 27.2012 28.7865 26.1068C29.9031 25.0124 31.3257 24.2671 32.8746 23.9651C34.4234 23.6631 36.0289 23.818 37.4879 24.4102C38.9469 25.0024 40.1939 26.0053 41.0713 27.2921C41.9487 28.5789 42.417 30.0917 42.417 31.6394C42.4223 32.6684 42.2194 33.6884 41.8199 34.6401C41.4205 35.5918 40.8325 36.4565 40.0899 37.1842C39.3473 37.9118 38.4649 38.488 37.4937 38.8793C36.5225 39.2706 35.4817 39.4694 34.4316 39.464H34.4336Z" fill="#002438"/>
<path d="M34.4316 24.8914C30.5391 24.8914 27.5449 28.0209 27.5449 31.6394C27.5449 35.2579 30.7383 38.3884 34.4316 38.3884C38.3232 38.3884 41.3174 35.2589 41.3174 31.6394C41.3174 28.0199 38.3232 24.8914 34.4316 24.8914ZM34.4316 34.2808C32.834 34.2808 31.6367 33.1065 31.6367 31.5418C31.6367 29.977 32.834 28.8066 34.4316 28.8066C36.0293 28.8066 37.2256 29.9799 37.2256 31.5446C37.2256 33.1094 36.0283 34.2808 34.4316 34.2808Z" fill="#002438"/>
</svg>
