<svg width="48" height="49" viewBox="0 0 48 49" fill="none" xmlns="http://www.w3.org/2000/svg">
<g clip-path="url(#clip0_3167_1256)">
<path d="M24 0C10.7662 0 0 10.9905 0 24.5C0 38.0095 10.7662 49 24 49C37.2337 49 48 38.0095 48 24.5C48 10.9905 37.2337 0 24 0ZM33.4172 44.7891C30.4898 46.2657 27.2652 47.0247 24 47.0055C21.4305 47.0046 18.8805 46.549 16.4634 45.659C16.6509 44.1201 17.3072 42.5812 19.5722 42.5812C19.5722 39.6 22.4925 38.0611 22.4925 38.0611V36.5232L15.8981 29.7914C15.8981 29.7914 10.7166 30.5571 9.30375 27.5788H6.37969V24.5H10.0538V26.0408H10.8038V24.5C10.8038 24.5 12.3112 18.5377 16.6444 18.5377C16.6405 18.3394 16.675 18.1423 16.7458 17.9576C16.8166 17.7729 16.9224 17.6043 17.0571 17.4614C17.1918 17.3185 17.3528 17.2041 17.5308 17.1247C17.7088 17.0453 17.9004 17.0025 18.0947 16.9988H18.1519V16.2332C17.3081 15.3718 17.3081 14.7909 18.1519 14.0215C18.1519 12.4826 16.6444 9.50141 16.6444 9.50141H18.1519V7.96059H16.6481V6.42168C16.2559 6.42937 15.8768 6.27772 15.5941 6.00008C15.3114 5.72243 15.1483 5.34154 15.1406 4.94115V4.88086H12.9741C14.3866 4.07128 15.8687 3.39535 17.4019 2.86152C18.6262 3.82812 19.4747 4.78516 19.4747 6.32598H20.9813V7.86488H19.4747V9.40283C19.4747 9.40283 20.9813 9.40283 20.9813 12.384H22.4888V7.96059H26.9166C26.9103 7.67649 26.959 7.39392 27.0597 7.12901C27.1605 6.86411 27.3114 6.62206 27.5038 6.41668C27.6962 6.2113 27.9263 6.04662 28.181 5.93204C28.4358 5.81746 28.7101 5.75523 28.9884 5.74889H29.0822V2.67107C31.8863 3.39033 34.5371 4.62918 36.9028 6.32598L32.7572 11.0384V11.804H36.2428V11.0384H37.845L39.9169 9.01811C40.2225 9.31519 40.5061 9.63509 40.7653 9.97514C40.5685 10.8265 40.2093 11.6299 39.7082 12.3394C39.2071 13.049 38.574 13.6508 37.845 14.1105L37.2825 12.5716H36.345V14.1105L33.2362 17.0916V18.6305H29.2716V20.8422C29.8488 20.7976 30.4198 20.9886 30.8592 21.3733C31.2986 21.758 31.5705 22.3049 31.6153 22.8941C31.62 22.9467 31.6219 23.0003 31.6219 23.0539H30.0253V24.5C26.0691 28.2506 30.0253 33.5401 30.0253 33.5401H34.7362V39.5024C33.2287 41.0423 33.4172 41.0423 33.4172 44.7891ZM7.88719 30.5599V33.542H7.04344V37.2926C8.55094 37.2926 12.225 39.5043 12.225 42.5812L12.8812 44.0244C9.6816 42.0896 7.00601 39.3697 5.09738 36.1115C3.18874 32.8533 2.10752 29.1601 1.95187 25.3671C3.45937 26.0408 4.875 27.0983 4.875 29.022C5.06924 29.018 5.26233 29.0532 5.44324 29.1255C5.62415 29.1978 5.78933 29.3058 5.92933 29.4433C6.06934 29.5808 6.18142 29.7451 6.25918 29.9269C6.33694 30.1086 6.37884 30.3042 6.3825 30.5025V30.5599H7.88719ZM34.2647 19.9819L35.7722 17.7702L43.125 21.5208V23.0587C43.125 22.963 35.7769 24.5019 35.7769 19.9819H34.2647Z" fill="#002438"/>
</g>
<defs>
<clipPath id="clip0_3167_1256">
<rect width="48" height="49" fill="white"/>
</clipPath>
</defs>
</svg>
