<svg width="49" height="48" viewBox="0 0 49 48" fill="none" xmlns="http://www.w3.org/2000/svg">
<path d="M27.5625 21.0122H40.9609C41.0594 21.0122 41.1538 21.0505 41.2234 21.1187C41.293 21.1868 41.332 21.2792 41.332 21.3755V39.0005C41.332 40.5886 40.688 42.1117 39.5416 43.2347C38.3951 44.3578 36.8402 44.9888 35.2187 44.9888H13.7812C12.1598 44.9888 10.6049 44.3578 9.45842 43.2347C8.31198 42.1117 7.66797 40.5886 7.66797 39.0005V9.00049C7.66797 7.41237 8.31198 5.88926 9.45842 4.76622C10.6049 3.64317 12.1598 3.01221 13.7812 3.01221H22.5859C22.6844 3.01221 22.7788 3.05054 22.8484 3.11869C22.918 3.18684 22.957 3.27922 22.957 3.37549V16.5005C22.957 17.6971 23.4423 18.8447 24.306 19.6908C25.1697 20.5369 26.3411 21.0122 27.5625 21.0122ZM16.8437 36.0122H32.1562C32.5654 36.0122 32.9578 35.853 33.2472 35.5695C33.5366 35.286 33.6992 34.9015 33.6992 34.5005C33.6992 34.0995 33.5366 33.7149 33.2472 33.4314C32.9578 33.148 32.5654 32.9888 32.1562 32.9888H16.8437C16.4346 32.9888 16.0422 33.148 15.7528 33.4314C15.4634 33.7149 15.3008 34.0995 15.3008 34.5005C15.3008 34.9015 15.4634 35.286 15.7528 35.5695C16.0422 35.853 16.4346 36.0122 16.8437 36.0122ZM16.8437 28.5122H32.1562C32.5654 28.5122 32.9578 28.353 33.2472 28.0695C33.5366 27.786 33.6992 27.4015 33.6992 27.0005C33.6992 26.5995 33.5366 26.2149 33.2472 25.9314C32.9578 25.648 32.5654 25.4888 32.1562 25.4888H16.8437C16.4346 25.4888 16.0422 25.648 15.7528 25.9314C15.4634 26.2149 15.3008 26.5995 15.3008 27.0005C15.3008 27.4015 15.4634 27.786 15.7528 28.0695C16.0422 28.353 16.4346 28.5122 16.8437 28.5122Z" fill="#002438" stroke="#002438" stroke-width="0.0234375"/>
<path d="M26.3494 4.20941C26.3494 4.2094 26.3494 4.20939 26.3494 4.20939C26.3243 4.18494 26.2923 4.16829 26.2575 4.16155C26.2227 4.15481 26.1867 4.1583 26.1539 4.17157C26.1211 4.18485 26.0932 4.2073 26.0734 4.23607C26.0537 4.26483 26.0431 4.29863 26.043 4.33322V16.5029C26.043 16.8975 26.203 17.276 26.4879 17.5552C26.7729 17.8343 27.1594 17.9912 27.5625 17.9912H39.9857C40.0212 17.991 40.0558 17.9806 40.0852 17.9612C40.1146 17.9419 40.1375 17.9145 40.151 17.8825C40.1645 17.8505 40.1681 17.8153 40.1612 17.7813C40.1544 17.7474 40.1374 17.7162 40.1125 17.6916C40.1125 17.6916 40.1124 17.6916 40.1124 17.6915M26.3494 4.20941L40.1207 17.6832L40.1124 17.6915M26.3494 4.20941L40.1124 17.6915M26.3494 4.20941L40.1124 17.6915" fill="#002438" stroke="#002438" stroke-width="0.0234375"/>
</svg>
