<svg width="49" height="49" viewBox="0 0 49 49" fill="none" xmlns="http://www.w3.org/2000/svg">
<g clip-path="url(#clip0_3167_1257)">
<path d="M7.38848 27.7731V27.0841H8.06797V17.0161C8.46035 16.6237 8.75703 16.1356 8.75703 15.5519C8.75703 14.6714 8.17324 13.8866 7.38848 13.6952V12.8147L6.01992 12.5181V13.7909C5.23516 14.0876 4.65137 14.7671 4.65137 15.6476C4.65137 16.2313 4.94805 16.8247 5.34043 17.1118V27.0841H6.01992V27.7731H7.38848Z" fill="#002438" stroke="#002438" stroke-miterlimit="10"/>
<path d="M12.3748 11.6375C12.7672 11.3408 13.1596 11.1494 13.552 10.8527C15.2172 9.87656 17.2652 9.1875 19.4186 8.79512C20.0023 8.69941 20.4904 8.60371 21.0838 8.49844C22.2609 8.40273 23.4285 8.30703 24.51 8.30703C26.7781 8.30703 29.0463 8.56543 31.257 9.08223C33.3146 9.57031 35.267 10.4508 36.7313 11.5227V13.3027L46.024 10.5656L24.5004 0L2.98633 10.8527L12.3748 13.207V11.6375Z" fill="#002438" stroke="#002438" stroke-miterlimit="10"/>
<path d="M39.9561 40.6833H31.3523L24.5 48.9042L17.9443 40.6833H9.04395C9.04395 40.6833 0.0478516 40.6833 0.0478516 49H48.9521C48.9521 40.6833 39.9561 40.6833 39.9561 40.6833Z" fill="#002438" stroke="#002438" stroke-miterlimit="10"/>
<path d="M31.0652 39.4105V36.2236C34.5967 33.5918 36.9414 28.9215 36.9414 23.5908C36.951 21.2844 36.482 19.0066 35.5824 16.8916H13.4271C12.518 19.0258 12.0586 21.3227 12.0586 23.6482C12.0586 28.9789 14.3937 33.6588 17.9348 36.2811V39.4201H31.0652V39.4105Z" fill="#002438" stroke="#002438" stroke-miterlimit="10"/>
<path d="M35.8408 12.1255C33.209 10.3646 28.998 9.29272 24.5 9.29272C20.002 9.29272 15.791 10.3646 13.2549 12.1255V15.8388H35.8504V12.1255H35.8408Z" fill="#002438" stroke="#002438" stroke-miterlimit="10"/>
</g>
<defs>
<clipPath id="clip0_3167_1257">
<rect width="49" height="49" fill="white"/>
</clipPath>
</defs>
</svg>
