<svg width="51" height="49" viewBox="0 0 51 49" fill="none" xmlns="http://www.w3.org/2000/svg">
<g clip-path="url(#clip0_3167_1258)">
<path d="M21.3596 31.8692L21.4403 31.83C19.8465 30.4968 18.8295 28.3799 18.8295 26.0084C18.8295 23.4244 20.0537 21.1476 21.8696 19.8346L20.1553 19.1091C19.3016 19.6115 18.3407 19.9218 17.3445 20.0168C16.3483 20.1117 15.3427 19.9889 14.4029 19.6575C14.5253 20.2112 14.5867 20.7758 14.5862 21.3419C14.5862 23.7526 13.5462 25.8887 11.9346 27.2219L11.9545 27.241L16.6063 29.201L17.442 29.5542V33.611L21.3596 31.8692Z" fill="#002438"/>
<path d="M16.7284 18.0124C19.625 18.0124 21.9708 15.3078 21.9708 11.9955C21.9708 8.68323 19.6041 5.9978 16.7284 5.9978C13.8527 5.9978 11.5059 8.66313 11.5059 11.9955C11.5059 15.3279 13.8307 18.0124 16.7284 18.0124Z" fill="#002438"/>
<path d="M38.9025 27.1461C37.3088 25.8129 36.2918 23.7008 36.2918 21.3245C36.2911 20.7514 36.3525 20.1799 36.4751 19.619C35.7471 19.8933 34.9719 20.0333 34.19 20.0315C32.9542 20.0324 31.7441 19.6922 30.7037 19.0515L29.0312 19.7961C30.8671 21.1091 32.0913 23.4022 32.0913 25.989C32.0913 28.4008 31.0513 30.5368 29.4396 31.869L29.4596 31.8891L33.5436 33.6118V29.5568L34.3185 29.2037L38.8268 27.1853L38.9025 27.1461Z" fill="#002438"/>
<path d="M34.1903 18.0124C37.0879 18.0124 39.4337 15.3078 39.4337 11.9955C39.4337 8.68323 37.067 5.9978 34.1903 5.9978C31.3136 5.9978 28.9688 8.66313 28.9688 11.9955C28.9688 15.3279 31.2936 18.0124 34.1903 18.0124Z" fill="#002438"/>
<path d="M46.369 28.4392C45.5412 28.921 44.6164 29.2286 43.6556 29.3416C43.4315 29.3608 43.1865 29.3809 42.9584 29.3809H42.9375C42.7133 29.3809 42.4892 29.3608 42.2651 29.3416C41.2583 29.2367 40.289 28.9152 39.4292 28.4009L34.9209 30.3992V38.3377H50.9998V30.3992L46.369 28.4392Z" fill="#002438"/>
<path d="M38.2701 18.6784C38.1678 18.8796 38.0861 19.0899 38.0261 19.3062C37.8048 19.9712 37.6945 20.6657 37.6994 21.3639C37.6994 24.4264 39.6985 26.9501 42.2694 27.3223C42.4936 27.3424 42.7177 27.3616 42.9418 27.3616H42.9627C43.1965 27.3619 43.4298 27.3423 43.66 27.3032C46.21 26.8917 48.1683 24.3823 48.1683 21.3447C48.1683 18.0123 45.8225 15.3269 42.9458 15.3661C41.1309 15.3661 39.4983 16.4447 38.5809 18.0908C38.4531 18.274 38.3488 18.4713 38.2701 18.6784Z" fill="#002438"/>
<path d="M26.2146 34.0062C25.9905 34.0253 25.7455 34.0454 25.5174 34.0454H25.4775C25.2524 34.0454 25.0074 34.0253 24.8042 34.0062C23.7952 33.9106 22.8237 33.5883 21.9683 33.0654L17.46 35.0647V43.0023H33.5379V35.0647L28.928 33.1047C28.1 33.5861 27.1752 33.8933 26.2146 34.0062Z" fill="#002438"/>
<path d="M24.8024 31.9477C25.0265 31.9678 25.2507 31.9869 25.4758 31.9869H25.4957C25.7295 31.9872 25.9628 31.9676 26.193 31.9285C28.743 31.517 30.7013 29.0077 30.7013 25.97C30.7013 23.5009 29.3755 21.384 27.5198 20.4623C26.9544 20.1877 26.3363 20.0278 25.7039 19.9924H25.3164C24.9798 19.9984 24.6452 20.0444 24.3203 20.1293C24.0077 20.2026 23.7064 20.3145 23.4238 20.4623C21.5472 21.384 20.2363 23.52 20.2363 25.9892C20.2363 29.0469 22.2126 31.5754 24.8024 31.9477Z" fill="#002438"/>
<path d="M8.73076 29.3416C8.50664 29.3608 8.2616 29.3809 8.0335 29.3809H8.01357C7.78846 29.3809 7.54441 29.3608 7.34022 29.3416C6.3313 29.2457 5.35993 28.9235 4.50434 28.4009L0 30.3992V38.3377H16.075V30.3992L11.4441 28.4392C10.6164 28.9211 9.69151 29.2288 8.73076 29.3416Z" fill="#002438"/>
<path d="M7.34442 27.3224C7.56854 27.3425 7.79266 27.3616 8.01778 27.3616H8.0377C8.27146 27.3619 8.50478 27.3424 8.73497 27.3033C11.285 26.8917 13.2443 24.3824 13.2443 21.3448C13.247 20.6386 13.1296 19.9368 12.8966 19.2671C12.8367 19.0507 12.7549 18.8404 12.6526 18.6393C12.5696 18.4319 12.4741 18.2293 12.3667 18.0325C11.4284 16.4247 9.83665 15.3662 8.02176 15.3662C5.12413 15.3662 2.77833 18.0516 2.77833 21.3639C2.77434 24.4216 4.75358 26.9501 7.34442 27.3224Z" fill="#002438"/>
</g>
<defs>
<clipPath id="clip0_3167_1258">
<rect width="51" height="49" fill="white"/>
</clipPath>
</defs>
</svg>
