<svg width="50" height="49" viewBox="0 0 50 49" fill="none" xmlns="http://www.w3.org/2000/svg">
<g clip-path="url(#clip0_3167_1259)">
<path d="M26.0997 32.3294L26.0744 32.3734L26.0001 32.3294L24.5275 34.8359L21.4025 32.8261L21.3781 32.8759L21.3019 32.8261L20.423 34.6445L16.1017 32.2385L16.0773 32.2806L16.0021 32.2385L14.9279 34.0568L9.80287 31.1599C9.79408 31.1733 9.78725 31.1877 9.77846 31.202L9.70326 31.1599C9.3576 31.7681 9.15168 32.4429 9.09989 33.1372C9.04811 33.8315 9.15171 34.5285 9.40346 35.1794C9.55253 35.517 9.7811 35.8151 10.0705 36.0494L10.1007 36.0743L10.1095 36.0819C10.5271 36.4208 11.0618 36.5891 11.6027 36.5518C12.0504 36.5355 12.4925 36.4476 12.9113 36.2915C12.9689 36.2714 13.0031 36.2571 13.0031 36.2571C13.3901 37.0596 14.0204 37.7256 14.8079 38.1641C15.5954 38.6025 16.5019 38.7922 17.4035 38.7071C17.6952 39.1568 18.0915 39.5324 18.5601 39.8029C19.0286 40.0734 19.556 40.2312 20.0988 40.2632C20.1964 40.2708 20.3009 40.2766 20.4035 40.2756C20.8564 40.2821 21.3056 40.1937 21.7208 40.0163C21.8546 40.2795 22.1574 40.5723 22.549 40.802C22.9737 41.0947 23.4809 41.2506 24.0001 41.248C24.3729 41.2505 24.739 41.1509 25.057 40.9603C25.3751 40.7697 25.6324 40.4958 25.7999 40.1694C26.962 38.1571 27.965 36.0605 28.7999 33.898L26.0997 32.3294Z" fill="#002438"/>
<path d="M15.7998 15.8658L12.0996 13.9058L6 29.3896L9.2998 31.1543L15.7998 15.8658Z" fill="#002438"/>
<path d="M18.4004 24.7871L23.7998 20.959L24.7002 21.449L40.0996 31.1542L33.5996 15.8657C31.2998 14.1019 30.2002 13.2195 27.5 13.2195C24.4004 13.2195 16.2998 20.9619 16.2002 20.9619L18.4004 24.7871Z" fill="#002438"/>
<path d="M34.4004 15.4742L34.5 15.5719L40.9004 30.6642L43.9004 29.0957L37.7002 13.7095L34.4004 15.4742Z" fill="#002438"/>
<path d="M38.5 13.1219L38.5176 13.165L38.4004 13.2196L46.7002 33.7019L50 32.0357V31.9381V7.73193L38.5 13.1219Z" fill="#002438"/>
<path d="M0 7.82959V32.0358L3.2998 33.702L11.5 13.2196L0 7.82959Z" fill="#002438"/>
<path d="M39.5996 31.8395L24.2998 22.2357L23.9004 22.0395L19 25.4695L18.2002 26.0581L17.7002 25.1757L15.5 21.3542L15.2002 20.7676L15.7002 20.2776C18.3034 17.6511 21.2252 15.3473 24.4004 13.4176C24.0294 13.2287 23.6182 13.128 23.2002 13.1238C20.5 13.1238 19.4004 14.0062 17.0996 15.77L10.7998 30.5657L14.5996 32.8195L15.2002 31.7419L15.5996 30.9581L16.4004 31.4481L19.9004 33.4081L20.4004 32.4281L20.9004 31.5457L21.7998 32.1342L24.2002 33.7019L25.2002 32.0357L25.7002 31.2519L26.5 31.7419L29.1992 33.3095L29.8994 33.7019L29.499 34.2895C28.6532 36.5112 27.6508 38.6726 26.499 40.7581C26.4201 40.933 26.2773 41.0726 26.0986 41.1495C26.6357 41.3211 27.2165 41.3078 27.7448 41.1118C28.2731 40.9158 28.7173 40.549 29.0039 40.0719C29.7571 40.3991 30.6051 40.4504 31.3936 40.2167C32.1822 39.9829 32.859 39.4795 33.3008 38.7981C34.198 38.8609 35.0931 38.6496 35.8626 38.1932C36.6322 37.7367 37.2384 37.0576 37.5977 36.2495C37.5977 36.2495 40.2979 37.3281 41.2979 35.1719C41.6304 34.538 41.7373 33.8135 41.6016 33.1133L39.5996 31.8395Z" fill="#002438"/>
</g>
<defs>
<clipPath id="clip0_3167_1259">
<rect width="50" height="49" fill="white"/>
</clipPath>
</defs>
</svg>
