<svg width="50" height="49" viewBox="0 0 50 49" fill="none" xmlns="http://www.w3.org/2000/svg">
<path d="M25 46.6975L40 35.6227C40 35.6227 50 28.1751 50 18.9627C50 9.75035 43.2998 2.30273 35 2.30273C29.7002 2.30273 26.6016 5.83131 25 8.08512M25 8.08512C23.2002 5.73273 20.2002 2.30273 15 2.30273C6.7002 2.30273 0 9.75131 0 18.9627C0 28.1742 10 35.6227 10 35.6227L25 46.6975M15.2998 28.4689H9.2998V20.5313H15.4004L15.3027 28.4689H15.2998ZM23.7959 28.4689H17.7002V14.5527H23.7998L23.7959 28.4689ZM32.292 28.4689H26.2002V18.5713H32.2998L32.292 28.4689ZM40.7881 28.4689H34.7002V12.5927H40.7998L40.7881 28.4689Z" fill="#002438"/>
</svg>
