<svg width="122" height="98" viewBox="0 0 122 98" fill="none" xmlns="http://www.w3.org/2000/svg">
<g id="icon-documentation">
<g id="28-[Converted]">
<g id="Path">
<g id="Vector" filter="url(#filter0_d_3390_373)">
<path d="M101.503 36.7518L85.2664 57.4001C85.0216 57.7097 84.5723 57.7636 84.2609 57.5209L65.0005 42.4272C64.6907 42.1827 64.6366 41.7343 64.8795 41.4234L83.9309 17.1941C84.1757 16.8845 84.6251 16.8305 84.9365 17.0732L100.608 29.3547L100.895 31.7347L101.202 34.2779L101.503 36.7518Z" fill="black"/>
</g>
<path id="Vector_2" d="M101.503 36.7518L85.2664 57.4001C85.0216 57.7097 84.5723 57.7636 84.2609 57.5209L65.0005 42.4272C64.6907 42.1827 64.6366 41.7343 64.8795 41.4234L83.9309 17.1941C84.1757 16.8845 84.6251 16.8305 84.9365 17.0732L100.608 29.3547L100.895 31.7347L101.202 34.2779L101.503 36.7518Z" fill="white"/>
</g>
<path id="Path_2" d="M98.0244 33.8184C98.04 33.9475 97.7562 34.543 101.553 37.7941L102 37.2519L98.0244 33.8184Z" fill="#CECECE"/>
<path id="Path_3" d="M98.26 32.9233C97.8836 33.4075 97.9672 34.1071 98.4468 34.4876L102 37.2967L101.049 29.3452L98.26 32.9233Z" fill="#EDEDED"/>
<path id="Shape" d="M76.2036 44.711C76.2813 44.5954 76.2036 44.4441 76.0483 44.4561C75.8386 44.4763 75.6271 44.4751 75.4177 44.4525L75.1322 44.3907C74.9299 44.3672 74.8905 44.2571 75.014 44.0601C75.2339 44.0334 75.1925 43.7308 74.973 43.746C74.7018 43.7647 74.34 43.7931 74.1176 43.6085C74.0487 43.5451 73.9908 43.4723 73.9459 43.3927C74.0239 43.3899 74.1013 43.3796 74.177 43.362C74.2397 43.3469 74.2691 43.2872 74.2836 43.2365C74.3256 43.0932 74.3212 42.978 74.3318 42.8677C75.3169 42.7075 76.3391 42.3377 77.0816 41.8123C77.2263 41.7104 77.125 41.5239 76.9591 41.528C76.1838 41.548 75.3859 41.689 74.6888 42.0174C74.4428 42.1326 74.2011 42.275 74.0771 42.5126C74.0657 42.5373 74.0557 42.5626 74.0472 42.5882C73.82 42.6192 73.5909 42.637 73.3612 42.6416C73.055 42.65 72.7492 42.6129 72.4557 42.5317C72.2449 42.4699 71.9251 42.38 71.9251 42.1478C72.4717 42.198 73.0062 42.1148 73.1089 41.6476C73.2628 40.9446 72.0399 41.3669 71.6646 41.8003C71.4118 41.7569 71.1643 41.6907 70.9255 41.6027C70.7205 41.5293 70.5878 41.8207 70.7933 41.8946C71.0361 41.9792 71.2858 42.0457 71.5401 42.0935C71.4629 42.8499 72.9352 42.974 73.477 42.9566C73.6381 42.9513 73.8041 42.9384 73.9715 42.9197C73.9517 43.1048 73.9715 43.0857 73.6777 43.0817C73.5286 43.0817 73.4321 43.2107 73.5161 43.3326C73.6714 43.5578 73.7992 43.8314 74.0622 43.9627C74.145 44.0017 74.2336 44.0294 74.3251 44.045C74.3031 44.0834 74.2994 44.1285 74.3149 44.1695C74.5243 44.651 75.1597 44.7729 75.7057 44.7818C75.3247 45.1491 74.8126 45.3771 74.2638 45.4238C73.4283 45.4843 72.8209 44.9473 72.2835 44.4334C72.1325 44.2888 71.8551 44.4752 72.0076 44.6212C72.5937 45.1818 73.2411 45.754 74.1413 45.7451C74.9281 45.7353 75.7858 45.3304 76.2036 44.711ZM72.489 41.6152C72.8267 41.6 72.4524 41.7994 72.3221 41.8221C72.2383 41.8353 72.1532 41.8401 72.0684 41.8363C72.1383 41.7549 72.394 41.6196 72.4885 41.6138L72.489 41.6152ZM74.5957 42.4303C74.8007 42.263 75.1601 42.1633 75.4197 42.0837C75.7087 41.9965 76.0059 41.934 76.3073 41.8968C75.7435 42.1819 75.1374 42.3891 74.5084 42.5117C74.5357 42.4831 74.5647 42.456 74.5952 42.4303H74.5957Z" fill="#4684AF"/>
<path id="Rectangle" d="M88.4033 24.7971L96.0425 30.7935C96.3392 31.0263 96.3909 31.4555 96.158 31.7521C95.9252 32.0487 95.496 32.1004 95.1994 31.8676L87.5601 25.8712C87.2635 25.6384 87.2118 25.2092 87.4446 24.9126C87.6775 24.6159 88.1067 24.5642 88.4033 24.7971Z" fill="#D2D4D8"/>
<path id="Path_4" d="M96.1702 37.2779L81.6565 25.4837C81.6197 25.4536 81.6132 25.3984 81.642 25.36L82.3633 24.4091C82.3924 24.371 82.4457 24.3643 82.4828 24.3941L96.9979 36.1869C97.0345 36.2172 97.0408 36.2724 97.0119 36.3106L96.2906 37.262C96.2767 37.2807 96.2562 37.293 96.2336 37.2959C96.211 37.2989 96.1881 37.2925 96.1702 37.2779Z" fill="#D2D4D8"/>
<path id="Path_5" d="M94.6796 39.7623L80.1653 27.9684C80.1285 27.9384 80.122 27.8831 80.1508 27.8448L80.8721 26.894C80.9012 26.8558 80.9546 26.8492 80.9916 26.879L95.5064 38.6738C95.5432 38.7039 95.5496 38.7591 95.5208 38.7974L94.7995 39.7488C94.7698 39.7865 94.7164 39.7925 94.6796 39.7623Z" fill="#D2D4D8"/>
<path id="Path_6" d="M92.693 41.7514L78.1779 29.9568C78.1412 29.9269 78.1347 29.8718 78.1635 29.8336L78.8853 28.8822C78.9144 28.8441 78.9677 28.8374 79.0047 28.8673L93.5189 40.6619C93.5367 40.6762 93.5482 40.6972 93.5509 40.7203C93.5536 40.7434 93.5473 40.7667 93.5334 40.785L92.812 41.7364C92.783 41.7742 92.73 41.7809 92.693 41.7514Z" fill="#D2D4D8"/>
<path id="Path_7" d="M91.2031 43.7397L76.6868 31.9451C76.6499 31.915 76.6435 31.8598 76.6723 31.8215L77.3937 30.87C77.4228 30.8319 77.4761 30.8252 77.5132 30.8551L92.0281 42.6501C92.0646 42.6802 92.071 42.735 92.0425 42.7733L91.3207 43.7247C91.2919 43.7619 91.2397 43.7685 91.2031 43.7397Z" fill="#D2D4D8"/>
<path id="Path_8" d="M89.7101 46.7211L75.1956 34.9267C75.1587 34.8966 75.1523 34.8414 75.1811 34.8031L75.9024 33.8517C75.9317 33.8137 75.985 33.8072 76.0219 33.8372L90.5369 45.6311C90.5736 45.6613 90.5798 45.7165 90.5509 45.7547L89.8296 46.7056C89.8006 46.7439 89.7473 46.7508 89.7101 46.7211Z" fill="#D2D4D8"/>
<path id="Path_9" d="M88.2201 48.2114L73.705 36.4173C73.6684 36.387 73.6621 36.3318 73.691 36.2936L74.4124 35.3427C74.4415 35.3046 74.4948 35.2979 74.5318 35.3277L89.0464 47.1219C89.0832 47.152 89.0897 47.2072 89.0609 47.2455L88.3395 48.1969C88.3103 48.2349 88.257 48.2414 88.2201 48.2114Z" fill="#D2D4D8"/>
<path id="Shape_2" d="M80.4929 51.7295C79.7812 51.1712 79.4759 50.239 79.7193 49.3677C79.9628 48.4964 80.707 47.8576 81.6049 47.7491C82.5029 47.6406 83.3778 48.0839 83.8217 48.8721C84.2655 49.6604 84.1909 50.6384 83.6326 51.3502C82.8697 52.321 81.465 52.4907 80.4929 51.7295ZM82.9559 48.5917C82.1949 47.9935 81.0931 48.1256 80.495 48.8868C79.8969 49.6479 80.029 50.7499 80.79 51.3481C81.551 51.9463 82.6527 51.8142 83.2508 51.0531C83.848 50.2917 83.716 49.1904 82.9559 48.5917Z" fill="#D2D4D8"/>
<g id="Path_10">
<g id="Vector_3" filter="url(#filter1_d_3390_373)">
<path d="M59.692 41.2278L38.0845 56.1566C38.0177 56.2021 37.9274 56.1842 37.8822 56.1163L20.0248 29.1013C19.98 29.0332 19.9976 28.9409 20.0642 28.895L41.6731 13.9648C41.7397 13.919 41.83 13.937 41.8749 14.0051L59.7323 41.02C59.7542 41.053 59.7623 41.0935 59.7547 41.1326C59.7471 41.1716 59.7245 41.2059 59.692 41.2278Z" fill="black"/>
</g>
<path id="Vector_4" d="M59.692 41.2278L38.0845 56.1566C38.0177 56.2021 37.9274 56.1842 37.8822 56.1163L20.0248 29.1013C19.98 29.0332 19.9976 28.9409 20.0642 28.895L41.6731 13.9648C41.7397 13.919 41.83 13.937 41.8749 14.0051L59.7323 41.02C59.7542 41.053 59.7623 41.0935 59.7547 41.1326C59.7471 41.1716 59.7245 41.2059 59.692 41.2278Z" fill="white"/>
</g>
<path id="Path_11" d="M31.8856 25.2269L24.8559 30.3221C24.8123 30.3535 24.7532 30.3412 24.7237 30.2946L23.9918 29.1332C23.9625 29.0865 23.974 29.0231 24.0174 28.9915L31.0471 23.8963C31.0907 23.8649 31.1498 23.8772 31.1792 23.9238L31.9107 25.0851C31.9401 25.1318 31.9289 25.1951 31.8856 25.2269Z" fill="#D2D4D8"/>
<path id="Path_12" d="M43.8098 21.6798L26.3727 33.3047C26.3276 33.3343 26.2669 33.3227 26.2363 33.2787L25.4827 32.1763C25.4524 32.1321 25.464 32.072 25.5086 32.0418L42.9463 20.4173C42.9676 20.4024 42.9941 20.3968 43.0197 20.4016C43.0454 20.4064 43.0679 20.4213 43.0821 20.4429L43.8372 21.5453C43.8672 21.5899 43.855 21.65 43.8098 21.6798Z" fill="#D2D4D8"/>
<path id="Path_13" d="M45.7998 24.6615L28.3636 36.2858C28.3423 36.3006 28.3157 36.3062 28.2901 36.3013C28.2645 36.2964 28.242 36.2814 28.2278 36.2597L27.4728 35.1579C27.4576 35.1368 27.4518 35.1105 27.4568 35.0851C27.4618 35.0596 27.4771 35.0374 27.4992 35.0234L44.9353 23.3991C44.9567 23.3843 44.9832 23.3787 45.0088 23.3836C45.0345 23.3885 45.057 23.4035 45.0711 23.4251L45.8262 24.527C45.8564 24.5713 45.8446 24.6315 45.7998 24.6615Z" fill="#D2D4D8"/>
<path id="Path_14" d="M48.2847 27.6423L30.847 39.2672C30.8257 39.282 30.7991 39.2876 30.7735 39.2827C30.7479 39.2778 30.7254 39.2628 30.7112 39.2412L29.9562 38.1392C29.926 38.0949 29.9378 38.0348 29.9826 38.0048L47.4184 26.3798C47.4633 26.35 47.5243 26.3616 47.5547 26.4059L48.3092 27.5083C48.3244 27.5291 48.3304 27.5551 48.3258 27.5804C48.3211 27.6056 48.3063 27.628 48.2847 27.6423Z" fill="#D2D4D8"/>
<path id="Path_15" d="M49.7755 30.1285L32.3395 41.7533C32.2945 41.7831 32.2336 41.7715 32.2031 41.7272L31.4481 40.6249C31.4331 40.6038 31.4274 40.5776 31.4324 40.5523C31.4374 40.527 31.4526 40.5048 31.4745 40.4908L48.9106 28.8661C48.932 28.8511 48.9587 28.8454 48.9844 28.8504C49.0102 28.8553 49.0327 28.8704 49.0469 28.8921L49.8019 29.9941C49.8319 30.0385 49.8201 30.0984 49.7755 30.1285Z" fill="#D2D4D8"/>
<path id="Path_16" d="M51.7634 33.1331L39.2813 41.7531C39.2371 41.7835 39.1771 41.7716 39.1472 41.7266L38.4049 40.6039C38.3901 40.5824 38.3845 40.5557 38.3894 40.53C38.3943 40.5042 38.4093 40.4816 38.4308 40.4674L50.913 31.8474C50.9572 31.817 51.0171 31.8289 51.047 31.8739L51.7894 32.9961C51.8191 33.0413 51.8075 33.1025 51.7634 33.1331Z" fill="#D2D4D8"/>
<path id="Path_17" d="M53.7507 36.0899L36.3143 47.7165C36.2695 47.7464 36.2086 47.735 36.178 47.6909L35.423 46.5885C35.3928 46.5441 35.4046 46.484 35.4494 46.454L52.8857 34.8284C52.9307 34.7988 52.9915 34.8104 53.022 34.8544L53.7771 35.9569C53.7918 35.9779 53.7973 36.0038 53.7923 36.0289C53.7873 36.0539 53.7723 36.076 53.7507 36.0899Z" fill="#D2D4D8"/>
<path id="Path_18" d="M55.7384 39.0726L38.302 50.6986C38.2571 50.7284 38.1961 50.7168 38.1657 50.6725L37.4112 49.5705C37.3961 49.5495 37.3904 49.5233 37.3953 49.4981C37.4001 49.4728 37.4153 49.4506 37.4371 49.4365L54.8735 37.8105C54.9185 37.7806 54.9794 37.7923 55.0098 37.8365L55.7649 38.9385C55.7948 38.9828 55.783 39.0426 55.7384 39.0726Z" fill="#D2D4D8"/>
<g id="Path_19">
<g id="Vector_5" filter="url(#filter2_d_3390_373)">
<path d="M42.4739 41.7669C42.3792 41.7835 42.289 41.7207 42.2717 41.6262L36.4021 8.97473C36.3855 8.88019 36.4484 8.79001 36.5429 8.77278L63.1253 4.00258C63.2197 3.98629 63.3097 4.04873 63.3274 4.1428L69.1966 36.7948C69.2134 36.8892 69.1507 36.9795 69.0562 36.9967L42.4739 41.7669Z" fill="black"/>
</g>
<path id="Vector_6" d="M42.4739 41.7669C42.3792 41.7835 42.289 41.7207 42.2717 41.6262L36.4021 8.97473C36.3855 8.88019 36.4484 8.79001 36.5429 8.77278L63.1253 4.00258C63.2197 3.98629 63.3097 4.04873 63.3274 4.1428L69.1966 36.7948C69.2134 36.8892 69.1507 36.9795 69.0562 36.9967L42.4739 41.7669Z" fill="white"/>
</g>
<path id="Rectangle_2" d="M45.4912 23.0542L48.6988 22.4782L50.3285 31.5539L47.1209 32.1299L45.4912 23.0542Z" fill="#D2D4D8"/>
<path id="Rectangle_3" d="M49.7617 24.812L52.9693 24.236L54.1598 30.8654L50.9521 31.4414L49.7617 24.812Z" fill="#D2D4D8"/>
<path id="Rectangle_4" d="M53.8994 26.0938L57.107 25.5178L57.9454 30.1865L54.7378 30.7625L53.8994 26.0938Z" fill="#D2D4D8"/>
<path id="Rectangle_5" d="M57.0938 22.3008L60.3014 21.7248L61.6997 29.5122L58.4921 30.0882L57.0938 22.3008Z" fill="#D2D4D8"/>
<path id="Path_20" d="M53.2284 12.202L40.1813 14.4357C40.136 14.4427 40.0932 14.4139 40.0849 14.371L39.88 13.2847C39.8727 13.2415 39.9029 13.2007 39.948 13.1928L52.995 10.959C53.0403 10.9521 53.0831 10.9809 53.0915 11.0238L53.2959 12.1097C53.3035 12.1528 53.2735 12.1939 53.2284 12.202Z" fill="#D2D4D8"/>
<path id="Path_21" d="M59.193 13.6726L40.177 16.9204C40.1324 16.9273 40.0902 16.899 40.082 16.8567L39.8799 15.7884C39.873 15.746 39.9026 15.706 39.9469 15.698L58.9629 12.4497C59.0075 12.4431 59.0496 12.4713 59.058 12.5134L59.2596 13.5822C59.2668 13.6245 59.2373 13.6646 59.193 13.6726Z" fill="#D2D4D8"/>
<path id="Path_22" d="M62.6732 15.1841L41.1716 18.9082C41.1269 18.9149 41.0847 18.8862 41.0763 18.8433L40.8741 17.7565C40.8669 17.7133 40.8968 17.6724 40.9413 17.6645L62.4405 13.9404C62.4852 13.9337 62.5274 13.9624 62.5359 14.0053L62.7385 15.0917C62.7459 15.1344 62.7171 15.1751 62.6732 15.1841Z" fill="#D2D4D8"/>
<path id="Rectangle_6" d="M44.579 34.5357L58.5942 32.019C58.9501 31.9551 59.2904 32.1918 59.3543 32.5476C59.4182 32.9035 59.1815 33.2438 58.8256 33.3077L44.8104 35.8244C44.4545 35.8883 44.1142 35.6516 44.0503 35.2958C43.9864 34.9399 44.2231 34.5996 44.579 34.5357Z" fill="#D2D4D8"/>
<path id="Path_23" d="M66.1517 35.063L44.6501 38.7871C44.6054 38.7938 44.5632 38.7651 44.5548 38.7222L44.3526 37.6354C44.3454 37.5922 44.3753 37.5513 44.4199 37.5434L65.919 33.8193C65.9638 33.8126 66.0059 33.8413 66.0144 33.8842L66.217 34.9706C66.2244 35.0133 66.1956 35.054 66.1517 35.063Z" fill="#D2D4D8"/>
<path id="Path_24" d="M52.7287 20.0892L41.6707 21.89C41.6255 21.8966 41.5828 21.8693 41.5745 21.8285L41.3702 20.7985C41.3631 20.7576 41.3931 20.719 41.438 20.7113L52.4984 18.9101C52.5435 18.9037 52.586 18.9309 52.5945 18.9716L52.7984 20.0021C52.8056 20.0436 52.7744 20.0826 52.7287 20.0892Z" fill="#D2D4D8"/>
<path id="Path_25" d="M63.1689 18.1988L53.5962 19.9022C53.5515 19.9091 53.5094 19.8797 53.5009 19.8357L53.299 18.7202C53.2915 18.6758 53.3215 18.6338 53.3662 18.6258L62.9389 16.9225C62.9836 16.9153 63.0259 16.9448 63.0341 16.989L63.2361 18.104C63.2436 18.1484 63.2137 18.1907 63.1689 18.1988Z" fill="#D2D4D8"/>
<path id="Rectangle_7" d="M54.5057 10.2066L60.9959 9.04112C61.3518 8.97722 61.6921 9.21391 61.756 9.56979C61.8199 9.92568 61.5832 10.266 61.2273 10.3299L54.7371 11.4953C54.3812 11.5592 54.0409 11.3225 53.977 10.9666C53.9131 10.6108 54.1498 10.2705 54.5057 10.2066Z" fill="#D2D4D8"/>
<g id="Group" opacity="0.2">
<path id="Path_26" opacity="0.2" d="M80.0053 49.2168L54.4115 40.905C54.3677 40.8909 54.3315 40.8601 54.3107 40.8196C54.2899 40.779 54.2863 40.7319 54.3006 40.6887L64.6382 9.58531C64.6684 9.49544 64.7663 9.44652 64.8575 9.47575L90.4513 17.7875C90.5422 17.8174 90.5917 17.9142 90.5621 18.0043L80.2231 49.1063C80.1933 49.1958 80.0962 49.245 80.0053 49.2168Z" fill="#3D3D3D"/>
<path id="Path_27" opacity="0.2" d="M78.0717 19.3101L74.3627 25.6544L67.3447 27.9888C68.396 31.0764 71.3843 33.1064 74.6773 32.97C77.9703 32.8335 80.7762 30.5634 81.5624 27.3996C82.3486 24.2358 80.926 20.939 78.0717 19.3101Z" fill="#3D3D3D"/>
<path id="Path_28" opacity="0.2" d="M77.6818 18.0837C75.5445 16.8631 72.9323 16.7762 70.7168 17.8518L73.9752 24.4242L77.6818 18.0837Z" fill="#3D3D3D"/>
<path id="Path_29" opacity="0.2" d="M69.894 18.4766C66.5506 20.0883 64.9408 23.9058 66.1363 27.3876L73.1543 25.0532L69.894 18.4766Z" fill="#3D3D3D"/>
<path id="Path_30" opacity="0.2" d="M69.6237 35.3716L60.4089 32.3784C60.3901 32.3727 60.3745 32.3597 60.3655 32.3425C60.3566 32.3253 60.355 32.3052 60.3611 32.2868L60.6769 31.3356C60.6829 31.3166 60.6965 31.3008 60.7145 31.2919C60.7325 31.283 60.7535 31.2817 60.7725 31.2884L69.9873 34.2811C70.0066 34.2869 70.0227 34.3003 70.0317 34.3182C70.0407 34.3361 70.0419 34.3568 70.035 34.3756L69.7192 35.3267C69.7126 35.3452 69.6988 35.3604 69.6809 35.3688C69.663 35.3772 69.6424 35.3782 69.6237 35.3716Z" fill="#3D3D3D"/>
<path id="Path_31" opacity="0.2" d="M73.764 39.026L59.7175 34.464C59.6987 34.4581 59.6831 34.4451 59.6741 34.4278C59.6651 34.4105 59.6636 34.3903 59.6697 34.3719L59.9855 33.4207C59.9914 33.4016 60.0049 33.3857 60.023 33.3768C60.0411 33.3679 60.0621 33.3667 60.0811 33.3735L74.1276 37.9355C74.1663 37.9482 74.1876 37.9892 74.1754 38.0276L73.8591 38.9788C73.8532 38.9978 73.8397 39.0135 73.8217 39.0225C73.8038 39.0314 73.7829 39.0327 73.764 39.026Z" fill="#3D3D3D"/>
<path id="Path_32" opacity="0.2" d="M68.3335 39.9165L58.9213 36.8586C58.8827 36.8462 58.8613 36.8053 58.8736 36.767L59.1898 35.8159C59.1958 35.7974 59.2089 35.7821 59.2263 35.7732C59.2437 35.7644 59.2639 35.7627 59.2825 35.7686L68.6946 38.8265C68.7336 38.8389 68.7549 38.8801 68.7424 38.9186L68.4261 39.8697C68.4134 39.9078 68.3721 39.9286 68.3335 39.9165Z" fill="#3D3D3D"/>
<path id="Rectangle_8" opacity="0.2" d="M75.4741 38.3739L79.6765 39.7388C79.976 39.8361 80.1399 40.1576 80.0426 40.4571C80.0422 40.4583 80.0418 40.4596 80.0414 40.4608C79.9412 40.7622 79.6165 40.9263 79.3144 40.8282L75.112 39.4632C74.8125 39.366 74.6486 39.0444 74.7459 38.745C74.7463 38.7437 74.7467 38.7425 74.7471 38.7412C74.8473 38.4398 75.172 38.2757 75.4741 38.3739Z" fill="#3D3D3D"/>
<path id="Rectangle_9" opacity="0.2" d="M71.4385 34.7538L80.3687 37.6543C80.6682 37.7516 80.832 38.0732 80.7348 38.3726C80.7344 38.3738 80.734 38.3751 80.7336 38.3763C80.6334 38.6777 80.3087 38.8418 80.0066 38.7437L71.0764 35.8432C70.777 35.7459 70.6131 35.4243 70.7103 35.1249C70.7107 35.1237 70.7111 35.1224 70.7115 35.1212C70.8117 34.8198 71.1364 34.6557 71.4385 34.7538Z" fill="#3D3D3D"/>
</g>
<g id="Path_33">
<g id="Vector_7" filter="url(#filter3_d_3390_373)">
<path d="M80.9962 45.7368L55.4033 37.4249C55.3124 37.3951 55.263 37.2981 55.2929 37.2082L65.6316 6.10582C65.6618 6.01595 65.7597 5.96702 65.8508 5.99625L91.4438 14.3081C91.5347 14.338 91.584 14.4349 91.5541 14.5249L81.2155 45.6272C81.1853 45.7171 81.0873 45.766 80.9962 45.7368Z" fill="black"/>
</g>
<path id="Vector_8" d="M80.9962 45.7368L55.4033 37.4249C55.3124 37.3951 55.263 37.2981 55.2929 37.2082L65.6316 6.10582C65.6618 6.01595 65.7597 5.96702 65.8508 5.99625L91.4438 14.3081C91.5347 14.338 91.584 14.4349 91.5541 14.5249L81.2155 45.6272C81.1853 45.7171 81.0873 45.766 80.9962 45.7368Z" fill="white"/>
</g>
<path id="Path_34" d="M79.0445 15.9272L75.4687 22.3865L68.7021 24.7637C69.7157 27.9076 72.597 29.9747 75.772 29.8358C78.9471 29.6968 81.6525 27.3853 82.4105 24.1639C83.1685 20.9425 81.7967 17.5857 79.0445 15.9272Z" fill="#D2D4D8"/>
<path id="Path_35" opacity="0.490782" d="M78.642 15.0063C78.1688 14.7327 77.6688 14.5085 77.1499 14.3372C75.1846 13.688 73.0438 13.8379 71.1875 14.7546L74.6749 21.8909L78.642 15.0063Z" fill="url(#paint0_linear_3390_373)"/>
<path id="Path_36" d="M71.1695 15.4307C67.5822 17.0483 65.8549 20.8807 67.1377 24.3761L74.6673 22.0327L71.1695 15.4307Z" fill="#D2D4D8"/>
<path id="Path_37" d="M71.2575 31.826L61.7986 28.9198C61.7788 28.9141 61.7624 28.901 61.7531 28.8837C61.7439 28.8664 61.7426 28.8463 61.7495 28.8281L62.0742 27.9045C62.0803 27.886 62.0943 27.8707 62.1128 27.862C62.1313 27.8533 62.1528 27.8521 62.1723 27.8586L71.6312 30.7648C71.6509 30.7706 71.6672 30.7837 71.6764 30.801C71.6856 30.8182 71.687 30.8383 71.6802 30.8565L71.3556 31.7801C71.3495 31.7987 71.3356 31.8141 71.3171 31.8228C71.2985 31.8315 71.277 31.8326 71.2575 31.826Z" fill="#D4E8E8"/>
<path id="Path_38" d="M75.2475 35.802L61.2997 31.3982C61.2806 31.3925 61.2648 31.3796 61.2558 31.3624C61.2469 31.3452 61.2456 31.3252 61.2523 31.3071L61.5664 30.389C61.5723 30.3707 61.5858 30.3554 61.6037 30.3468C61.6216 30.3382 61.6424 30.337 61.6612 30.3434L75.609 34.7472C75.6276 34.7528 75.6431 34.7653 75.6521 34.7819C75.661 34.7985 75.6626 34.8179 75.6565 34.8357L75.3429 35.7537C75.3376 35.7727 75.3243 35.7887 75.3062 35.7978C75.2881 35.807 75.2668 35.8085 75.2475 35.802Z" fill="#D4E8E8"/>
<path id="Path_39" d="M69.2797 36.7953L59.8096 33.8705C59.7907 33.865 59.775 33.8526 59.766 33.8361C59.7569 33.8196 59.7553 33.8004 59.7615 33.7828L60.0793 32.8731C60.0852 32.8548 60.0988 32.8396 60.117 32.8311C60.1352 32.8225 60.1563 32.8214 60.1754 32.8279L69.6455 35.7523C69.6847 35.7641 69.7062 35.8036 69.6936 35.8404L69.3758 36.7501C69.3699 36.7684 69.3563 36.7836 69.3381 36.7921C69.3199 36.8007 69.2988 36.8018 69.2797 36.7953Z" fill="#D4E8E8"/>
<path id="Rectangle_10" d="M76.7003 35.1374L80.8766 36.5097C81.1798 36.6093 81.3448 36.9359 81.2452 37.239C81.1456 37.5422 80.8191 37.7072 80.5159 37.6076L76.3396 36.2353C76.0364 36.1357 75.8714 35.8092 75.971 35.506C76.0706 35.2028 76.3971 35.0378 76.7003 35.1374Z" fill="#D4E8E8"/>
<path id="Path_40" d="M81.7047 35.3055L71.7365 31.972C71.7176 31.9659 71.7018 31.9524 71.6927 31.9345C71.6837 31.9165 71.6821 31.8956 71.6883 31.8764L72.0068 30.8891C72.0195 30.8492 72.0616 30.8272 72.1008 30.8401L82.069 34.1736C82.0879 34.1796 82.1037 34.1932 82.1127 34.2111C82.1218 34.2291 82.1234 34.25 82.1172 34.2692L81.7986 35.2564C81.786 35.2964 81.7439 35.3183 81.7047 35.3055Z" fill="#D4E8E8"/>
<g id="Path_41">
<g id="Vector_9" filter="url(#filter4_d_3390_373)">
<path d="M81.6238 30.1027V60.2264C81.6238 61.0131 80.9622 61.6481 80.1455 61.6481H43.8453C43.0286 61.6481 42.3633 61.0131 42.3633 60.2264V25.8016C42.3633 25.0149 43.0296 24.3755 43.8453 24.3755H51.9999C52.5069 24.3726 52.9808 24.6275 53.2588 25.0525L55.1392 27.9963C55.4154 28.4235 55.8902 28.6795 56.398 28.6752H80.147C80.9622 28.6785 81.6238 29.3159 81.6238 30.1027Z" fill="black"/>
</g>
<path id="Vector_10" d="M81.6238 30.1027V60.2264C81.6238 61.0131 80.9622 61.6481 80.1455 61.6481H43.8453C43.0286 61.6481 42.3633 61.0131 42.3633 60.2264V25.8016C42.3633 25.0149 43.0296 24.3755 43.8453 24.3755H51.9999C52.5069 24.3726 52.9808 24.6275 53.2588 25.0525L55.1392 27.9963C55.4154 28.4235 55.8902 28.6795 56.398 28.6752H80.147C80.9622 28.6785 81.6238 29.3159 81.6238 30.1027Z" fill="url(#paint1_linear_3390_373)"/>
<path id="Vector_11" d="M81.6238 30.1027V60.2264C81.6238 61.0131 80.9622 61.6481 80.1455 61.6481H43.8453C43.0286 61.6481 42.3633 61.0131 42.3633 60.2264V25.8016C42.3633 25.0149 43.0296 24.3755 43.8453 24.3755H51.9999C52.5069 24.3726 52.9808 24.6275 53.2588 25.0525L55.1392 27.9963C55.4154 28.4235 55.8902 28.6795 56.398 28.6752H80.147C80.9622 28.6785 81.6238 29.3159 81.6238 30.1027Z" fill="url(#paint2_linear_3390_373)"/>
</g>
<path id="Rectangle_11" d="M78.3689 29.3452H45.1218C44.4219 29.3452 43.8545 29.9126 43.8545 30.6125V59.8839C43.8545 60.5838 44.4219 61.1512 45.1218 61.1512H78.3689C79.0688 61.1512 79.6362 60.5838 79.6362 59.8839V30.6125C79.6362 29.9126 79.0688 29.3452 78.3689 29.3452Z" fill="#EFEFEF"/>
<path id="Rectangle_12" d="M78.3689 29.8423H45.1218C44.4219 29.8423 43.8545 30.4097 43.8545 31.1096V60.381C43.8545 61.0809 44.4219 61.6483 45.1218 61.6483H78.3689C79.0688 61.6483 79.6362 61.0809 79.6362 60.381V31.1096C79.6362 30.4097 79.0688 29.8423 78.3689 29.8423Z" fill="white"/>
<path id="Path_42" opacity="0.2" d="M81.6238 30.8364V57.6842L81.3525 60.0033C81.262 60.781 80.7185 61.4288 79.9723 61.6485H43.8453C43.0286 61.6485 42.3633 61.0104 42.3633 60.22V35.5514H48.7174C49.4948 35.5517 50.1979 35.0863 50.506 34.3674L51.5102 32.0243C51.8148 31.3037 52.5174 30.8361 53.2949 30.8364H81.6238Z" fill="#3D3D3D"/>
<path id="Path_43" d="M81.9626 60.4188C81.8482 61.4032 81.0239 62.145 80.0447 62.145H43.8946C42.9153 62.145 42.0909 61.4033 41.9766 60.4188L39.3951 38.2184C39.3306 37.664 39.5034 37.1081 39.8699 36.691C40.2363 36.2738 40.7615 36.0351 41.3131 36.0351H49.5781C50.3496 36.0352 51.047 35.5706 51.3521 34.8534L52.3472 32.5148C52.6522 31.7976 53.3497 31.333 54.1211 31.333H83.1703C83.722 31.3326 84.2476 31.5711 84.6144 31.9883C84.9812 32.4055 85.1542 32.9616 85.0897 33.5163L81.9626 60.4188Z" fill="url(#paint3_linear_3390_373)"/>
</g>
</g>
<defs>
<filter id="filter0_d_3390_373" x="44.7275" y="12.9214" width="76.7754" height="80.7515" filterUnits="userSpaceOnUse" color-interpolation-filters="sRGB">
<feFlood flood-opacity="0" result="BackgroundImageFix"/>
<feColorMatrix in="SourceAlpha" type="matrix" values="0 0 0 0 0 0 0 0 0 0 0 0 0 0 0 0 0 0 127 0" result="hardAlpha"/>
<feOffset dy="16"/>
<feGaussianBlur stdDeviation="10"/>
<feColorMatrix type="matrix" values="0 0 0 0 0 0 0 0 0 0 0 0 0 0 0 0 0 0 0.093482 0"/>
<feBlend mode="normal" in2="BackgroundImageFix" result="effect1_dropShadow_3390_373"/>
<feBlend mode="normal" in="SourceGraphic" in2="effect1_dropShadow_3390_373" result="shape"/>
</filter>
<filter id="filter1_d_3390_373" x="0" y="9.93945" width="79.7578" height="82.2422" filterUnits="userSpaceOnUse" color-interpolation-filters="sRGB">
<feFlood flood-opacity="0" result="BackgroundImageFix"/>
<feColorMatrix in="SourceAlpha" type="matrix" values="0 0 0 0 0 0 0 0 0 0 0 0 0 0 0 0 0 0 127 0" result="hardAlpha"/>
<feOffset dy="16"/>
<feGaussianBlur stdDeviation="10"/>
<feColorMatrix type="matrix" values="0 0 0 0 0 0 0 0 0 0 0 0 0 0 0 0 0 0 0.093482 0"/>
<feBlend mode="normal" in2="BackgroundImageFix" result="effect1_dropShadow_3390_373"/>
<feBlend mode="normal" in="SourceGraphic" in2="effect1_dropShadow_3390_373" result="shape"/>
</filter>
<filter id="filter2_d_3390_373" x="16.3994" y="0" width="72.7998" height="77.7695" filterUnits="userSpaceOnUse" color-interpolation-filters="sRGB">
<feFlood flood-opacity="0" result="BackgroundImageFix"/>
<feColorMatrix in="SourceAlpha" type="matrix" values="0 0 0 0 0 0 0 0 0 0 0 0 0 0 0 0 0 0 127 0" result="hardAlpha"/>
<feOffset dy="16"/>
<feGaussianBlur stdDeviation="10"/>
<feColorMatrix type="matrix" values="0 0 0 0 0 0 0 0 0 0 0 0 0 0 0 0 0 0 0.093482 0"/>
<feBlend mode="normal" in2="BackgroundImageFix" result="effect1_dropShadow_3390_373"/>
<feBlend mode="normal" in="SourceGraphic" in2="effect1_dropShadow_3390_373" result="shape"/>
</filter>
<filter id="filter3_d_3390_373" x="35.2842" y="1.98779" width="76.2783" height="79.7573" filterUnits="userSpaceOnUse" color-interpolation-filters="sRGB">
<feFlood flood-opacity="0" result="BackgroundImageFix"/>
<feColorMatrix in="SourceAlpha" type="matrix" values="0 0 0 0 0 0 0 0 0 0 0 0 0 0 0 0 0 0 127 0" result="hardAlpha"/>
<feOffset dy="16"/>
<feGaussianBlur stdDeviation="10"/>
<feColorMatrix type="matrix" values="0 0 0 0 0 0 0 0 0 0 0 0 0 0 0 0 0 0 0.093482 0"/>
<feBlend mode="normal" in2="BackgroundImageFix" result="effect1_dropShadow_3390_373"/>
<feBlend mode="normal" in="SourceGraphic" in2="effect1_dropShadow_3390_373" result="shape"/>
</filter>
<filter id="filter4_d_3390_373" x="22.3633" y="20.3755" width="79.2607" height="77.2725" filterUnits="userSpaceOnUse" color-interpolation-filters="sRGB">
<feFlood flood-opacity="0" result="BackgroundImageFix"/>
<feColorMatrix in="SourceAlpha" type="matrix" values="0 0 0 0 0 0 0 0 0 0 0 0 0 0 0 0 0 0 127 0" result="hardAlpha"/>
<feOffset dy="16"/>
<feGaussianBlur stdDeviation="10"/>
<feColorMatrix type="matrix" values="0 0 0 0 0.258824 0 0 0 0 0.6 0 0 0 0 0.882353 0 0 0 0.3 0"/>
<feBlend mode="normal" in2="BackgroundImageFix" result="effect1_dropShadow_3390_373"/>
<feBlend mode="normal" in="SourceGraphic" in2="effect1_dropShadow_3390_373" result="shape"/>
</filter>
<linearGradient id="paint0_linear_3390_373" x1="74.9148" y1="13.9395" x2="74.9148" y2="21.8909" gradientUnits="userSpaceOnUse">
<stop stop-color="#EA1500"/>
<stop offset="1" stop-color="#CC0000"/>
</linearGradient>
<linearGradient id="paint1_linear_3390_373" x1="61.9935" y1="24.3755" x2="61.9935" y2="61.6481" gradientUnits="userSpaceOnUse">
<stop stop-color="#7A62E4"/>
<stop offset="1" stop-color="#656EE4"/>
</linearGradient>
<linearGradient id="paint2_linear_3390_373" x1="61.9935" y1="24.3755" x2="61.9935" y2="61.6481" gradientUnits="userSpaceOnUse">
<stop stop-color="#EA1500"/>
<stop offset="1" stop-color="#CC0000"/>
</linearGradient>
<linearGradient id="paint3_linear_3390_373" x1="62.2424" y1="31.333" x2="62.2424" y2="62.145" gradientUnits="userSpaceOnUse">
<stop stop-color="#EA1500"/>
<stop offset="1" stop-color="#CC0000"/>
</linearGradient>
</defs>
</svg>
