<svg width="50" height="49" viewBox="0 0 50 49" fill="none" xmlns="http://www.w3.org/2000/svg">
<g clip-path="url(#clip0_3167_1262)">
<path d="M36.6729 30.0509C38.2793 30.0509 38.54 27.3712 38.54 25.4858C38.54 24.6245 38.4424 23.0071 38.1787 22.1018C38.0986 21.7285 37.7578 20.5083 36.6533 20.5083C35.79 20.5083 35.4082 21.2739 35.2676 21.6893C34.8057 23.0856 34.8057 25.1911 34.8057 25.526C34.8057 27.8669 35.167 30.0509 36.6729 30.0509Z" fill="#002438"/>
<path d="M25.9316 23.3421C25.9316 23.1641 25.9512 22.1812 25.9717 21.8262L22.3975 26.9616H25.9316V23.3421Z" fill="#002438"/>
<path d="M13.9648 23.3421C13.9648 23.1641 13.9844 22.1812 14.0049 21.8262L10.4307 26.9616H13.9648V23.3421Z" fill="#002438"/>
<path d="M50 0H0V7.65625H50V0Z" fill="#002438"/>
<path d="M0 30.625L25 49L50 30.625V10.7188H0V30.625ZM36.6328 18.2257C38.6006 18.2257 39.7646 19.2689 40.2871 20.0364C41.0098 21.0786 41.5518 22.4165 41.5518 24.9938C41.5518 28.1817 40.8096 32.3725 36.5928 32.3725C32.999 32.3725 31.7549 28.9885 31.7549 25.3288C31.7549 23.4989 32.1357 18.2257 36.6328 18.2257ZM20.1494 26.5098L25.7705 18.4229H28.7627L28.7422 26.9031H30.6494V29.1655H28.7422V32.1562H25.7705V29.1655H20.1494V26.5098ZM8.18066 26.5098L13.8018 18.4229H16.7969L16.7764 26.9031H18.6836V29.1655H16.7734V32.1562H13.8018V29.1655H8.18066V26.5098Z" fill="#002438"/>
</g>
<defs>
<clipPath id="clip0_3167_1262">
<rect width="50" height="49" fill="white"/>
</clipPath>
</defs>
</svg>
