<svg width="50" height="49" viewBox="0 0 50 49" fill="none" xmlns="http://www.w3.org/2000/svg">
<path d="M14.5033 21.0873L15.43 22.1075C15.7717 19.0244 17.2021 16.1554 19.474 13.9966C19.8808 13.608 20.3116 13.2443 20.764 12.9075C19.5369 12.3429 18.1366 12.2567 16.847 12.6663L6.1527 0.821164C5.77695 0.421246 5.25617 0.18166 4.70218 0.153846C4.14819 0.126031 3.60515 0.312207 3.18967 0.672399C2.77418 1.03259 2.51938 1.53808 2.47997 2.08033C2.44056 2.62258 2.61968 3.15836 2.97887 3.57263L13.6722 15.4216C13.2319 16.3425 13.076 17.3695 13.2237 18.3762C13.3713 19.3828 13.8161 20.3252 14.5033 21.0873Z" fill="#002438"/>
<path d="M46.2138 31.1036C46.726 30.3822 47.0379 29.5426 47.1188 28.6674C47.1997 27.7921 47.0468 26.9113 46.6752 26.1114C46.3037 25.3116 45.7261 24.6203 44.9994 24.1053C44.2727 23.5904 43.4217 23.2697 42.5302 23.1746C42.2982 19.943 40.8245 16.9179 38.4064 14.709C35.9883 12.5002 32.8056 11.272 29.5 11.272C26.1943 11.272 23.0116 12.5002 20.5935 14.709C18.1754 16.9179 16.7017 19.943 16.4697 23.1746C15.5791 23.2713 14.7295 23.5933 14.0043 24.1089C13.279 24.6246 12.703 25.3161 12.3328 26.1158C11.9626 26.9154 11.8109 27.7956 11.8926 28.6701C11.9743 29.5445 12.2866 30.3831 12.7988 31.1036H46.2138Z" fill="#002438"/>
<path d="M32.0215 39.5932C32.3252 39.0257 32.3574 38.4716 32.0537 38.172C31.75 37.8725 31.1826 37.905 30.6025 38.2027C30.4072 37.5902 30.0303 37.1748 29.5977 37.1748C29.165 37.1748 28.79 37.5902 28.5937 38.2027C28.0137 37.905 27.4482 37.8725 27.1436 38.172C26.8389 38.4716 26.8711 39.0257 27.1738 39.5932C26.5498 39.7846 26.127 40.154 26.127 40.578C26.127 41.002 26.5498 41.3695 27.1738 41.5609C26.8711 42.1351 26.8379 42.6844 27.1436 42.984C27.4492 43.2835 28.0137 43.25 28.5937 42.9524C28.7891 43.5659 29.166 43.9803 29.5977 43.9803C30.0293 43.9803 30.4072 43.5649 30.6025 42.9524C31.1826 43.25 31.748 43.2826 32.0537 42.984C32.3594 42.6854 32.3252 42.1303 32.0215 41.5609C32.6465 41.3695 33.0703 41.001 33.0703 40.578C33.0703 40.155 32.6465 39.7865 32.0215 39.5932ZM31.0293 41.1589C31.207 41.4939 31.2246 41.8212 31.0469 41.9973C30.8691 42.1734 30.5332 42.1552 30.1904 41.9801C30.0752 42.3409 29.8525 42.5859 29.5977 42.5859C29.3428 42.5859 29.1211 42.3409 29.0049 41.9801C28.6631 42.1552 28.3301 42.1715 28.1494 41.9982C27.9687 41.825 27.9883 41.4939 28.167 41.1589C27.7979 41.045 27.5488 40.8278 27.5488 40.578C27.5488 40.3282 27.7979 40.11 28.167 39.9971C27.9883 39.6612 27.9717 39.3339 28.1494 39.1578C28.3271 38.9817 28.6631 38.9999 29.0049 39.175C29.1211 38.8142 29.3428 38.5692 29.5977 38.5692C29.8525 38.5692 30.0752 38.8142 30.1904 39.175C30.5332 38.9999 30.8672 38.9836 31.0469 39.1578C31.2266 39.332 31.207 39.6612 31.0293 39.9971C31.3984 40.11 31.6475 40.3282 31.6475 40.578C31.6475 40.8278 31.3984 41.045 31.0293 41.1589Z" fill="#002438"/>
<path d="M46.6445 32.5217H11.5234V34.6186H13.0986L16.1836 48.9281H43.0879L46.1738 34.6186H47.5498V32.5217H46.6445ZM33.4814 42.1552C33.9697 43.0663 34.0215 43.9535 33.5312 44.432C33.041 44.9105 32.1367 44.8598 31.2061 44.3841C30.8936 45.3632 30.29 46.0331 29.5977 46.0331C28.9053 46.0331 28.3027 45.3689 27.9902 44.388C27.0586 44.8665 26.1533 44.9162 25.665 44.4368C25.1768 43.9573 25.2285 43.0701 25.7139 42.159C24.7129 41.8509 24.0352 41.2594 24.0352 40.5818C24.0352 39.9043 24.7129 39.3128 25.7139 39.0047C25.2256 38.0936 25.1748 37.2064 25.6641 36.7269C26.1533 36.2475 27.0586 36.2991 27.9902 36.7757C28.3037 35.7929 28.9062 35.1229 29.5977 35.1229C30.2891 35.1229 30.8936 35.7929 31.2061 36.769C32.1367 36.2905 33.042 36.2398 33.5312 36.7202C34.0205 37.2007 33.9678 38.0869 33.4824 38.998C34.4824 39.3061 35.1611 39.8957 35.1611 40.5751C35.1611 41.2546 34.4824 41.847 33.4814 42.1552Z" fill="#002438"/>
</svg>
