<svg width="49" height="49" viewBox="0 0 49 49" fill="none" xmlns="http://www.w3.org/2000/svg">
<g clip-path="url(#clip0_3167_1265)">
<path d="M16.8727 10.0776L13.1919 8.48127L11.7458 7.84771C11.612 7.92422 11.4739 7.99324 11.3324 8.05443C11.1892 8.12713 11.0383 8.18363 10.8826 8.22287H10.8635C10.7088 8.26386 10.5519 8.29582 10.3936 8.31857C10.0701 8.36929 9.7408 8.36929 9.41738 8.31857C9.17876 8.28375 8.94537 8.21945 8.72258 8.12717C8.50882 8.04293 8.30181 7.94247 8.10338 7.82666L6.61998 8.48414L2.97656 10.0776V13.0635H16.8727V10.0776Z" fill="#002438"/>
<path d="M11.332 8.03057C11.4754 7.97328 11.6136 7.90413 11.7455 7.82385L13.1915 8.46219L11.7646 7.80566C11.6144 7.88031 11.4842 7.95592 11.332 8.03057Z" fill="#002438"/>
<path d="M9.92441 7.12903C11.5735 7.12903 12.9104 5.53167 12.9104 3.56122C12.9104 1.59077 11.5735 -0.0065918 9.92441 -0.0065918C8.27533 -0.0065918 6.93848 1.59077 6.93848 3.56122C6.93848 5.53167 8.27533 7.12903 9.92441 7.12903Z" fill="#002438"/>
<path d="M-0.0273438 14.0588L0.967969 19.7101H18.8817L19.877 14.0588H-0.0273438Z" fill="#002438"/>
<path d="M32.2686 46.7683V47.4507H26.0948V46.7683H9.25586V49.0068H49.0282V46.7683H32.2686Z" fill="#002438"/>
<path d="M41.585 27.0496H38.0957V30.5389H41.585V27.0496Z" fill="#002438"/>
<path d="M41.585 32.8921H38.0957V36.3814H41.585V32.8921Z" fill="#002438"/>
<path d="M41.585 38.7522H38.0957V42.2415H41.585V38.7522Z" fill="#002438"/>
<path d="M45.6958 45.726V23.4109H12.5088V45.726H45.6958ZM14.1913 25.0934H44.0123V44.0426H14.1913V25.0934Z" fill="#002438"/>
<path d="M34.9622 27.863V41.428H17.1738V27.863H34.9622ZM35.7278 27.0974H16.4082V42.1936H35.7278V27.0974Z" fill="#002438"/>
<path d="M26.0901 35.8399C26.2031 35.8504 26.3208 35.861 26.4375 35.861H26.4481C26.5697 35.8609 26.6911 35.85 26.8108 35.8284C28.1506 35.5978 29.1536 34.1766 29.1536 32.5219C29.1536 31.1993 28.5057 30.0001 27.5027 29.467C27.2079 29.3136 26.8841 29.2239 26.5524 29.2039H26.3543C26.1773 29.2076 26.0014 29.2333 25.8308 29.2804C25.6671 29.3234 25.5097 29.3878 25.3628 29.4718C24.3598 29.9992 23.7119 31.2021 23.7119 32.5343C23.7157 34.2101 24.7369 35.6322 26.0901 35.8399Z" fill="#002438"/>
<path d="M28.1999 36.3672L28.1779 36.3816C27.7635 36.6406 27.2979 36.8064 26.8131 36.8678C26.6973 36.8783 26.5758 36.8888 26.4629 36.8888H26.4418C26.3241 36.8888 26.192 36.8764 26.103 36.8678C25.5937 36.8149 25.1045 36.641 24.6761 36.3605L24.6531 36.3452L22.2988 37.4678V40.6834H30.6078V37.4669L28.1999 36.3672Z" fill="#002438"/>
<path d="M11.5509 23.4108V22.4538H12.508H17.0788V20.7053H2.76922L2.75391 37.5491H11.5509V23.4108Z" fill="#002438"/>
</g>
<defs>
<clipPath id="clip0_3167_1265">
<rect width="49" height="49" fill="white"/>
</clipPath>
</defs>
</svg>
