<svg width="49" height="50" viewBox="0 0 49 50" fill="none" xmlns="http://www.w3.org/2000/svg">
<path d="M12.0632 23.3369H5.0625V43.4805H12.0632V23.3369Z" fill="#002438"/>
<path d="M2.41797 45.4824L2.41797 49.8535H37.0003V45.4824H2.41797Z" fill="#002438"/>
<path d="M22.7233 23.3369H15.7227V43.4805H22.7233V23.3369Z" fill="#002438"/>
<path d="M31.368 41.6494L26.3828 30.7119V43.4805H33.1777C32.3769 43.1141 31.7338 42.4634 31.368 41.6494Z" fill="#002438"/>
<path d="M20.8757 18.626C19.8361 16.2013 19.4226 13.5452 19.6747 10.9111C19.7206 10.4316 19.7905 9.95605 19.8814 9.48535L19.5675 9.27734L2.10547 21.1689H22.0347L21.1437 19.2158C21.0547 19.0293 20.9666 18.8359 20.8757 18.626Z" fill="#002438"/>
<path d="M34.6142 0.146484C34.3165 0.146484 34.0151 0.157227 33.7193 0.178711C31.759 0.324517 29.8617 0.948513 28.1869 1.99822C26.512 3.04793 25.1087 4.49266 24.0949 6.21092C23.0811 7.92917 22.4865 9.87071 22.361 11.8723C22.2355 13.8738 22.5829 15.8768 23.3738 17.7129C23.4504 17.8916 23.5241 18.0537 23.6054 18.2217V18.2305V18.2393L34.0151 41.0635C34.0683 41.1798 34.153 41.2781 34.2591 41.347C34.3652 41.416 34.4884 41.4526 34.6142 41.4526C34.74 41.4526 34.8631 41.416 34.9692 41.347C35.0754 41.2781 35.16 41.1798 35.2133 41.0635L45.6219 18.2256V18.2158L45.6267 18.2061C46.4632 16.4869 46.8973 14.5932 46.8948 12.6738C46.8948 5.7666 41.3842 0.146484 34.6142 0.146484ZM34.774 18.6826C33.5976 18.6826 32.4476 18.3267 31.4695 17.6597C30.4914 16.9928 29.729 16.0449 29.2788 14.9359C28.8286 13.8269 28.7108 12.6065 28.9403 11.4292C29.1698 10.2519 29.7363 9.17042 30.5682 8.32161C31.4 7.4728 32.4598 6.89475 33.6136 6.66057C34.7674 6.42638 35.9633 6.54657 37.0502 7.00595C38.137 7.46532 39.066 8.24324 39.7195 9.24134C40.3731 10.2394 40.7219 11.4129 40.7219 12.6133C40.7217 14.2229 40.095 15.7665 38.9796 16.9047C37.8642 18.0428 36.3514 18.6824 34.774 18.6826Z" fill="#002438"/>
</svg>
