<svg width="50" height="50" viewBox="0 0 50 50" fill="none" xmlns="http://www.w3.org/2000/svg">
<path d="M21.0996 39.167V38.3672H0V41.0674H50V38.3672H29.0039V39.167" fill="#002438"/>
<path d="M40.2002 14.833H19V15.833H40.2002V14.833Z" fill="#002438"/>
<path d="M40.2002 16.9326H19V17.9326H40.2002V16.9326Z" fill="#002438"/>
<path d="M24.2998 19.1328H19V20.0332H24.2998V19.1328Z" fill="#002438"/>
<path d="M16.4004 14.1328H9.40039V21.1328H16.4004V14.1328Z" fill="#002438"/>
<path d="M40.2002 25.0322H19V26.0322H40.2002V25.0322Z" fill="#002438"/>
<path d="M40.2002 27.1328H19V28.1328H40.2002V27.1328Z" fill="#002438"/>
<path d="M29.4004 29.333H19V30.333H29.4004V29.333Z" fill="#002438"/>
<path d="M16.4004 24.1328H9.40039V31.1328H16.4004V24.1328Z" fill="#002438"/>
<path d="M45.8008 36.9326H4.10156V8.93262H45.8008V36.9326ZM6.09961 34.9326H43.7998V10.9375H6.10449L6.09961 34.9326Z" fill="#002438"/>
</svg>
