<svg width="50" height="50" viewBox="0 0 50 50" fill="none" xmlns="http://www.w3.org/2000/svg">
<path d="M16.8066 34.5703V42.0645H8.30078V30.6855H7.06934L6.40918 19.9375L9.84863 18.3408C10.5854 18.8074 11.4313 19.0733 12.3026 19.1122C13.1738 19.151 14.04 18.9616 14.8154 18.5625L15.4443 28.7187L15.5674 30.6846L15.7344 33.4082L15.8076 34.5674L16.8066 34.5703Z" fill="#002438"/>
<path d="M16.8066 28.7197V30.6855H16.7998L16.6768 28.7197H16.8066Z" fill="#002438"/>
<path d="M12.5283 17.5C14.7383 17.5 16.5322 15.3594 16.5322 12.7148C16.5322 10.0703 14.7412 7.92969 12.5283 7.92969C10.3154 7.92969 8.52441 10.0703 8.52441 12.7148C8.52441 15.3594 10.3193 17.5 12.5283 17.5Z" fill="#002438"/>
<path d="M16.8066 28.7197V30.7842L16.7998 30.6855L16.6768 28.7197H16.8066Z" fill="#002438"/>
<path d="M33.3232 28.7197L33.2002 30.6855H33.1934V28.7197H33.3232Z" fill="#002438"/>
<path d="M43.5908 19.9375L42.9307 30.6855H41.6992V42.0625H33.1934V34.5703H34.1924L34.2656 33.4111L34.4326 30.6875L34.5557 28.7217L35.1777 18.583C35.8732 18.9377 36.6432 19.1215 37.4238 19.1191C38.3468 19.1147 39.251 18.8584 40.0391 18.3779L43.5908 19.9375Z" fill="#002438"/>
<path d="M37.4209 17.5C39.6309 17.5 41.4248 15.3594 41.4248 12.7148C41.4248 10.0703 39.6338 7.92969 37.4209 7.92969C35.208 7.92969 33.417 10.0703 33.417 12.7148C33.417 15.3594 35.2119 17.5 37.4209 17.5Z" fill="#002438"/>
<path d="M33.3232 28.7197L33.2002 30.6855L33.1934 30.7842V28.7197H33.3232Z" fill="#002438"/>
<path d="M34.0068 17.583L33.9395 18.7109L33.3232 28.7197H33.1934V30.7842L33.0332 33.335H31.2275V50H18.7725V33.335H16.9668L16.8066 30.7842V28.7197H16.6768L16.0664 18.7783L15.9932 17.583L21.04 15.2471C22.2008 15.9792 23.5434 16.3719 24.9157 16.3807C26.2881 16.3895 27.6356 16.0141 28.8057 15.2969L34.0068 17.583Z" fill="#002438"/>
<path d="M16.6768 28.7197H16.8066V30.7842L16.7998 30.6855L16.6768 28.7197Z" fill="#002438"/>
<path d="M33.3232 28.7197L33.2002 30.6855L33.1934 30.7842V28.7197H33.3232Z" fill="#002438"/>
<path d="M30.8272 7.00684C30.8272 10.8711 28.2012 14.0088 24.9678 14.0088C21.7344 14.0088 19.1006 10.8711 19.1006 7.00684C19.1006 3.14258 21.7246 0 24.9658 0C28.207 0 30.8272 3.13672 30.8272 7.00684Z" fill="#002438"/>
</svg>
