<svg width="48" height="50" viewBox="0 0 48 50" fill="none" xmlns="http://www.w3.org/2000/svg">
<path d="M6.69082 22.5996H2.08301V24.3994H6.69082V22.5996Z" fill="#002438"/>
<path d="M45.9165 22.5996H41.4043V24.3994H45.9165V22.5996Z" fill="#002438"/>
<path d="M28.0123 40.4004H27.1198V37.5703H24.2688V41.0898H23.3754V37.5703H20.5338V40.4004H19.6413V37.5703H16.9629V41.6504L19.7276 43.04V44.25H28.0995V43.04L30.8641 41.6504V37.5703H28.0123V40.4004Z" fill="#002438"/>
<path d="M19.7275 48.6103H21.3307L22.1275 50H25.6994L26.4954 48.6103H28.0994V47.4004H19.7275V48.6103Z" fill="#002438"/>
<path d="M28.0985 45.1797H19.7275V46.4795H28.0985V45.1797Z" fill="#002438"/>
<path d="M24.0479 8.8096C21.2449 8.8032 18.5132 9.72907 16.2506 11.4524C13.988 13.1757 12.3126 15.6064 11.4685 18.3906C10.6243 21.1748 10.6555 24.167 11.5575 26.9314C12.4595 29.6958 14.1852 32.0881 16.4832 33.7598H16.4354L16.9632 36.6211H30.8644L31.6613 33.7608C33.3924 32.4967 34.8063 30.8175 35.7837 28.8648C36.761 26.9121 37.2732 24.7432 37.2769 22.541C37.2344 18.9046 35.8255 15.4303 33.3524 12.8633C30.8793 10.2963 27.539 8.84101 24.0479 8.8096Z" fill="#002438"/>
<path d="M39.3043 5.45229L36.0273 8.82666L37.242 10.1066L40.519 6.73225L39.3043 5.45229Z" fill="#002438"/>
<path d="M25.0559 0H23.3281V4.79981H25.0559V0Z" fill="#002438"/>
<path d="M8.70883 5.44709L7.49414 6.72705L10.7711 10.1014L11.9858 8.82146L8.70883 5.44709Z" fill="#002438"/>
</svg>
