<svg width="51" height="50" viewBox="0 0 51 50" fill="none" xmlns="http://www.w3.org/2000/svg">
<g clip-path="url(#clip0_3167_1274)">
<path d="M40.1236 16.8633H25.4531L26.768 18.0537H39.3138L40.1236 16.8633Z" fill="#002438"/>
<path d="M19.3825 16.8633H4.4082V18.0537H18.5737L19.3825 16.8633Z" fill="#002438"/>
<path d="M3.29506 46.8193V0H0.0507812V50H50.9492V46.8193H3.29506Z" fill="#002438"/>
<path d="M36.0763 34.0234L35.5703 34.8164H49.937V33.5273H36.3801L36.0763 34.0234Z" fill="#002438"/>
<path d="M15.7395 33.5273L14.8291 34.8164H35.1663L34.6603 34.2217L33.9521 33.5273H15.7395Z" fill="#002438"/>
<path d="M8.35473 33.5273H4.4082V34.8164H7.5449L8.35473 33.5273Z" fill="#002438"/>
<path d="M22.6198 21.3262L35.2662 33.5273L45.789 17.8545L49.3301 20.1357L50.0383 7.53906L38.5045 13.292L42.1462 15.5732L34.558 26.9805L21.9106 14.6807L4.30664 41.3633L7.94836 43.6455L22.6198 21.3262Z" fill="#002438"/>
</g>
<defs>
<clipPath id="clip0_3167_1274">
<rect width="51" height="50" fill="white"/>
</clipPath>
</defs>
</svg>
