<svg width="49" height="50" viewBox="0 0 49 50" fill="none" xmlns="http://www.w3.org/2000/svg">
<path d="M32.4176 15.0684C32.4159 12.9469 31.5892 10.9129 30.1191 9.41281C28.649 7.91273 26.6557 7.06919 24.5767 7.06738C24.3853 7.06738 24.1939 7.07422 24.0025 7.08789C22.7503 7.18085 21.5383 7.57928 20.4684 8.24965C19.3985 8.92003 18.5021 9.84276 17.8544 10.9402C17.2067 12.0377 16.8268 13.2778 16.7465 14.5563C16.6663 15.8348 16.888 17.1143 17.3932 18.2871C17.442 18.3994 17.4889 18.5029 17.5368 18.6025L19.335 22.5479L23.4053 31.4795C23.5085 31.7064 23.6732 31.8985 23.8799 32.0331C24.0866 32.1677 24.3267 32.2392 24.5719 32.2392C24.8171 32.2392 25.0572 32.1677 25.2639 32.0331C25.4706 31.8985 25.6353 31.7064 25.7385 31.4795L29.8097 22.5479L31.607 18.6025C32.1418 17.5044 32.4193 16.2946 32.4176 15.0684ZM21.8616 15.0479C21.9424 14.4392 22.2167 13.8745 22.6423 13.4402C23.0679 13.0059 23.6213 12.726 24.2178 12.6436C24.3368 12.628 24.4567 12.6202 24.5767 12.6201C25.2753 12.6148 25.9495 12.8821 26.4612 13.3674C26.973 13.8527 27.2836 14.5192 27.3294 15.2306C27.3753 15.9419 27.153 16.6442 26.7079 17.1938C26.2629 17.7433 25.6288 18.0984 24.9356 18.1865C24.8165 18.2021 24.6967 18.2099 24.5767 18.21C24.1868 18.2099 23.8014 18.1249 23.4463 17.9607C23.0912 17.7964 22.7746 17.5567 22.5175 17.2575C22.2605 16.9584 22.069 16.6067 21.9559 16.2259C21.8428 15.8452 21.8106 15.4442 21.8616 15.0498V15.0479Z" fill="#002438"/>
<path d="M38.7601 22.5479H30.9603L28.65 27.6582L33.751 29.6475L38.1055 24.3379L38.6012 25.5283L26.868 39.6797L28.5859 41.4482H27.1235L22.1824 36.3613L12.5116 41.4482H9.74672L21.39 35.5469L11.1344 25.1377L11.6129 23.9844L26.1301 38.9258L32.8399 30.7549L28.0633 28.8994L26.6814 31.9316C26.5039 32.3211 26.2262 32.6541 25.8779 32.8952C25.5295 33.1363 25.1236 33.2763 24.7034 33.3005C24.2831 33.3247 23.8644 33.232 23.4917 33.0324C23.119 32.8327 22.8064 32.5337 22.5872 32.167C22.5652 32.1133 22.5422 32.0605 22.5183 32.0078L19.5592 25.5557L15.6411 24.0361H17.2632L18.8768 24.0586L18.1906 22.5527H10.6013L0.350586 42.9326H48.65L38.7601 22.5479Z" fill="#002438"/>
</svg>
