<svg width="49" height="50" viewBox="0 0 49 50" fill="none" xmlns="http://www.w3.org/2000/svg">
<g clip-path="url(#clip0_3167_1278)">
<path d="M49.0002 4.09668H45.4199V45.9033H49.0002V4.09668Z" fill="#002438"/>
<path d="M2.65863 20.6045H0V29.3945H2.65863V20.6045Z" fill="#002438"/>
<path d="M43.8525 8.74902L4.22754 21.9043V28.0957L13.0322 31.0186C12.974 31.1509 12.9232 31.2866 12.8801 31.4248C12.572 32.4193 12.6632 33.4978 13.1334 34.4237C13.6036 35.3497 14.4146 36.0476 15.3884 36.3643L19.9669 37.8467C20.9414 38.1596 21.9978 38.0658 22.9048 37.5859C23.8118 37.1061 24.4956 36.2792 24.8066 35.2861C24.841 35.1768 24.8678 35.0664 24.8918 34.9561L43.8515 41.251L43.8525 8.74902ZM23.0007 34.7012C22.8416 35.2051 22.4939 35.6245 22.0332 35.8681C21.5726 36.1117 21.0363 36.1598 20.5411 36.002L15.9627 34.5205C15.4677 34.3595 15.0555 34.0047 14.8166 33.5341C14.5776 33.0634 14.5313 32.5152 14.6879 32.0098C14.7316 31.8759 14.7886 31.7469 14.8582 31.625L23.0724 34.3516C23.0592 34.4701 23.0352 34.5872 23.0007 34.7012Z" fill="#002438"/>
</g>
<defs>
<clipPath id="clip0_3167_1278">
<rect width="49" height="50" fill="white"/>
</clipPath>
</defs>
</svg>
