<svg width="48" height="50" viewBox="0 0 48 50" fill="none" xmlns="http://www.w3.org/2000/svg">
<path d="M36.1444 43.7998C36.8091 42.1886 37.152 40.4534 37.152 38.6997C37.152 36.946 36.8091 35.2108 36.1444 33.5996L31.3444 36.4004C31.7381 37.6724 31.7943 39.0317 31.507 40.3343C31.2196 41.6369 30.5995 42.8344 29.7122 43.7998L18.0956 43.8975C16.0108 39.4156 15.5671 34.2954 16.8478 29.4971C17.5639 26.565 18.9466 23.8553 20.8791 21.5967L25.3913 29.9951L27.2147 28.8955L29.2312 32.6953L34.3191 29.3955L32.3034 25.6953L33.9375 24.7002L22.7044 2.90039L13.7756 8.20312L17.7131 15.7031C14.4391 19.0256 12.0845 23.2051 10.8966 27.8027C9.44753 33.0978 9.64941 38.7354 11.4731 43.9033H2.15625V49.9023H30.8644V50L30.9581 49.9023H45.8438V43.7998H36.1444Z" fill="#002438"/>
<path d="M22.3202 2.2998L21.168 0L12.1445 5.29981L13.3923 7.59961L22.3202 2.2998Z" fill="#002438"/>
<path d="M38.0118 29.0994L26.6758 35.8457L27.7236 37.7561L39.0596 31.0098L38.0118 29.0994Z" fill="#002438"/>
</svg>
