<svg width="49" height="50" viewBox="0 0 49 50" fill="none" xmlns="http://www.w3.org/2000/svg">
<g clip-path="url(#clip0_3167_1280)">
<path d="M32.005 26.0566H17.5127V27.4648H32.005V26.0566Z" fill="#002438"/>
<path d="M32.005 29.9297H17.5127V31.3379H32.005V29.9297Z" fill="#002438"/>
<path d="M28.7272 33.627H17.5127V35.0352H28.7272V33.627Z" fill="#002438"/>
<path d="M32.005 22.1836H17.5127V23.5918H32.005V22.1836Z" fill="#002438"/>
<path d="M32.005 18.4863H17.5127V19.8945H32.005V18.4863Z" fill="#002438"/>
<path d="M32.0055 8.80273H25.6221V15.3164H32.0055V8.80273Z" fill="#002438"/>
<path d="M23.7242 8.80273H17.3408V15.3164H23.7242V8.80273Z" fill="#002438"/>
<path d="M35.7323 -9.9011e-05H13.3712C13.0609 -0.00736071 12.7522 0.0478774 12.4628 0.162456C12.1733 0.277035 11.9089 0.448707 11.6846 0.667654C11.4602 0.886601 11.2804 1.14853 11.1553 1.43846C11.0302 1.72838 10.9624 2.04063 10.9557 2.35732C10.9557 2.39346 10.9557 2.42861 10.9557 2.46474V47.5331C10.9486 47.85 11.0027 48.1652 11.1151 48.4607C11.2274 48.7562 11.3957 49.0262 11.6103 49.2553C11.825 49.4844 12.0818 49.668 12.366 49.7958C12.6503 49.9236 12.9564 49.9929 13.2669 49.9999H35.628C35.9383 50.0072 36.247 49.9519 36.5364 49.8373C36.8259 49.7228 37.0903 49.5511 37.3147 49.3321C37.539 49.1132 37.7188 48.8513 37.8439 48.5613C37.969 48.2714 38.0368 47.9592 38.0435 47.6425C38.0435 47.6063 38.0435 47.5712 38.0435 47.5351V2.46572C38.0505 2.14894 37.9963 1.83385 37.8839 1.53847C37.7715 1.24308 37.6032 0.973188 37.3885 0.7442C37.1739 0.515211 36.9172 0.331618 36.633 0.203908C36.3488 0.076199 36.0427 0.00687637 35.7323 -9.9011e-05ZM24.758 47.5341C24.4508 47.5341 24.1504 47.4411 23.895 47.2669C23.6395 47.0927 23.4404 46.8451 23.3229 46.5554C23.2054 46.2658 23.1746 45.947 23.2347 45.6396C23.2947 45.3321 23.4427 45.0497 23.66 44.828C23.8773 44.6064 24.1542 44.4555 24.4556 44.3945C24.7569 44.3335 25.0693 44.365 25.3531 44.4851C25.6369 44.6052 25.8794 44.8085 26.05 45.0693C26.2205 45.33 26.3115 45.6366 26.3113 45.9501C26.3113 46.1582 26.2711 46.3642 26.193 46.5565C26.1149 46.7487 26.0005 46.9234 25.8563 47.0705C25.712 47.2176 25.5408 47.3342 25.3523 47.4138C25.1639 47.4933 24.9619 47.5342 24.758 47.5341ZM35.2853 41.9013H14.0613V4.57803H35.2825L35.2853 41.9013Z" fill="#002438"/>
</g>
<defs>
<clipPath id="clip0_3167_1280">
<rect width="49" height="50" fill="white"/>
</clipPath>
</defs>
</svg>
