<svg width="49" height="50" viewBox="0 0 49 50" fill="none" xmlns="http://www.w3.org/2000/svg">
<path d="M27.083 32.8711C32.1053 32.8711 36.1767 28.7166 36.1767 23.5918C36.1767 18.467 32.1053 14.3125 27.083 14.3125C22.0606 14.3125 17.9893 18.467 17.9893 23.5918C17.9893 28.7166 22.0606 32.8711 27.083 32.8711Z" fill="#002438"/>
<path d="M37.8676 44.0713C37.7585 43.9482 37.6552 43.8203 37.5547 43.6895C37.6552 43.8203 37.7585 43.9453 37.8676 44.0713Z" fill="#002438"/>
<path d="M42.6866 16.7549C46.1735 16.7549 49.0001 13.8705 49.0001 10.3125C49.0001 6.75447 46.1735 3.87012 42.6866 3.87012C39.1997 3.87012 36.373 6.75447 36.373 10.3125C36.373 13.8705 39.1997 16.7549 42.6866 16.7549Z" fill="#002438"/>
<path d="M42.6866 46.0469C46.1735 46.0469 49.0001 43.1625 49.0001 39.6045C49.0001 36.0465 46.1735 33.1621 42.6866 33.1621C39.1997 33.1621 36.373 36.0465 36.373 39.6045C36.373 43.1625 39.1997 46.0469 42.6866 46.0469Z" fill="#002438"/>
<path d="M6.31354 30.125C9.80041 30.125 12.6271 27.2406 12.6271 23.6826C12.6271 20.1246 9.80041 17.2402 6.31354 17.2402C2.82667 17.2402 0 20.1246 0 23.6826C0 27.2406 2.82667 30.125 6.31354 30.125Z" fill="#002438"/>
<path d="M17.4559 24.582C17.4259 24.2695 17.4109 23.9535 17.4109 23.6338C17.4109 23.3467 17.423 23.0628 17.4473 22.7822H13.1406C13.2224 23.379 13.226 23.9843 13.1512 24.582H17.4559Z" fill="#002438"/>
<path d="M36.8461 14.084L33.8984 16.6074C34.315 17.0323 34.6929 17.4948 35.0277 17.9893L37.9658 15.4736C37.5362 15.0609 37.1599 14.5939 36.8461 14.084Z" fill="#002438"/>
<path d="M38.5472 34.0273L34.5918 29.9922C34.2153 30.4526 33.7989 30.8775 33.3477 31.2617L37.2878 35.2822C37.6542 34.8115 38.0773 34.3899 38.5472 34.0273Z" fill="#002438"/>
</svg>
