<svg width="49" height="48" viewBox="0 0 49 48" fill="none" xmlns="http://www.w3.org/2000/svg">
<path d="M42.1171 31.9968C41.9583 31.8093 41.8023 31.6218 41.6491 31.4409C39.5437 28.9462 38.2699 27.4406 38.2699 20.3784C38.2699 16.7221 37.377 13.7221 35.617 11.4721C34.3192 9.80996 32.565 8.54902 30.2528 7.61715C30.2231 7.60093 30.1965 7.57966 30.1743 7.55433C29.3427 4.82621 27.0669 2.99902 24.5001 2.99902C21.9333 2.99902 19.6585 4.82621 18.8268 7.55152C18.8046 7.57592 18.7784 7.59652 18.7493 7.61246C13.3536 9.7884 10.7313 13.9631 10.7313 20.3756C10.7313 27.4406 9.45941 28.9462 7.35203 31.4381C7.1989 31.619 7.0429 31.8028 6.88404 31.994C6.47366 32.4788 6.21366 33.0686 6.13479 33.6937C6.05592 34.3187 6.1615 34.9528 6.43902 35.5209C7.02951 36.7396 8.288 37.4962 9.72451 37.4962H39.2862C40.716 37.4962 41.9659 36.7406 42.5583 35.5274C42.837 34.9592 42.9436 34.3246 42.8654 33.6989C42.7872 33.0731 42.5275 32.4824 42.1171 31.9968Z" fill="#002438"/>
<path d="M24.4996 45C25.8826 44.9989 27.2394 44.6312 28.4263 43.9358C29.6131 43.2404 30.5858 42.2433 31.2409 41.0503C31.2718 40.9931 31.2871 40.9291 31.2852 40.8645C31.2833 40.7998 31.2645 40.7367 31.2304 40.6813C31.1963 40.626 31.1481 40.5802 31.0906 40.5484C31.0331 40.5166 30.9682 40.4999 30.9022 40.5H18.099C18.0329 40.4998 17.9679 40.5163 17.9102 40.548C17.8526 40.5797 17.8043 40.6255 17.7701 40.6809C17.7359 40.7364 17.7169 40.7995 17.715 40.8642C17.7131 40.929 17.7283 40.9931 17.7593 41.0503C18.4144 42.2432 19.3868 43.2402 20.5735 43.9356C21.7602 44.6309 23.1168 44.9987 24.4996 45Z" fill="#002438"/>
</svg>
