<svg width="49" height="50" viewBox="0 0 49 50" fill="none" xmlns="http://www.w3.org/2000/svg">
<path d="M48.5506 35.0801H0.450195C0.450195 38.5859 3.02652 40.3379 5.60381 40.3379H44.2564C46.8327 40.3379 48.5506 37.709 48.5506 35.0801Z" fill="#002438"/>
<path d="M39.9606 9.66211H10.7568V28.9434C10.7568 31.5732 13.3332 33.3262 15.051 33.3262H33.9486C36.5249 33.3262 38.2428 31.5732 38.2428 28.9434V27.1904C44.2558 27.1904 47.6915 22.8086 47.6915 18.4268C47.6915 13.167 44.2558 9.66211 39.9606 9.66211ZM38.2428 23.6855V13.167H39.9606C43.3964 13.167 44.2558 16.6738 44.2558 18.4268C44.2558 21.0557 42.5379 23.6855 38.2428 23.6855Z" fill="#002438"/>
</svg>
