<svg width="49" height="50" viewBox="0 0 49 50" fill="none" xmlns="http://www.w3.org/2000/svg">
<path d="M12.6261 0V4.14648H8.56256V8.30078H4.49805V50H36.3739V45.8506H40.4403V41.7041H44.502V0H12.6261ZM34.412 47.998H6.45709V10.3027H8.56256V45.8506H34.412V47.998ZM38.4784 43.8477H10.5273V6.15234H12.6328V41.7041H38.4784V43.8477ZM42.5429 39.7012H14.588V2.00195H42.5429V39.7012Z" fill="#002438"/>
<path d="M38.7005 6.33691H18.1855V7.92383H38.7005V6.33691Z" fill="#002438"/>
<path d="M38.7005 15.5957H18.1855V17.1826H38.7005V15.5957Z" fill="#002438"/>
<path d="M38.7005 10.9248H18.1855V12.5117H38.7005V10.9248Z" fill="#002438"/>
<path d="M38.7005 20.1836H18.1855V21.7705H38.7005V20.1836Z" fill="#002438"/>
<path d="M38.7005 24.8535H18.1855V26.4404H38.7005V24.8535Z" fill="#002438"/>
<path d="M38.7005 29.4414H18.1855V31.0283H38.7005V29.4414Z" fill="#002438"/>
<path d="M28.5655 34.1133H18.1846V35.6982H28.5655V34.1133Z" fill="#002438"/>
</svg>
