<svg width="50" height="50" viewBox="0 0 50 50" fill="none" xmlns="http://www.w3.org/2000/svg">
<path d="M34.375 36.7188V7.03125L34.4727 2.34375L9.375 7.03125V35.8066C8.38937 35.3765 7.32538 35.1551 6.25 35.1562C2.79785 35.1562 0 37.2549 0 39.8438C0 42.4326 2.79785 44.5312 6.25 44.5312C9.70215 44.5312 12.5 42.4326 12.5 39.8438V11.1328L31.25 7.61719V32.6816C30.2644 32.2516 29.2004 32.0301 28.125 32.0312C24.6729 32.0312 21.875 34.1299 21.875 36.7188C21.875 39.3076 24.6729 41.4062 28.125 41.4062C31.5771 41.4062 34.375 39.3076 34.375 36.7188Z" fill="#002438"/>
<path d="M46.875 10.1562V38.9316C45.8894 38.5016 44.8254 38.2801 43.75 38.2812C40.2979 38.2812 37.5 40.3799 37.5 42.9688C37.5 45.5576 40.2979 47.6562 43.75 47.6562C47.2021 47.6562 50 45.5576 50 42.9688V10.1562H46.875Z" fill="#002438"/>
</svg>
