<svg width="50" height="48" viewBox="0 0 50 48" fill="none" xmlns="http://www.w3.org/2000/svg">
<path d="M48.4033 14.2754H15.6689L14.8701 15.8082H13.2734V17.3438H12.4746C11.0781 18.8776 7.78711 18.8776 7.78711 18.8776V20.3138H6.28711L4.6875 21.8438H3.09375C2.70333 22.2687 2.22869 22.6147 1.69753 22.8616C1.16636 23.1085 0.589301 23.2514 0 23.282L0 25.4851H6.28711C9.38086 23.9523 18.3594 24.3357 18.3594 24.3357L20.3594 26.2501H26.6465L32.9346 33.7229H35.9277L40.6152 29.2229L43.709 27.6901H46.9023V26.1563L45.3125 27.0179H43.7129L42.1162 25.4851L43.7129 26.2501L46.0078 25.0998V23.9523H45.2148L43.6172 22.4195L45.2148 23.1854H48.3086L49.9023 21.6563V18.6826H49.1016V21.6563H48.3037V18.6826H45.2148L48.3086 17.1498H50V15.8082L48.4033 14.2754ZM37.2256 24.8148L34.3311 22.7063L31.4375 24.8148L32.5352 21.3657L29.6406 19.2573H33.2334L34.3311 15.8082L35.4287 19.2573H39.0215L36.1328 21.3657L37.2256 24.8148Z" fill="#002438"/>
</svg>
