<svg width="48" height="49" viewBox="0 0 48 49" fill="none" xmlns="http://www.w3.org/2000/svg">
<path d="M8.95266 9.94844H38.9527C39.3031 9.94827 39.6532 9.97097 40.0008 10.0164C39.8829 9.17207 39.5989 8.36086 39.1656 7.63165C38.7324 6.90245 38.1589 6.27036 37.4799 5.77349C36.8009 5.27663 36.0304 4.92528 35.2148 4.74064C34.3991 4.55599 33.5553 4.54187 32.7342 4.69913L8.06203 8.99907H8.03391C6.48522 9.30139 5.10803 10.1959 4.18359 11.4998C5.57634 10.4885 7.24354 9.94619 8.95266 9.94844Z" fill="#002438"/>
<path d="M38.9531 12.2495H8.95312C7.36236 12.2513 5.83724 12.8972 4.7124 14.0454C3.58756 15.1937 2.95486 16.7506 2.95312 18.3745V36.7495C2.95486 38.3734 3.58756 39.9303 4.7124 41.0786C5.83724 42.2269 7.36236 42.8727 8.95312 42.8745H38.9531C40.5439 42.8727 42.069 42.2269 43.1938 41.0786C44.3187 39.9303 44.9514 38.3734 44.9531 36.7495V18.3745C44.9514 16.7506 44.3187 15.1937 43.1938 14.0454C42.069 12.8972 40.5439 12.2513 38.9531 12.2495ZM34.5 30.6245C33.9066 30.6245 33.3266 30.4449 32.8333 30.1084C32.3399 29.7719 31.9554 29.2936 31.7283 28.734C31.5013 28.1744 31.4419 27.5586 31.5576 26.9645C31.6734 26.3705 31.9591 25.8248 32.3787 25.3965C32.7982 24.9682 33.3328 24.6765 33.9147 24.5584C34.4967 24.4402 35.0999 24.5008 35.648 24.7326C36.1962 24.9644 36.6647 25.3569 36.9944 25.8606C37.324 26.3642 37.5 26.9563 37.5 27.562C37.5 28.3742 37.1839 29.1532 36.6213 29.7275C36.0587 30.3018 35.2956 30.6245 34.5 30.6245Z" fill="#002438"/>
<path d="M3 24.8296V15.3071C3 13.2332 4.125 9.75635 8.02969 9.00316C11.3437 8.36865 14.625 8.36865 14.625 8.36865C14.625 8.36865 16.7812 9.8999 15 9.8999C13.2187 9.8999 13.2656 12.2446 15 12.2446C16.7344 12.2446 15 14.4937 15 14.4937L8.01562 22.5806L3 24.8296Z" fill="#002438"/>
</svg>
