<svg width="49" height="48" viewBox="0 0 49 48" fill="none" xmlns="http://www.w3.org/2000/svg">
<g clip-path="url(#clip0_3212_8453)">
<path d="M24.4993 16C26.7452 16 28.5827 14.2 28.5827 12C28.5827 9.8 26.7452 8 24.4993 8C22.2535 8 20.416 9.8 20.416 12C20.416 14.2 22.2535 16 24.4993 16ZM24.4993 20C22.2535 20 20.416 21.8 20.416 24C20.416 26.2 22.2535 28 24.4993 28C26.7452 28 28.5827 26.2 28.5827 24C28.5827 21.8 26.7452 20 24.4993 20ZM24.4993 32C22.2535 32 20.416 33.8 20.416 36C20.416 38.2 22.2535 40 24.4993 40C26.7452 40 28.5827 38.2 28.5827 36C28.5827 33.8 26.7452 32 24.4993 32Z" fill="#002438"/>
</g>
<defs>
<clipPath id="clip0_3212_8453">
<rect width="49" height="48" fill="white"/>
</clipPath>
</defs>
</svg>
