<svg width="50" height="48" viewBox="0 0 50 48" fill="none" xmlns="http://www.w3.org/2000/svg">
<path d="M19.7451 17.5181H16.4512C16.5333 19.1984 17.1496 20.8142 18.217 22.1482C19.2845 23.4822 20.7519 24.4703 22.4219 24.9796C21.9412 24.5109 21.5343 23.9775 21.2139 23.3962C20.3125 21.809 19.7979 19.7334 19.7451 17.5181Z" fill="#002438"/>
<path d="M40.6602 0H6.7002V48H40.6602C40.6602 48 43.2969 47.9522 43.2969 45.4688V2.53125C43.2969 2.53125 43.0264 0 40.6602 0ZM34.335 35.2566H15.665V32.7356H34.335V35.2566ZM25 26.1066C23.1534 26.1067 21.3483 25.5812 19.8129 24.5965C18.2774 23.6118 17.0807 22.212 16.3739 20.5743C15.6672 18.9366 15.4822 17.1344 15.8424 15.3958C16.2026 13.6572 17.0918 12.0601 18.3975 10.8066C19.7032 9.55313 21.3668 8.69952 23.1779 8.35373C24.989 8.00794 26.8662 8.1855 28.5722 8.86397C30.2781 9.54244 31.7362 10.6913 32.762 12.1653C33.7878 13.6394 34.3352 15.3723 34.335 17.145C34.3321 19.5209 33.3477 21.7987 31.5977 23.4788C29.8476 25.1588 27.4749 26.1038 25 26.1066Z" fill="#002438"/>
<path d="M21.2139 10.8928C21.5345 10.3119 21.9415 9.77883 22.4219 9.3103C20.7517 9.81939 19.2842 10.8075 18.2167 12.1415C17.1492 13.4755 16.533 15.0915 16.4512 16.7719H19.7451C19.7979 14.5556 20.3125 12.48 21.2139 10.8928Z" fill="#002438"/>
<path d="M21.8965 11.2501C21.0566 12.7304 20.5732 14.6795 20.5225 16.772H24.6094V8.96167C23.6016 9.12479 22.6494 9.92261 21.8965 11.2501Z" fill="#002438"/>
<path d="M21.8965 23.0399C22.6494 24.3674 23.6016 25.1643 24.6113 25.3284V17.5181H20.5225C20.5732 19.6096 21.0566 21.5624 21.8965 23.0399Z" fill="#002438"/>
<path d="M27.5781 9.3103C28.0585 9.77883 28.4655 10.3119 28.7861 10.8928C29.6855 12.48 30.2021 14.5556 30.251 16.7719H33.5449C33.4633 15.092 32.8478 13.4763 31.781 12.1423C30.7143 10.8084 29.2475 9.82003 27.5781 9.3103Z" fill="#002438"/>
<path d="M28.7861 23.3962C28.4657 23.9775 28.0588 24.5109 27.5781 24.9796C29.2481 24.4703 30.7155 23.4822 31.783 22.1482C32.8504 20.8142 33.4667 19.1984 33.5488 17.5181H30.2549C30.2021 19.7334 29.6875 21.809 28.7861 23.3962Z" fill="#002438"/>
<path d="M28.1035 11.2501C27.3506 9.92261 26.3984 9.12479 25.3887 8.96167V16.772H29.4775C29.4268 14.6795 28.9434 12.7304 28.1035 11.2501Z" fill="#002438"/>
<path d="M29.4775 17.5181H25.3906V25.3284C26.4004 25.1643 27.3525 24.3674 28.1055 23.0399C28.9434 21.5624 29.4268 19.6096 29.4775 17.5181Z" fill="#002438"/>
</svg>
