<svg width="48" height="48" viewBox="0 0 48 48" fill="none" xmlns="http://www.w3.org/2000/svg">
<g clip-path="url(#clip0_3167_1288)">
<path d="M47.8924 6.83447H5.48926V36.3226H48.0002L47.8924 6.83447ZM45.7361 33.9554H7.64176V8.98697H45.6321L45.7399 9.73697L45.7361 33.9554Z" fill="#002438"/>
<path d="M26.6909 23.3006L20.2334 14.0447L10.2246 31.0491H40.5743L31.1037 18.6731L26.6909 23.3006Z" fill="#002438"/>
<path d="M36.9149 18.3498C38.6385 18.3498 40.0358 16.9525 40.0358 15.2288C40.0358 13.5052 38.6385 12.1079 36.9149 12.1079C35.1912 12.1079 33.7939 13.5052 33.7939 15.2288C33.7939 16.9525 35.1912 18.3498 36.9149 18.3498Z" fill="#002438"/>
<path d="M44.8791 37.5066H42.6188V38.9062H2.26031V13.9369H3.9825V11.6775H2.26031H0V13.9369V38.9062V41.0578V41.1656H44.8791V38.9062V37.5066Z" fill="#002438"/>
</g>
<defs>
<clipPath id="clip0_3167_1288">
<rect width="48" height="48" fill="white"/>
</clipPath>
</defs>
</svg>
