<svg width="49" height="48" viewBox="0 0 49 48" fill="none" xmlns="http://www.w3.org/2000/svg">
<path d="M47.9791 17.25C47.1546 17.7413 46.5111 18.4767 46.1416 19.35C46.7529 19.7361 47.3032 20.2077 47.7753 20.7497C47.9859 20.041 48.4135 19.4127 49.0003 18.9497L47.9791 17.25Z" fill="#002438"/>
<path d="M12.25 43.8498H18.6813V38.7498C16.4144 38.0702 14.2513 37.0948 12.25 35.8501V43.8498Z" fill="#002438"/>
<path d="M29.9102 43.7504H36.3414V35.8501C34.3804 37.1431 32.2039 38.0907 29.9102 38.6504V43.7504Z" fill="#002438"/>
<path d="M43.3851 19.7504C43.0753 19.7336 42.7649 19.7672 42.4663 19.8498C41.0375 12.5504 33.5851 6.94977 24.7038 6.94977C22.3008 6.92456 19.9134 7.33129 17.6601 8.14977L9.49375 4.15039V14.1498C8.25456 15.8224 7.38524 17.7299 6.94135 19.7504H0V28.0501H7.9625C10.5149 33.8504 17.0476 38.0504 24.8062 38.0504C32.5649 38.0504 39.3024 33.7501 41.7524 27.6498C42.3002 27.8881 42.8887 28.0238 43.4875 28.0501C44.5958 28.0449 45.6573 27.6113 46.441 26.8436C47.2247 26.0759 47.6673 25.0361 47.6726 23.9504C47.6491 22.8437 47.1899 21.7887 46.3908 21.006C45.5918 20.2233 44.5149 19.7734 43.3851 19.7504ZM14.3325 20.8501H14.2913C13.9682 20.8501 13.6524 20.7562 13.3837 20.5804C13.1151 20.4045 12.9057 20.1546 12.782 19.8622C12.6584 19.5698 12.626 19.248 12.6891 18.9376C12.7521 18.6271 12.9077 18.342 13.1362 18.1182C13.3647 17.8944 13.6557 17.742 13.9726 17.6802C14.2895 17.6185 14.618 17.6501 14.9165 17.7713C15.215 17.8924 15.4702 18.0975 15.6497 18.3607C15.8292 18.6238 15.925 18.9333 15.925 19.2498C15.9278 19.4573 15.8888 19.6633 15.8102 19.8561C15.7317 20.0489 15.6152 20.2246 15.4673 20.3732C15.3194 20.5218 15.143 20.6404 14.9483 20.7222C14.7536 20.8041 14.5444 20.8475 14.3325 20.8501ZM25.7958 29.9204C25.5376 29.9744 25.2718 29.9846 25.0101 29.9504V31.0501H23.9899V29.8501C23.7178 29.7963 23.4598 29.6888 23.2315 29.5341C23.0033 29.3793 22.8097 29.1806 22.6625 28.9501V29.8501H21.2337V26.6504H22.7649C22.7649 27.5504 23.0711 28.5498 23.9899 28.7504V25.8498L23.4788 25.6501C22.2538 25.1504 21.3351 24.6498 21.3351 23.2501C21.2847 22.5835 21.5067 21.9246 21.9521 21.4183C22.3976 20.912 23.03 20.5997 23.7104 20.5501C23.8379 20.5406 23.9658 20.5406 24.0933 20.5501V19.4504H25.1125V20.6504C25.5731 20.7751 25.972 21.0593 26.2351 21.4501V20.7498H27.5625V23.7498H26.0312C25.9288 22.6501 25.6226 22.0501 24.9086 21.8504V24.5504L25.4187 24.7501C26.0248 24.9275 26.5829 25.2349 27.0524 25.6501C27.4172 26.1041 27.5987 26.6737 27.5625 27.2504C27.6896 27.8339 27.5749 28.4431 27.2436 28.9438C26.9123 29.4445 26.3915 29.7958 25.7958 29.9204ZM29.7062 12.5504C28.0242 11.868 26.2181 11.5276 24.3976 11.5501C22.5774 11.5275 20.7716 11.8679 19.0899 12.5504V10.4504C20.7716 9.76786 22.5774 9.42753 24.3976 9.45008C26.2181 9.42764 28.0242 9.76796 29.7062 10.4504V12.5504ZM43.4875 25.9566C43.4521 25.9566 43.4176 25.9566 43.3822 25.9566C42.9882 25.951 42.602 25.8478 42.2596 25.6566C42.5018 24.6056 42.6386 23.534 42.6683 22.457V21.9563C42.8945 21.8669 43.1395 21.8328 43.3822 21.857C43.95 21.8594 44.4938 22.0815 44.8953 22.4748C45.2968 22.868 45.5235 23.4008 45.526 23.957C45.525 24.4857 45.3102 24.9925 44.9288 25.3665C44.5473 25.7406 44.0301 25.9514 43.4904 25.9529L43.4875 25.9566Z" fill="#002438"/>
<path d="M25.0098 26.25V28.7503C25.2792 28.6821 25.5169 28.5262 25.6839 28.3081C25.8509 28.09 25.9371 27.8228 25.9285 27.5503C26.0309 26.7497 25.6223 26.4497 25.0098 26.25Z" fill="#002438"/>
<path d="M23.0713 22.95C23.0713 23.6503 23.479 23.9503 24.0915 24.15V21.75C23.8876 21.75 23.6838 21.9497 23.479 22.05C23.2427 22.2959 23.0989 22.6133 23.0713 22.95Z" fill="#002438"/>
</svg>
