<svg width="51" height="48" viewBox="0 0 51 48" fill="none" xmlns="http://www.w3.org/2000/svg">
<path d="M17.876 48H33.1242L35.216 26.4722H15.7842L17.876 48Z" fill="#002438"/>
<path d="M34.9354 12.8878L29.937 10.8478L27.9737 10.0312C27.7922 10.1289 27.605 10.2168 27.4129 10.2946C27.218 10.3876 27.013 10.4602 26.8013 10.5112H26.7754C26.5655 10.5624 26.3527 10.6025 26.1379 10.6312C25.6986 10.695 25.2515 10.695 24.8121 10.6312C24.4884 10.5881 24.1716 10.5075 23.8688 10.3912C23.5786 10.2827 23.2973 10.1542 23.0271 10.0068L21.012 10.8506L16.0654 12.8906V16.7071H34.9354V12.8878Z" fill="#002438"/>
<path d="M27.4121 10.2723C27.6062 10.1983 27.7938 10.1099 27.9729 10.0079L29.9362 10.8245L27.9988 9.98071C27.7906 10.0801 27.6163 10.1757 27.4121 10.2723Z" fill="#002438"/>
<path d="M25.5004 9.12C27.7394 9.12 29.5545 7.07842 29.5545 4.56C29.5545 2.04158 27.7394 0 25.5004 0C23.2614 0 21.4463 2.04158 21.4463 4.56C21.4463 7.07842 23.2614 9.12 25.5004 9.12Z" fill="#002438"/>
<path d="M11.9854 17.9756L13.3371 25.2H37.6637L39.0154 17.9756H11.9854Z" fill="#002438"/>
</svg>
