<svg width="49" height="49" viewBox="0 0 49 49" fill="none" xmlns="http://www.w3.org/2000/svg">
	<path d="M31.8348 6.17977C29.9724 4.16905 27.3712 3.06177 24.5001 3.06177C21.6137 3.06177 19.0039 4.16235 17.1501 6.16063C15.2762 8.18093 14.3632 10.9266 14.5776 13.8915C15.0025 19.7409 19.4537 24.4993 24.5001 24.4993C29.5465 24.4993 33.99 19.7419 34.4216 13.8934C34.6389 10.9554 33.7201 8.21538 31.8348 6.17977Z" fill="#002438"/>
	<path d="M41.3443 45.9346H7.6568C7.21586 45.9403 6.77919 45.8477 6.37855 45.6634C5.97792 45.4792 5.6234 45.2079 5.34078 44.8694C4.71871 44.1258 4.46797 43.1104 4.65363 42.0835C5.46137 37.6027 7.98219 33.8387 11.9443 31.1963C15.4643 28.8506 19.9231 27.5596 24.5005 27.5596C29.078 27.5596 33.5368 28.8516 37.0568 31.1963C41.0189 33.8377 43.5397 37.6017 44.3474 42.0825C44.5331 43.1094 44.2824 44.1248 43.6603 44.8684C43.3778 45.2071 43.0233 45.4785 42.6227 45.663C42.222 45.8474 41.7853 45.9402 41.3443 45.9346Z" fill="#002438"/>
</svg>

