<svg width="46" height="47" viewBox="0 0 46 47" fill="none" xmlns="http://www.w3.org/2000/svg">
<path d="M2.875 34.5142C2.875 35.8775 3.40508 37.1851 4.34862 38.1491C5.29216 39.1132 6.57188 39.6548 7.90625 39.6548H38.0937C39.4281 39.6548 40.7078 39.1132 41.6514 38.1491C42.5949 37.1851 43.125 35.8775 43.125 34.5142V20.3774H2.875V34.5142ZM8.80469 27.5376C8.80469 26.8072 9.08866 26.1068 9.59412 25.5903C10.0996 25.0738 10.7852 24.7837 11.5 24.7837H15.8125C16.5273 24.7837 17.2129 25.0738 17.7184 25.5903C18.2238 26.1068 18.5078 26.8072 18.5078 27.5376V29.3735C18.5078 30.1039 18.2238 30.8044 17.7184 31.3208C17.2129 31.8373 16.5273 32.1274 15.8125 32.1274H11.5C10.7852 32.1274 10.0996 31.8373 9.59412 31.3208C9.08866 30.8044 8.80469 30.1039 8.80469 29.3735V27.5376Z" fill="#002438"/>
<path d="M38.0937 7.34131H7.90625C6.57188 7.34131 5.29216 7.88291 4.34862 8.84696C3.40508 9.81102 2.875 11.1186 2.875 12.4819V14.8686H43.125V12.4819C43.125 11.1186 42.5949 9.81102 41.6514 8.84696C40.7078 7.88291 39.4281 7.34131 38.0937 7.34131Z" fill="#002438"/>
</svg>
