<svg width="49" height="48" viewBox="0 0 49 48" fill="none" xmlns="http://www.w3.org/2000/svg">
<path d="M48.9512 31.5938V31.5422C48.9112 26.8299 47.453 22.2339 44.7593 18.3295C42.0657 14.4251 38.2561 11.3859 33.8076 9.59221C29.3591 7.79854 24.4693 7.33017 19.7503 8.24573C15.0314 9.16129 10.693 11.4201 7.27822 14.7394C5.00514 16.937 3.19656 19.552 1.95592 22.4349C0.715274 25.3177 0.0668926 28.4118 0.0478516 31.5403V31.6003H0.0583789V40.2103H3.95828V34.0828H5.791V40.2103H8.19697V37.6575H10.0297V40.2103H12.5419V37.6575H14.3746V40.2103H17.1232V34.0828H18.9559V40.2103H21.5897V37.6575H23.4224V40.2103H25.9355V37.6575H27.7683V40.2103H30.0651V34.0828H31.8969V40.2103H34.3038V37.6575H36.1356V40.2103H38.6488V37.6575H40.4824V40.2103H43.231V34.0828H45.0628V40.2103H48.9521V31.5938H48.9512ZM9.29852 31.5938C9.34342 27.6733 10.9648 23.9283 13.8107 21.1716C16.6567 18.4148 20.4976 16.8687 24.5 16.8687C28.5024 16.8687 32.3433 18.4148 35.1893 21.1716C38.0352 23.9283 39.6566 27.6733 39.7015 31.5938H9.29852Z" fill="#002438"/>
</svg>
