<svg width="49" height="48" viewBox="0 0 49 48" fill="none" xmlns="http://www.w3.org/2000/svg">
<path d="M0 25.7147H1.75041V36H5.25027V25.7147H8.75014V36H12.25V25.7147H15.7499V36H19.2497V25.7147H22.7496V36H26.2504V25.7147H29.7503V36H33.2501V25.7147H36.75V36H40.2499V25.7147H43.7497V36H47.2496V25.7147H49V24H0V25.7147Z" fill="#002438"/>
<path d="M49 37.7146H0V41.143H49V37.7146Z" fill="#002438"/>
<path d="M33.2503 12.0001H31.4999C30.74 10.5183 29.5126 9.31601 28 8.57162V6.85693H21.0003V8.57162C19.4842 9.31141 18.2556 10.515 17.5004 12.0001H15.75V13.7147H33.2503V12.0001Z" fill="#002438"/>
<path d="M34.9996 18.8569V15.4285H14.0004V18.8569H0V22.2853H49V18.8569H34.9996Z" fill="#002438"/>
</svg>
