<svg width="50" height="48" viewBox="0 0 50 48" fill="none" xmlns="http://www.w3.org/2000/svg">
<path d="M31.2002 30.0478L27.9004 29.1843L24.9004 31.2L22 29.28L18.5996 30.0478L16.5 27.1678L13.0996 46.4643L18.7998 42.4321L22.7998 48L24.9004 36.1921L27.0996 48L31.0996 42.24L36.7998 46.2722L33.2002 26.9756L31.2002 30.0478Z" fill="#002438"/>
<path d="M25 21.7922C29.0316 21.7922 32.2998 18.6547 32.2998 14.7844C32.2998 10.9141 29.0316 7.77661 25 7.77661C20.9684 7.77661 17.7002 10.9141 17.7002 14.7844C17.7002 18.6547 20.9684 21.7922 25 21.7922Z" fill="#002438"/>
<path d="M40.4004 14.7844L38.2998 12.2878L39.2002 9.21562L36.0996 7.68L35.9043 4.32L32.5996 3.9375L31 1.15219L27.7002 2.20781L25.0977 0L22.4004 2.01562L19.2002 1.15219L17.5996 4.125L14.0996 4.3125L13.7002 7.48031L10.7998 9.01687L11.9004 12.1847L9.59961 14.6878L11.7002 17.1844L10.7998 20.2556L13.9004 21.7922L14.0957 25.1522L17.3965 25.5356L18.9961 28.32L22.2959 27.2644L24.9023 29.4722L27.502 27.4556L30.7022 28.32L32.3018 25.3444L35.8018 25.1569L36.2021 21.9891L39.1016 20.4525L38.002 17.2847L40.4004 14.7844ZM25 22.9406C23.3196 22.9406 21.677 22.4623 20.2798 21.566C18.8826 20.6698 17.7937 19.396 17.1506 17.9056C16.5076 16.4153 16.3393 14.7753 16.6672 13.1932C16.995 11.611 17.8042 10.1577 18.9924 9.01703C20.1806 7.87636 21.6944 7.09956 23.3425 6.78484C24.9906 6.47013 26.6989 6.63165 28.2513 7.24898C29.8038 7.86631 31.1307 8.91172 32.0642 10.253C32.9978 11.5943 33.4961 13.1712 33.4961 14.7844C33.4966 15.8558 33.2772 16.9168 32.8505 17.9068C32.4237 18.8968 31.798 19.7964 31.009 20.5541C30.22 21.3119 29.2833 21.913 28.2522 22.3232C27.2212 22.7333 26.1161 22.9444 25 22.9444V22.9406Z" fill="#002438"/>
</svg>
