<svg width="50" height="48" viewBox="0 0 50 48" fill="none" xmlns="http://www.w3.org/2000/svg">
<g clip-path="url(#clip0_3167_1294)">
<path d="M14.0166 34.1943C12.8533 33.1665 11.33 32.5959 9.74902 32.5959C8.16801 32.5959 6.64475 33.1665 5.48145 34.1943C3.80859 35.7993 3.69434 38.6474 3.41797 39.6252L5.74121 39.2999L4.73926 43.4502L9.0625 42.4921L8.72949 44.7281C9.74902 44.4599 12.7158 44.3474 14.3877 42.7443C15.5194 41.5632 16.116 39.9989 16.0465 38.3955C15.9769 36.7921 15.2467 35.2809 14.0166 34.1943ZM13.0098 38.1562C11.7646 39.3515 8.875 39.479 8.875 39.479C8.875 39.479 8.96289 36.7499 10.2539 35.5115C10.8105 34.9752 11.8965 34.4399 13.0107 35.5115C14.125 36.5831 13.5674 37.6227 13.0098 38.1562Z" fill="#002438"/>
<path d="M22.2002 32.4225L16.2266 26.6887L11.6318 28.8928L19.9033 36.8343L22.2002 32.4225Z" fill="#002438"/>
<path d="M48.8525 1.10153C44.4043 -3.17065 27.7588 5.87153 20.0107 12.9843L11.6318 10.3659L0 25.6687L3.48926 29.0175L9.30469 23.4375L14.708 23.9062L25.417 34.1868L25.5859 39.0675L19.7705 44.6503L23.2627 48L39.2002 36.8343L36.4746 28.7897C43.8838 21.36 53.3008 5.37372 48.8525 1.10153ZM32.2266 17.0672C31.5364 16.4045 31.0664 15.5602 30.876 14.6411C30.6857 13.7221 30.7834 12.7694 31.157 11.9037C31.5306 11.038 32.1632 10.298 32.9748 9.7774C33.7865 9.25681 34.7407 8.97894 35.7168 8.97894C36.6929 8.97894 37.6471 9.25681 38.4588 9.7774C39.2704 10.298 39.903 11.038 40.2766 11.9037C40.6502 12.7694 40.7479 13.7221 40.5576 14.6411C40.3672 15.5602 39.8972 16.4045 39.207 17.0672C38.2806 17.955 37.0248 18.4533 35.7158 18.4525C34.4067 18.4516 33.1517 17.9516 32.2266 17.0625V17.0672Z" fill="#002438"/>
</g>
<defs>
<clipPath id="clip0_3167_1294">
<rect width="50" height="48" fill="white"/>
</clipPath>
</defs>
</svg>
