<svg width="50" height="49" viewBox="0 0 50 49" fill="none" xmlns="http://www.w3.org/2000/svg">
<path d="M45.8554 11.5359C45.7429 11.3214 45.5802 11.1361 45.3808 10.9949C45.1813 10.8536 44.9507 10.7606 44.7076 10.7233C44.4645 10.686 44.2158 10.7055 43.9819 10.7801C43.7479 10.8548 43.5353 10.9826 43.3612 11.1531L37.3612 17.0369C37.0667 17.3214 36.6698 17.4808 36.2563 17.4808C35.8427 17.4808 35.4458 17.3214 35.1513 17.0369L32.5575 14.4912C32.4124 14.349 32.2973 14.1802 32.2187 13.9944C32.1402 13.8086 32.0998 13.6094 32.0998 13.4083C32.0998 13.2072 32.1402 13.008 32.2187 12.8222C32.2973 12.6364 32.4124 12.4676 32.5575 12.3254L38.5321 6.46936C38.7112 6.29386 38.8441 6.07832 38.9193 5.84131C38.9946 5.6043 39.0099 5.35292 38.9639 5.10883C38.918 4.86473 38.8122 4.63524 38.6557 4.44011C38.4991 4.24499 38.2965 4.09008 38.0653 3.98873C33.5526 2.01151 27.9198 3.04319 24.3681 6.49807C21.3505 9.43424 20.4511 14.0222 21.9023 19.0859C21.9805 19.3559 21.9809 19.6419 21.9036 19.9122C21.8262 20.1824 21.674 20.4264 21.4638 20.6171L5.20597 35.1688C4.57262 35.7261 4.06175 36.404 3.70453 37.1611C3.34731 37.9183 3.15124 38.7388 3.12826 39.5727C3.10528 40.4065 3.25589 41.2362 3.5709 42.0112C3.8859 42.7861 4.3587 43.49 4.96044 44.08C5.56219 44.67 6.28027 45.1336 7.07089 45.4427C7.8615 45.7517 8.70807 45.8997 9.55896 45.8775C10.4098 45.8554 11.2472 45.6636 12.02 45.3139C12.7927 44.9641 13.4847 44.4638 14.0536 43.8433L29.0614 27.8753C29.2532 27.672 29.498 27.5238 29.7694 27.4467C30.0408 27.3696 30.3285 27.3666 30.6015 27.4379C32.0725 27.8329 33.5899 28.0379 35.1151 28.0475C38.3769 28.0475 41.2392 27.013 43.3036 25.0195C47.1269 21.3282 47.7099 15.0673 45.8554 11.5359ZM9.71671 42.7954C9.07355 42.8642 8.42445 42.7357 7.859 42.4275C7.29354 42.1194 6.83962 41.6469 6.55986 41.0752C6.28011 40.5035 6.18832 39.8608 6.29716 39.2358C6.40601 38.6107 6.71012 38.0343 7.16753 37.5858C7.62493 37.1374 8.21308 36.8392 8.85081 36.7323C9.48853 36.6254 10.1444 36.7151 10.7279 36.9891C11.3113 37.2631 11.7937 37.7077 12.1083 38.2618C12.4229 38.8158 12.5543 39.4519 12.4843 40.0822C12.4073 40.7757 12.091 41.4227 11.5877 41.9161C11.0844 42.4095 10.4244 42.7197 9.71671 42.7954Z" fill="#002438"/>
</svg>
