<svg width="49" height="48" viewBox="0 0 49 48" fill="none" xmlns="http://www.w3.org/2000/svg">
<g clip-path="url(#clip0_3167_1295)">
<path d="M7.13945 29.5087L9.97609 29.3212L4.40234 21.1733L0 29.8921L3.03188 29.7046C4.10074 33.5015 6.20345 36.9423 9.11497 39.6587C12.0265 42.375 15.6372 44.2647 19.5608 45.1255L20.4412 41.293C17.3597 40.6534 14.5058 39.2262 12.1696 37.1564C9.83328 35.0867 8.09783 32.4481 7.13945 29.5087Z" fill="#002438"/>
<path d="M30.1232 41.0063L29.9318 38.2276L21.6143 43.6876L30.5146 48.0001L30.3232 45.0301C34.2052 43.963 37.7192 41.8849 40.4913 39.0169C43.2634 36.1488 45.1897 32.5982 46.0654 28.7429L42.1531 27.8804C41.5018 30.9107 40.047 33.7194 37.9351 36.0237C35.8232 38.328 33.1288 40.0465 30.1232 41.0063Z" fill="#002438"/>
<path d="M41.8603 18.4913L39.0237 18.6788L44.5974 26.8266L48.9998 18.1079L45.9679 18.2954C44.8823 14.4807 42.7639 11.0247 39.837 8.29312C36.91 5.56158 33.2835 3.65622 29.3414 2.77881L28.4609 6.61131C31.5535 7.28494 34.4145 8.73403 36.7634 10.8166C39.1123 12.8992 40.8686 15.5438 41.8603 18.4913Z" fill="#002438"/>
<path d="M18.8768 6.99375L19.0682 9.7725L27.3857 4.3125L18.4853 0L18.581 2.97C14.7205 4.04698 11.2246 6.11645 8.45607 8.96364C5.68757 11.8108 3.74739 15.3319 2.83691 19.1616L6.74926 20.0241C7.43933 17.0065 8.92092 14.2175 11.0477 11.9323C13.1746 9.64717 15.8731 7.94496 18.8768 6.99375Z" fill="#002438"/>
<path d="M23.2775 37.4606H25.5265V34.9688C29.3412 34.875 31.8841 32.67 31.8841 28.7419C31.9938 28.0577 31.9452 27.3581 31.742 26.6948C31.5387 26.0314 31.186 25.4213 30.7098 24.9094C29.6191 23.9077 28.3153 23.1553 26.8922 22.7063L25.6203 22.2272V16.0003C27.2836 16.4794 27.9679 17.9166 28.0655 20.5003H31.4888V13.605H28.167V15.3291C27.5333 14.4366 26.5981 13.7921 25.5265 13.5094V10.635H23.2775V13.2188C19.3651 13.2188 16.9199 15.6141 16.9199 19.3509C16.9199 22.7034 19.0713 23.9494 21.908 25.0031L23.2775 25.5778V32.1891C21.1251 31.71 20.4408 29.5059 20.4408 27.3028H16.9199V34.5844H20.2446V32.5753C20.5399 33.149 20.9678 33.6471 21.4944 34.0301C22.0209 34.4131 22.6315 34.6703 23.2775 34.7813V37.4606ZM25.6241 26.3438C26.2894 26.512 26.8757 26.8986 27.2851 27.4391C27.6946 27.9796 27.9025 28.6413 27.8741 29.3138C27.87 29.9566 27.6462 30.5796 27.2384 31.0833C26.8305 31.587 26.2622 31.9423 25.6241 32.0925V26.3438ZM21.0304 18.5831C21.032 18.2071 21.1108 17.8352 21.2621 17.4896C21.4133 17.144 21.6339 16.8317 21.9108 16.5713C22.3132 16.2543 22.7802 16.0254 23.2804 15.9V21.3225C22.0487 20.8453 21.0275 20.0803 21.0275 18.5869L21.0304 18.5831Z" fill="#002438"/>
</g>
<defs>
<clipPath id="clip0_3167_1295">
<rect width="49" height="48" fill="white"/>
</clipPath>
</defs>
</svg>
