<svg width="51" height="50" viewBox="0 0 51 50" fill="none" xmlns="http://www.w3.org/2000/svg">
<g clip-path="url(#clip0_3167_1296)">
<path d="M47.8995 36.8184L42.6521 41.9639L41.1082 40.4512L46.3576 35.3047L44.3315 33.3164L42.164 35.4424L40.6201 33.9297L42.7896 31.8027L40.6749 29.7266L38.5044 31.8545L36.9604 30.3418L39.1319 28.2129L36.819 25.9414L31.5636 31.0938L30.0206 29.5801L35.276 24.4277L33.0587 22.252L30.8843 24.3838L29.3403 22.8711L31.5168 20.7373L29.4021 18.6621L27.2246 20.7959L25.6817 19.2832L27.8591 17.1475L25.9277 15.252L20.6663 20.4102L19.1234 18.8965L24.3857 13.7383L22.3597 11.75L20.1782 13.8887L18.6353 12.375L20.8177 10.2354L18.703 8.16016L16.5196 10.3008L14.9756 8.78809L17.1611 6.64551L14.8471 4.375L9.57881 9.54004L8.03586 8.02637L13.3042 2.86133L10.5888 0.195312L0.230469 10.3633L40.4119 49.8047L50.7703 39.6367L47.8995 36.8184Z" fill="#002438" stroke="#002438" stroke-miterlimit="10"/>
</g>
<defs>
<clipPath id="clip0_3167_1296">
<rect width="51" height="50" fill="white"/>
</clipPath>
</defs>
</svg>
