<svg width="50" height="50" viewBox="0 0 50 50" fill="none" xmlns="http://www.w3.org/2000/svg">
<path d="M41.9522 41C41.874 40.752 41.7861 40.5059 41.6875 40.2598C41.5448 39.9101 41.3817 39.569 41.1992 39.2383C41.1631 39.1719 41.127 39.1035 41.0889 39.0381C40.9141 38.7313 40.7218 38.4349 40.5127 38.1504C40.4746 38.1016 40.4365 38.0527 40.3984 38.0059C40.2051 37.7532 39.9984 37.511 39.7793 37.2803C39.749 37.2481 39.7188 37.2139 39.6865 37.1826C39.4541 36.9484 39.2079 36.7283 38.9492 36.5234C38.8926 36.4814 38.8369 36.4365 38.7813 36.3965C38.5263 36.202 38.2588 36.0245 37.9805 35.8652C37.9549 35.8503 37.9285 35.837 37.9014 35.8252C37.6465 35.6845 37.3825 35.5609 37.1113 35.4551L36.9492 35.3906C36.6713 35.2906 36.3863 35.2113 36.0967 35.1533C36.041 35.1406 35.9834 35.1348 35.9248 35.125C35.6475 35.0754 35.3666 35.0486 35.085 35.0449H35.0273C34.7542 35.0478 34.4818 35.0733 34.2129 35.1211L34.0127 35.1592C33.7398 35.2142 33.4721 35.293 33.2129 35.3945C32.4171 35.7241 31.7205 36.2548 31.1914 36.9346L28.8525 28.751L27.832 27.0508C32.2744 19.8818 38.6357 9.29199 38.6357 7.5C38.6357 4.75 37.3857 1.25 37.3857 1.25L24.9639 22.2656L12.3897 1.25C12.3897 1.25 11.1397 4.75 11.1397 7.5C11.1397 9.29981 17.6182 19.9219 22.1201 27.0996L21.1436 28.7598L18.79 36.9336C18.2599 36.2562 17.563 35.7279 16.7676 35.4004C16.5083 35.2987 16.2407 35.2196 15.9678 35.1641L15.7725 35.126C15.5037 35.0792 15.2317 35.0537 14.959 35.0498H14.9033C14.6207 35.0535 14.3388 35.0803 14.0606 35.1299C14.0029 35.1397 13.9473 35.1455 13.8887 35.1582C13.5986 35.2179 13.3133 35.2988 13.0352 35.4004L12.875 35.4639C12.6004 35.5691 12.3331 35.6927 12.0752 35.834C12.0491 35.846 12.0237 35.8593 11.999 35.874C11.7194 36.0308 11.4508 36.2067 11.1953 36.4004L11.0264 36.5234C10.7665 36.728 10.5193 36.9481 10.2861 37.1826C10.2539 37.2148 10.2256 37.249 10.1963 37.2803C9.9812 37.5131 9.77876 37.7572 9.58985 38.0117C9.55372 38.0606 9.51563 38.1094 9.47755 38.1543C9.27027 38.4398 9.07826 38.7361 8.90235 39.042C8.86427 39.1064 8.83009 39.1738 8.79395 39.2422C8.60991 39.5721 8.44683 39.9133 8.30567 40.2637C7.8299 41.4272 7.59407 42.6748 7.61231 43.9316C7.6224 44.6204 7.72253 45.305 7.91016 45.9678C7.97169 46.1797 8.04395 46.3857 8.12403 46.5879C8.23262 46.857 8.36022 47.1181 8.50587 47.3691C8.67118 47.6651 8.86201 47.9462 9.07618 48.209C9.77166 49.0724 10.7473 49.6652 11.834 49.8848C11.9004 49.8975 11.9639 49.9111 12.0293 49.9209C12.2984 49.9697 12.5712 49.9952 12.8447 49.9971H12.9014C13.1837 49.9934 13.4652 49.9666 13.7432 49.917L13.915 49.8867C14.2041 49.8298 14.4884 49.7512 14.7656 49.6514C14.8213 49.6309 14.8731 49.6074 14.9268 49.585C15.2019 49.4809 15.4694 49.3578 15.7275 49.2168L15.8076 49.1768C16.0849 49.0163 16.352 48.8389 16.6074 48.6455C16.6631 48.6035 16.7188 48.5615 16.7734 48.5166C17.0334 48.3126 17.2803 48.0924 17.5127 47.8574C17.5449 47.8272 17.5732 47.791 17.6035 47.7598C17.8241 47.5296 18.0318 47.2873 18.2256 47.0342C18.2607 46.9863 18.3008 46.9365 18.3389 46.8897C18.538 46.6026 18.7216 46.3049 18.8887 45.9981C18.9268 45.9316 18.9629 45.8662 18.999 45.7979C19.1811 45.4676 19.3442 45.1272 19.4873 44.7783C19.7719 44.0774 19.9732 43.3455 20.0869 42.5977L23.6328 33.7481C23.6328 33.7481 24.1475 32.9482 24.9815 31.6182C25.8272 32.9424 26.3486 33.7481 26.3486 33.7481L29.8867 42.5996C29.9998 43.3477 30.2014 44.0798 30.4873 44.7803C30.6301 45.1293 30.7931 45.4698 30.9756 45.7998C31.0107 45.8682 31.0449 45.9336 31.085 46C31.2599 46.306 31.4523 46.6017 31.6611 46.8857C31.6973 46.9356 31.7354 46.9834 31.7734 47.0303C31.9668 47.2832 32.1738 47.5254 32.3936 47.7559C32.4248 47.7881 32.4531 47.8242 32.4854 47.8535C32.7177 48.0888 32.9646 48.3093 33.2246 48.5137C33.2793 48.5576 33.335 48.5996 33.3916 48.6416C33.6465 48.8361 33.9136 49.0139 34.1914 49.1738L34.2695 49.2139C34.527 49.3555 34.7943 49.4785 35.0693 49.582C35.1231 49.6035 35.1768 49.6279 35.2314 49.6484C35.5084 49.7479 35.7924 49.8266 36.0811 49.8838L36.2549 49.9141C36.5322 49.9631 36.8131 49.9899 37.0947 49.9941H37.1514C37.4248 49.9912 37.6976 49.9658 37.9668 49.918C38.0332 49.9082 38.0967 49.8936 38.167 49.8818C38.44 49.8256 38.7076 49.7459 38.9668 49.6436C39.921 49.2518 40.7317 48.576 41.2891 47.708C41.5224 47.3537 41.7188 46.9764 41.875 46.582C41.956 46.379 42.0267 46.1721 42.0869 45.9619C42.2742 45.3017 42.3743 44.6198 42.3848 43.9336C42.4007 42.9387 42.2546 41.9479 41.9522 41ZM17.6504 44.043H17.6397C16.7002 46.377 14.7295 48.0068 12.8545 48.0068C12.4853 48.011 12.1187 47.9447 11.7744 47.8115C9.74512 46.9922 9.00098 43.8877 10.1533 41.0313C11.0947 38.6953 13.0645 37.0654 14.9531 37.0635C15.3224 37.0583 15.6892 37.1246 16.0332 37.2588C16.9473 37.627 17.6328 38.4746 17.9785 39.6445C18.3594 40.9639 18.2422 42.5645 17.6504 44.043ZM24.877 28.7568C24.6297 28.7568 24.3881 28.6835 24.1825 28.5462C23.9769 28.4088 23.8167 28.2136 23.7221 27.9852C23.6275 27.7568 23.6027 27.5055 23.651 27.263C23.6992 27.0205 23.8183 26.7978 23.9931 26.623C24.1679 26.4481 24.3906 26.3291 24.6331 26.2809C24.8756 26.2326 25.1269 26.2574 25.3553 26.352C25.5837 26.4466 25.7789 26.6068 25.9163 26.8124C26.0536 27.0179 26.127 27.2596 26.127 27.5068C26.1257 27.837 25.9938 28.1533 25.7602 28.3865C25.5265 28.6198 25.2101 28.7512 24.8799 28.752L24.877 28.7568ZM38.3535 47.7998C38.0093 47.9335 37.6427 47.9998 37.2734 47.9951C35.3936 47.9951 33.4229 46.3652 32.4727 44.0293C31.8731 42.5645 31.7627 40.9609 32.1475 39.6289C32.4893 38.457 33.1787 37.6113 34.0947 37.2432C34.4365 37.1078 34.8013 37.0398 35.169 37.043C37.0488 37.043 39.0215 38.6748 39.9688 41.0107C41.1279 43.8721 40.3857 46.9727 38.3535 47.7959V47.7998Z" fill="#002438"/>
<path d="M25.5117 36.25H24.2617V40H25.5117V36.25Z" fill="#002438"/>
<path d="M25.5117 41.25H24.2617V45H25.5117V41.25Z" fill="#002438"/>
<path d="M25.5244 46.25H24.2744V50H25.5244V46.25Z" fill="#002438"/>
<path d="M25.5117 5H24.2617V8.75H25.5117V5Z" fill="#002438"/>
<path d="M25.5117 0H24.2617V3.75H25.5117V0Z" fill="#002438"/>
<path d="M25.5117 10H24.2617V13.75H25.5117V10Z" fill="#002438"/>
<path d="M25.5244 15H24.2744V18.75H25.5244V15Z" fill="#002438"/>
</svg>
