<svg width="49" height="49" viewBox="0 0 49 49" fill="none" xmlns="http://www.w3.org/2000/svg">
<path d="M48.249 44.0816L37.1409 32.9735C39.8153 29.4133 41.2589 25.0798 41.2541 20.627C41.2541 9.25336 32.0007 0 20.627 0C9.25336 0 0 9.25336 0 20.627C0 32.0007 9.25336 41.2541 20.627 41.2541C25.0798 41.2589 29.4133 39.8153 32.9735 37.1409L44.0816 48.249C44.6438 48.7516 45.3772 49.0199 46.1311 48.9988C46.885 48.9777 47.6022 48.6688 48.1355 48.1355C48.6688 47.6022 48.9777 46.885 48.9988 46.1311C49.0199 45.3772 48.7516 44.6438 48.249 44.0816ZM5.89344 20.627C5.89344 17.713 6.75755 14.8644 8.3765 12.4415C9.99545 10.0186 12.2965 8.13012 14.9887 7.01497C17.6809 5.89982 20.6434 5.60804 23.5014 6.17654C26.3595 6.74504 28.9847 8.14828 31.0453 10.2088C33.1058 12.2693 34.509 14.8946 35.0775 17.7527C35.646 20.6107 35.3543 23.5731 34.2391 26.2653C33.124 28.9576 31.2355 31.2586 28.8126 32.8776C26.3897 34.4965 23.5411 35.3606 20.627 35.3606C16.7209 35.3559 12.9761 33.8022 10.214 31.0401C7.45192 28.278 5.89813 24.5332 5.89344 20.627Z" fill="#002438"/>
</svg>
