<svg width="48" height="50" viewBox="0 0 48 50" fill="none" xmlns="http://www.w3.org/2000/svg">
<g clip-path="url(#clip0_3167_1298)">
<path d="M35.126 0H17.1504V7.79395H35.126V0Z" fill="#002438"/>
<path d="M35.126 42.2061H17.1504V50H35.126V42.2061Z" fill="#002438"/>
<path d="M11.126 9.41309V40.6885H41.1504V9.41309H11.126ZM38.2357 37.5508H14.2357V12.5508H38.2357V37.5508Z" fill="#002438"/>
<path d="M9.8618 12.4346H6.84961V18.71H9.8618V12.4346Z" fill="#002438"/>
<path d="M9.8618 20.2275H6.84961V26.5029H9.8618V20.2275Z" fill="#002438"/>
<path d="M21.3841 16.499H16.9141V24.1152H21.3841V16.499Z" fill="#002438"/>
<path d="M21.3841 25.8848H16.9141V33.501H21.3841V25.8848Z" fill="#002438"/>
<path d="M35.362 30.8301H23.4238V32.4717H35.362V30.8301Z" fill="#002438"/>
<path d="M35.362 26.9131H23.4238V28.5547H35.362V26.9131Z" fill="#002438"/>
<path d="M35.362 17.5771H23.4238V19.2187H35.362V17.5771Z" fill="#002438"/>
<path d="M35.362 21.3965H23.4238V23.0381H35.362V21.3965Z" fill="#002438"/>
</g>
<defs>
<clipPath id="clip0_3167_1298">
<rect width="48" height="50" fill="white"/>
</clipPath>
</defs>
</svg>
