<svg width="50" height="50" viewBox="0 0 50 50" fill="none" xmlns="http://www.w3.org/2000/svg">
<g clip-path="url(#clip0_3167_1299)">
<path d="M41.9395 30.5908H38.2969L39.4336 28.6816L37.6582 27.5957L35.8398 30.5908H33.7012L36.8164 25.4014L35.0264 24.3164L31.2617 30.5908H25.9063L24.3164 27.9121L27.0977 23.2666H34.4004V21.1787H28.3457L29.4404 19.3359L32.9395 19.3193V17.2314L30.6934 17.2461L32.5732 14.1025L30.7949 13.0352L28.9141 16.166L27.8633 14.1963L26.0254 15.1787L27.6611 18.2695L26.5527 20.1172L23.6963 14.7725L21.8564 15.7539L25.3037 22.1992L22.4356 26.9844H19.5205L16.6563 22.2061L20.0986 15.7607L18.2617 14.7676L15.4063 20.1104L14.2979 18.2549L15.9502 15.1787L14.1104 14.1963L13.0596 16.166L11.1797 13.041L9.38184 14.1016L11.2627 17.2461L9.03418 17.2314L9.01367 19.3203L12.5156 19.3369L13.6104 21.1787H7.55567V23.2666H14.8584L17.7031 28.0068L16.1729 30.5908H11.1377L7.37305 24.3164L5.58008 25.4014L8.68164 30.5908H6.54297L4.74316 27.5967L2.94824 28.6816L4.10156 30.5908H0.443359V32.6787H4.10156L2.94824 34.5879L4.74316 35.6729L6.54297 32.6787H8.68164L5.58008 37.8691L7.37305 38.9531L11.1377 32.6787H16.1758L17.6104 35.1045L14.8613 39.6855H7.55859V41.7744H13.6133L12.5186 43.6162L9.0166 43.6328L9.03711 45.7217L11.2656 45.707L9.38477 48.8516L11.1807 49.916L13.0605 46.791L14.1113 48.7598L15.9512 47.7773L14.2988 44.7022L15.4072 42.8467L18.2617 48.1855L20.1006 47.2041L16.6582 40.7529L19.332 36.292H22.6279L25.3057 40.7607L21.8584 47.2061L23.6982 48.1885L26.5547 42.8438L27.6631 44.6865L26.0254 47.7744L27.8633 48.7559L28.9141 46.7871L30.7949 49.918L32.5732 48.8506L30.6934 45.7031L32.9395 45.7178V43.6328L29.4404 43.6162L28.3457 41.7744H34.4004V39.6855H27.0947L24.4141 35.1992L25.9111 32.6787H31.2666L35.0313 38.9531L36.8164 37.8682L33.6992 32.6787H35.8398L37.6563 35.6738L39.4316 34.5879L38.2949 32.6787H41.9375L41.9395 30.5908ZM22.5772 34.2041H19.5059L17.9902 31.6357L19.5059 29.0674H22.5772L24.0918 31.6357L22.5772 34.2041Z" fill="#002438"/>
<path d="M49.1152 12.9795L43.3184 14.5713L39.8398 12.5811L43.3184 10.583L49.1152 12.1748L49.5566 10.6045L45.3223 9.45019L49.4414 7.10058L48.6406 5.67871L44.5273 8.02246L45.6816 3.80664L44.1006 3.38379L42.5225 9.16894L39.0098 11.1768V7.13281L43.2607 2.8916L42.1035 1.73437L39.0098 4.82715V0.0820312H37.3779V4.82715L34.2842 1.7334L33.127 2.8916L37.3779 7.13281V11.1768L33.8652 9.16894L32.2871 3.38379L30.7061 3.80664L31.8604 8.02246L27.7471 5.67871L26.9463 7.09961L31.0576 9.45019L26.8311 10.6055L27.2725 12.1748L30.29 11.3467L30.3486 11.248L30.4434 11.3047L33.0693 10.583L36.5479 12.5811L34.1973 13.9258L33.6914 14.7715L33 15.9277L33.9775 15.9219L37.3779 13.9775V18.0215L35.5 19.875V21.1787V22.0039L37.3779 20.3271V24.2158L37.4941 24.2861L39.0098 25.1631V20.3271L42.1035 23.4199L43.2607 22.2627L39.0098 18.0215V13.9775L42.5225 15.9853L44.1006 21.7705L45.6816 21.3477L44.5273 17.1318L48.6406 19.4756L49.4414 18.0537L45.3223 15.7041L49.5566 14.5498L49.1152 12.9795Z" fill="#002438"/>
<path d="M27.2549 13.0439L27.3408 12.998L27.2725 12.9795L27.2549 13.0439Z" fill="#002438"/>
<path d="M28.9814 13.5234L29.0205 13.459L28.9346 13.4355L28.9814 13.5234Z" fill="#002438"/>
</g>
<defs>
<clipPath id="clip0_3167_1299">
<rect width="50" height="50" fill="white"/>
</clipPath>
</defs>
</svg>
