<svg width="50" height="50" viewBox="0 0 50 50" fill="none" xmlns="http://www.w3.org/2000/svg">
<g clip-path="url(#clip0_3167_1300)">
<path d="M35.7783 0H30.4893C25 0 25 6.48731 25 6.48731H30.3896C35.7783 6.48731 35.7783 0 35.7783 0Z" fill="#002438"/>
<path d="M19.5908 6.48731H25C25 6.48731 25 0 19.5908 0H14.2012C14.2012 0 14.2012 6.48731 19.5908 6.48731Z" fill="#002438"/>
<path d="M19.3355 18.2432C23.1236 14.3555 18.5328 9.76562 18.5328 9.76562L14.7398 13.5576C10.9478 17.4502 15.5386 22.041 15.5386 22.041L19.3355 18.2432Z" fill="#002438"/>
<path d="M11.7266 25.8486L15.5186 22.0557C15.6162 22.0557 11.0264 17.4658 7.13574 21.2578L3.34375 25.0498C3.34375 25.0498 7.93457 29.6406 11.7266 25.8486Z" fill="#002438"/>
<path d="M31.6671 15.748C31.6671 15.748 27.0773 20.3379 30.9884 24.1318L34.6612 27.9238C34.6612 27.9238 39.2511 23.334 35.4591 19.541L31.6671 15.748Z" fill="#002438"/>
<path d="M38.4766 31.7383C42.2695 35.5313 46.8604 30.9405 46.8604 30.9405L43.0664 27.1485C39.2744 23.3565 34.6836 27.9473 34.6836 27.9473L38.4766 31.7383Z" fill="#002438"/>
<path d="M25 41.1182C13.4229 41.1182 3.64258 44.8105 0.0498047 50H49.9521C46.3574 44.8105 36.5771 41.1182 25 41.1182Z" fill="#002438"/>
<path d="M26.6963 40.1201V37.9238L35.0801 29.6406L32.9844 27.5449L26.6963 33.7324V7.48535H23.4033V27.9443L17.2158 21.7568L15.1201 23.8525L23.4033 32.0361V40.1201H26.6963Z" fill="#002438"/>
</g>
<defs>
<clipPath id="clip0_3167_1300">
<rect width="50" height="50" fill="white"/>
</clipPath>
</defs>
</svg>
