<svg width="49" height="50" viewBox="0 0 49 50" fill="none" xmlns="http://www.w3.org/2000/svg">
<path d="M25.4795 40H23.5195V44H25.4795V40Z" fill="#002438"/>
<path d="M13.7198 28H9.7998V30H13.7198V28Z" fill="#002438"/>
<path d="M26.46 27V15H22.54V31H39.2V27H26.46Z" fill="#002438"/>
<path d="M24.5 8C13.1324 8 3.92383 17.4004 3.92383 28.9961C3.92383 40.5918 13.1362 49.9922 24.5 49.9922C35.8638 49.9922 45.0762 40.5918 45.0762 28.9961C45.0762 17.4004 35.8676 8 24.5 8ZM24.5 45.9961C21.2046 45.9961 17.9833 44.9989 15.2434 43.1305C12.5035 41.2622 10.3682 38.6067 9.10744 35.4999C7.84671 32.3931 7.51723 28.9746 8.16068 25.6767C8.80413 22.3788 10.3916 19.3497 12.7223 16.9725C15.053 14.5953 18.0223 12.9769 21.2545 12.3218C24.4867 11.6667 27.8367 12.0045 30.8808 13.2924C33.9249 14.5803 36.5263 16.7604 38.356 19.5571C40.1857 22.3537 41.1615 25.6413 41.16 29.0039C41.1609 31.2363 40.7305 33.4469 39.8935 35.5094C39.0565 37.5719 37.8292 39.4458 36.2819 41.024C34.7346 42.6021 32.8976 43.8536 30.876 44.7067C28.8543 45.5599 26.6877 45.998 24.5 45.9961Z" fill="#002438"/>
<path d="M27.4396 5H21.5596V7H27.4396V5Z" fill="#002438"/>
<path d="M37.5972 7.16484L35.8555 9.45691L40.5801 13.1952L42.3218 10.9031L37.5972 7.16484Z" fill="#002438"/>
<path d="M29.3996 0H19.5996V4H29.3996V0Z" fill="#002438"/>
</svg>
