<svg width="50" height="50" viewBox="0 0 50 50" fill="none" xmlns="http://www.w3.org/2000/svg">
<g clip-path="url(#clip0_3167_1303)">
<path d="M35.291 5.33789L33.7891 3.83691L31.1895 6.43848L32.6895 7.93848L9.07617 31.4531L18.4814 40.8584L41.9922 17.3447L43.4961 18.8477L46.0938 16.2441L44.6973 14.8438L35.291 5.33789ZM36.5918 18.5449L34.3906 16.3438L33.6914 17.0439L35.8926 19.2451L32.9912 22.1475L30.79 20.0459L30.0889 20.7461L32.29 22.9492L28.9873 26.25L23.7842 21.0469L34.791 10.04L39.9941 15.2432L36.5918 18.5449Z" fill="#002438"/>
<path d="M0 48.6924L0.0703125 48.7627L1.27148 49.9639L1.27344 49.9658L13.7969 37.4424L12.5234 36.1689L0 48.6924Z" fill="#002438"/>
<path d="M41.6953 0.0341797L39.0937 2.63574L41.6953 5.23731L38.9932 7.93945L42.0957 11.041L44.7969 8.33887L47.3984 10.9404L50 8.33887L41.6953 0.0341797Z" fill="#002438"/>
</g>
<defs>
<clipPath id="clip0_3167_1303">
<rect width="50" height="50" fill="white"/>
</clipPath>
</defs>
</svg>
