<svg width="49" height="50" viewBox="0 0 49 50" fill="none" xmlns="http://www.w3.org/2000/svg">
<g clip-path="url(#clip0_3167_1304)">
<path d="M40.8985 0H8.10102C7.33454 0.00688237 6.60136 0.320636 6.05935 0.873702C5.51735 1.42677 5.20987 2.17491 5.20312 2.95703V47.043C5.20987 47.8251 5.51735 48.5732 6.05935 49.1263C6.60136 49.6794 7.33454 49.9931 8.10102 50H40.8985C41.665 49.9934 42.3984 49.6797 42.9404 49.1266C43.4825 48.5735 43.7899 47.8252 43.7964 47.043V2.95703C43.7899 2.17483 43.4825 1.42654 42.9404 0.873424C42.3984 0.320304 41.665 0.00663135 40.8985 0ZM24.4375 47.1104C24.151 47.1104 23.8708 47.0236 23.6325 46.8612C23.3943 46.6987 23.2086 46.4678 23.0989 46.1976C22.9892 45.9275 22.9605 45.6302 23.0164 45.3434C23.0723 45.0566 23.2103 44.7931 23.413 44.5864C23.6156 44.3796 23.8738 44.2388 24.1549 44.1817C24.4359 44.1247 24.7273 44.154 24.992 44.2659C25.2568 44.3778 25.4831 44.5673 25.6423 44.8104C25.8015 45.0536 25.8865 45.3394 25.8865 45.6318C25.8865 45.8263 25.8489 46.0189 25.7758 46.1985C25.7028 46.3782 25.5957 46.5413 25.4607 46.6787C25.3258 46.816 25.1656 46.9249 24.9894 46.9989C24.8131 47.073 24.6243 47.1109 24.4337 47.1104H24.4375ZM40.5205 41.4785H8.4599V3.69629H40.5205V41.4785Z" fill="#002438"/>
<path d="M36.0254 30.9141H22.1943V32.2578H36.0254V30.9141Z" fill="#002438"/>
<path d="M27.3317 33.4678H22.1943V34.8115H27.3317V33.4678Z" fill="#002438"/>
<path d="M19.693 29.9727H13.502V36.29H19.693V29.9727Z" fill="#002438"/>
<path d="M36.0254 20.2959H22.1943V21.6396H36.0254V20.2959Z" fill="#002438"/>
<path d="M33.1275 22.8496H22.1943V24.1934H33.1275V22.8496Z" fill="#002438"/>
<path d="M19.693 19.3545H13.502V25.6719H19.693V19.3545Z" fill="#002438"/>
<path d="M36.0254 9.54297H22.1943V10.8867H36.0254V9.54297Z" fill="#002438"/>
<path d="M27.3317 12.2314H22.1943V13.5752H27.3317V12.2314Z" fill="#002438"/>
<path d="M19.693 8.60254H13.502V14.9199H19.693V8.60254Z" fill="#002438"/>
</g>
<defs>
<clipPath id="clip0_3167_1304">
<rect width="49" height="50" fill="white"/>
</clipPath>
</defs>
</svg>
