<svg width="49" height="50" viewBox="0 0 49 50" fill="none" xmlns="http://www.w3.org/2000/svg">
<g clip-path="url(#clip0_3167_1305)">
<path d="M15.1331 23.3518L16.4892 21.969L3.25061 8.45923L4.02006 7.67603L17.2577 21.176L18.6291 19.7766L5.39914 6.27661L6.16668 5.49243L19.3976 18.9934L20.7691 17.594L7.5381 4.09302L8.3066 3.30884L21.5376 16.8098L22.8937 15.425L8.84924 1.09497L5.29291 0.0100098L0.0263672 5.38501L1.08867 9.01294L15.1331 23.3518Z" fill="#002438"/>
<path d="M48.6615 6.94427L42.4991 13.4111L37.4125 11.8163L35.8458 6.62201L42.1824 0.332946C42.1824 0.332946 25.441 -3.47955 27.58 15.2343L1.36784 41.9726C0.501173 42.8439 0.00919111 44.0308 0.000127473 45.2722C-0.00893616 46.5136 0.465661 47.7079 1.31951 48.5922C2.17337 49.4766 3.33653 49.9786 4.55312 49.9878C5.76971 49.9971 6.94008 49.5128 7.80675 48.6415L7.85556 48.5917L34.06 21.8447C52.3996 24.0283 48.6615 6.94427 48.6615 6.94427ZM6.07357 46.5468L4.22745 47.0546L2.87134 45.6777L3.369 43.7949L5.20745 43.2949L6.55591 44.6708L6.07357 46.5468Z" fill="#002438"/>
<path d="M45.1329 41.5439C44.7316 41.4207 44.3387 41.2706 43.9567 41.0947L43.5481 40.8994C42.7891 40.5371 42.0551 40.1182 41.3287 39.6992C41.301 39.6865 41.2694 39.667 41.2416 39.6514C41.1383 39.5908 41.0349 39.5273 40.9354 39.4629C40.1477 38.96 39.4816 38.3389 38.8222 37.667C38.2844 37.1136 37.7456 36.5602 37.2058 36.0068C36.4211 35.2109 35.642 34.4072 34.862 33.6113C33.9548 32.6868 33.0494 31.7624 32.146 30.8379C31.7527 30.4336 31.3603 30.0254 30.9631 29.6279L29.0596 31.5703C29.452 31.9746 29.852 32.3799 30.2415 32.7773C31.1488 33.6999 32.0551 34.6234 32.9604 35.5479C33.7404 36.3447 34.5271 37.1445 35.3109 37.9404C35.8481 38.4912 36.3882 39.0423 36.9312 39.5937C37.5953 40.2715 38.2107 40.9609 38.7074 41.7715C38.7677 41.8633 38.8232 41.959 38.8758 42.0576L38.9256 42.1465C39.3371 42.8926 39.7429 43.6406 40.0989 44.4121C40.1669 44.5586 40.2339 44.7051 40.2961 44.8506C40.4682 45.2327 40.6131 45.6269 40.7296 46.0303L47.2116 49.9824L47.4719 49.708L48.0949 49.0557L48.7294 48.4248L49.0003 48.1543L45.1329 41.5439Z" fill="#002438"/>
</g>
<defs>
<clipPath id="clip0_3167_1305">
<rect width="49" height="50" fill="white"/>
</clipPath>
</defs>
</svg>
