<svg width="52" height="50" viewBox="0 0 52 50" fill="none" xmlns="http://www.w3.org/2000/svg">
<g clip-path="url(#clip0_3167_1306)">
<path d="M29.1873 47.9307V38.9307C28.3275 38.3512 27.5571 37.6579 26.8991 36.8711C25.6315 37.5029 24.2712 37.9454 22.8651 38.1836V47.9434L21.1172 50H30.9769L29.2087 47.9404L29.1873 47.9307Z" fill="#002438"/>
<path d="M51.9083 28.292C51.9127 27.2302 51.5653 26.1945 50.9165 25.3352C50.2677 24.4759 49.3512 23.8376 48.2998 23.5128C49.371 22.564 50.1476 21.3481 50.543 20.0003C50.9385 18.6525 50.9373 17.2256 50.5396 15.8784C50.142 14.5312 49.3634 13.3164 48.2905 12.3693C47.2177 11.4222 45.8926 10.7799 44.4627 10.5137C45.2455 9.33576 45.5371 7.91714 45.2793 6.54141C45.0215 5.16567 44.2332 3.93415 43.0721 3.09299C41.9109 2.25183 40.4624 1.86299 39.016 2.00417C37.5696 2.14536 36.232 2.80617 35.2703 3.85455C34.7517 2.75388 33.927 1.81235 32.8871 1.13381C31.8473 0.455266 30.6327 0.0660946 29.3774 0.00922363C28.1221 -0.0476474 26.8749 0.229993 25.7733 0.811515C24.6717 1.39304 23.7585 2.25584 23.1346 3.30475C21.3919 1.80547 19.1409 0.967952 16.8026 0.948821C14.4642 0.92969 12.1987 1.73026 10.4297 3.2008C8.66077 4.67135 7.50949 6.71114 7.19123 8.9387C6.87297 11.1663 7.40952 13.429 8.70053 15.3038C7.66658 15.6218 6.74668 16.2134 6.04616 17.0108C5.34565 17.8082 4.89284 18.7792 4.73959 19.8126C3.53462 20.0443 2.43779 20.6392 1.60821 21.5109C0.778631 22.3826 0.259455 23.4858 0.126001 24.6603C-0.00745257 25.8349 0.251757 27.0199 0.866025 28.0432C1.48029 29.0666 2.41767 29.8751 3.54217 30.3516V30.4493C3.51827 31.2444 3.7412 32.0283 4.18252 32.701C4.62384 33.3738 5.26356 33.9049 6.02008 34.2266C6.7766 34.5484 7.61565 34.6462 8.43021 34.5076C9.24477 34.3689 9.99794 34.0002 10.5937 33.4483C12.7021 35.5617 15.4844 36.9373 18.4988 37.3564C21.5133 37.7756 24.5869 37.2143 27.2316 35.7618C28.1969 37.0315 29.4533 38.0703 30.9035 38.7977C32.3537 39.5251 33.9587 39.9216 35.5939 39.9563C37.2292 39.9911 38.8508 39.6632 40.333 38.9981C41.8151 38.333 43.1181 37.3486 44.1408 36.1212C44.8481 36.7913 45.7803 37.1976 46.7706 37.2675C47.761 37.3373 48.7449 37.0662 49.5464 36.5025C50.3479 35.9389 50.9147 35.1195 51.1455 34.1908C51.3764 33.2622 51.2561 32.2849 50.8063 31.4337C51.5346 30.5375 51.9233 29.4293 51.9083 28.292Z" fill="#002438"/>
</g>
<defs>
<clipPath id="clip0_3167_1306">
<rect width="52" height="50" fill="white"/>
</clipPath>
</defs>
</svg>
