<svg width="49" height="50" viewBox="0 0 49 50" fill="none" xmlns="http://www.w3.org/2000/svg">
<g clip-path="url(#clip0_3167_1307)">
<path d="M15.5542 0.078125H14.9446L14.8001 13.6143H13.7846L12.9922 0.078125H12.33L11.9969 13.6143H10.9796L10.3872 0.078125H9.72492L9.1976 13.6143H8.18027L7.7276 0.078125H7.11414L6.19922 15.3779L10.1585 18.4736L9.53064 49.998H13.1377L12.508 18.4736L16.4691 15.3779L15.5542 0.078125Z" fill="#002438"/>
<path d="M42.8005 9.59961C42.8005 3.9541 40.4883 0.0400391 36.8343 0.0400391C33.1804 0.0400391 30.8701 3.9541 30.8701 9.59961C30.8701 14.6357 32.5794 18.8242 35.6821 19.6719L35.0275 50H38.6355L37.9866 19.666C41.0912 18.8262 42.8005 14.6377 42.8005 9.59961Z" fill="#002438"/>
<path d="M26.1053 0C21.19 0.320312 20.9297 10.0283 20.9297 10.0283V23.4541H23.8065L23.1605 50H26.7685L26.1158 23.252L26.1053 0Z" fill="#002438"/>
</g>
<defs>
<clipPath id="clip0_3167_1307">
<rect width="49" height="50" fill="white"/>
</clipPath>
</defs>
</svg>
