<svg width="50" height="50" viewBox="0 0 50 50" fill="none" xmlns="http://www.w3.org/2000/svg">
<g clip-path="url(#clip0_3167_1309)">
<path d="M28.9512 38.3184V39.167H21.1484V38.3184H-0.0488281V41.1162H50.0488V38.3184H28.9512Z" fill="#002438"/>
<path d="M40.6689 13.4697H36.2949V17.8438H40.6689V13.4697Z" fill="#002438"/>
<path d="M40.6689 20.832H36.2949V25.2061H40.6689V20.832Z" fill="#002438"/>
<path d="M40.6689 28.2168H36.2949V32.5908H40.6689V28.2168Z" fill="#002438"/>
<path d="M45.8486 8.88672H4.05176V36.9814H45.8486V8.88672ZM6.15234 34.8838V10.9814H43.75V34.8838H6.15234Z" fill="#002438"/>
<path d="M8.9541 13.5186V32.542H33.3008V13.5186H8.9541ZM32.5195 31.7607H9.73535V14.2998H32.5195V31.7607Z" fill="#002438"/>
<path d="M21.1572 24.5244C21.3008 24.5371 21.4502 24.5518 21.5957 24.5518H21.6084C21.7633 24.5523 21.9179 24.5389 22.0703 24.5117C23.7481 24.2187 25.0137 22.4355 25.0137 20.3564C25.0137 18.6963 24.1992 17.1865 22.9385 16.5166C22.569 16.3239 22.163 16.2115 21.7471 16.1865H21.4971C21.2751 16.1914 21.0546 16.2242 20.8408 16.2842C20.6361 16.3359 20.4391 16.4143 20.2549 16.5176C18.9942 17.1797 18.1797 18.6924 18.1797 20.3711C18.1738 22.4766 19.4571 24.2627 21.1572 24.5244Z" fill="#002438"/>
<path d="M23.8145 25.2178L23.792 25.2324C23.2692 25.5591 22.6818 25.7687 22.0703 25.8467C21.9316 25.8594 21.7715 25.873 21.6289 25.873H21.6025C21.4512 25.873 21.2852 25.8584 21.1738 25.8467C20.5301 25.7801 19.9116 25.5605 19.3701 25.2061L19.3477 25.1904L16.3916 26.5937V30.6279H26.8408V26.5937L23.8145 25.2178Z" fill="#002438"/>
</g>
<defs>
<clipPath id="clip0_3167_1309">
<rect width="50" height="50" fill="white"/>
</clipPath>
</defs>
</svg>
