<svg width="49" height="50" viewBox="0 0 49 50" fill="none" xmlns="http://www.w3.org/2000/svg">
<g clip-path="url(#clip0_3167_1310)">
<path d="M10.4668 26.7578C12.5053 32.3027 16.6875 36.4355 21.7512 37.5752C22.6883 37.7919 23.646 37.9026 24.6069 37.9053C25.6279 37.9075 26.6456 37.7866 27.6388 37.5449C32.6068 36.3467 36.7086 32.2461 38.7212 26.7578H10.4668Z" fill="#002438"/>
<path d="M37.5508 8.77441C34.8032 3.61328 30.0401 0.208008 24.607 0.208008C19.1519 0.208008 14.3763 3.61328 11.6182 8.77441H37.5508Z" fill="#002438"/>
<path d="M39.2261 10.0928H9.63086C7.36365 10.0928 5.51562 11.9063 5.51562 14.1357V21.3975C5.51562 23.627 7.36078 25.4404 9.63086 25.4404H39.2261C41.4943 25.4404 43.3413 23.627 43.3413 21.3975V14.1357C43.3385 11.9063 41.4943 10.0928 39.2261 10.0928ZM33.8007 19.6289C33.8009 19.9787 33.6945 20.32 33.4963 20.6055C33.4638 20.6514 33.4303 20.6963 33.3939 20.7393C33.3131 20.8347 33.2223 20.9208 33.1231 20.9961C32.8105 21.2404 32.4268 21.371 32.033 21.3672H16.8239C16.4947 21.3697 16.1713 21.2786 15.89 21.104C15.6087 20.9295 15.3806 20.6784 15.2314 20.3789C15.1468 20.2083 15.092 20.0239 15.0697 19.834C15.0609 19.7663 15.0564 19.6981 15.0563 19.6299V15.9004C15.0564 15.8325 15.0609 15.7646 15.0697 15.6973C15.0797 15.6068 15.097 15.5173 15.1213 15.4297C15.1491 15.3349 15.1849 15.2427 15.2285 15.1543C15.3772 14.8533 15.6053 14.6007 15.8872 14.425C16.1692 14.2493 16.4936 14.1576 16.8239 14.1602H32.033C32.4981 14.1604 32.9454 14.3425 33.2829 14.6689C33.3628 14.7474 33.4353 14.8334 33.4992 14.9258C33.6954 15.2102 33.8007 15.5496 33.8007 15.8975V19.6289Z" fill="#002438"/>
<path d="M48.9925 47.7773C48.9925 39.2812 39.9792 39.2812 39.9792 39.2812H34.4724C32.0373 40.725 29.3406 41.6498 26.5453 42C25.863 42.0635 25.1194 42.126 24.4399 42.126H24.3154C23.634 42.126 22.8895 42.0635 22.2703 42C19.4031 41.7102 16.6331 40.7821 14.1556 39.2812H9.024C9.024 39.2812 0.146582 39.2813 0.0145117 47.5898L0.0078125 49.792H48.9887L48.9925 47.7773Z" fill="#002438"/>
</g>
<defs>
<clipPath id="clip0_3167_1310">
<rect width="49" height="50" fill="white"/>
</clipPath>
</defs>
</svg>
