<svg width="50" height="49" viewBox="0 0 50 49" fill="none" xmlns="http://www.w3.org/2000/svg">
<g clip-path="url(#clip0_3212_8443)">
<path d="M12.4993 38.7917C12.4993 41.0375 14.3743 42.875 16.666 42.875H33.3327C35.6243 42.875 37.4993 41.0375 37.4993 38.7917V18.375C37.4993 16.1292 35.6243 14.2917 33.3327 14.2917H16.666C14.3743 14.2917 12.4993 16.1292 12.4993 18.375V38.7917ZM37.4993 8.16667H32.291L30.8118 6.71708C30.4368 6.34958 29.8952 6.125 29.3535 6.125H20.6452C20.1035 6.125 19.5618 6.34958 19.1868 6.71708L17.7077 8.16667H12.4993C11.3535 8.16667 10.416 9.08542 10.416 10.2083C10.416 11.3313 11.3535 12.25 12.4993 12.25H37.4993C38.6452 12.25 39.5827 11.3313 39.5827 10.2083C39.5827 9.08542 38.6452 8.16667 37.4993 8.16667Z" fill="#002438"/>
</g>
<defs>
<clipPath id="clip0_3212_8443">
<rect width="50" height="49" fill="white"/>
</clipPath>
</defs>
</svg>
